<svg xmlns="http://www.w3.org/2000/svg" xmlns:xlink="http://www.w3.org/1999/xlink" xml:space="preserve" id="svg1" width="420mm" height="2245" viewBox="0 0 420 594">
  <defs id="defs1">
    <linearGradient id="linearGradient105">
      <stop id="stop107" offset=".2" style="stop-color:#4a4a4a;stop-opacity:1"/>
      <stop id="stop106" offset="1" style="stop-color:#020202;stop-opacity:1"/>
    </linearGradient>
    <linearGradient id="linearGradient94">
      <stop id="stop94" offset="0" style="stop-color:#06f;stop-opacity:1"/>
      <stop id="stop95" offset="1" style="stop-color:#001a43;stop-opacity:1"/>
    </linearGradient>
    <linearGradient id="linearGradient88">
      <stop id="stop88" offset="0" style="stop-color:#fff;stop-opacity:1"/>
      <stop id="stop90" offset=".1" style="stop-color:#5c7d66;stop-opacity:1"/>
      <stop id="stop91" offset=".3" style="stop-color:#d7ca9f;stop-opacity:1"/>
      <stop id="stop92" offset=".7" style="stop-color:#406743;stop-opacity:1"/>
      <stop id="stop93" offset=".8" style="stop-color:#887479;stop-opacity:1"/>
      <stop id="stop89" offset="1" style="stop-color:#48576c;stop-opacity:1"/>
    </linearGradient>
    <linearGradient xlink:href="#linearGradient88" id="linearGradient89" x1="-537.8" x2="-478.9" y1="42.4" y2="468.1" gradientTransform="translate(-438.1)" gradientUnits="userSpaceOnUse"/>
    <linearGradient xlink:href="#linearGradient94" id="linearGradient95" x1="-770.8" x2="-1142.8" y1="125" y2="357.5" gradientUnits="userSpaceOnUse"/>
    <radialGradient xlink:href="#linearGradient105" id="radialGradient105" cx="209" cy="292.2" r="210" fx="209" fy="292.2" gradientTransform="rotate(4.1 5657.1 -741.4)scale(1.4243 2.3297)" gradientUnits="userSpaceOnUse"/>
    <filter id="filter28" width="1.7" height="1.4" x="-.3" y="-.2" style="color-interpolation-filters:sRGB">
      <feFlood id="feFlood27" flood-color="#fff" flood-opacity="1" result="flood"/>
      <feGaussianBlur id="feGaussianBlur27" in="SourceGraphic" result="blur" stdDeviation="2"/>
      <feOffset id="feOffset27" dx="0" dy="0" in="blur" result="offset"/>
      <feComposite id="feComposite27" in="flood" in2="offset" operator="in" result="comp1"/>
      <feComposite id="feComposite28" in="SourceGraphic" in2="comp1" operator="over" result="fbSourceGraphic"/>
      <feColorMatrix id="feColorMatrix33" in="fbSourceGraphic" result="fbSourceGraphicAlpha" values="0 0 0 -1 0 0 0 0 -1 0 0 0 0 -1 0 0 0 0 1 0"/>
      <feFlood id="feFlood33" flood-color="#fff" flood-opacity="1" result="flood"/>
      <feGaussianBlur id="feGaussianBlur33" in="fbSourceGraphic" result="blur" stdDeviation="17.9"/>
      <feOffset id="feOffset33" dx="0" dy="0" in="blur" result="offset"/>
      <feComposite id="feComposite33" in="flood" in2="offset" operator="in" result="comp1"/>
      <feComposite id="feComposite34" in="fbSourceGraphic" in2="comp1" operator="over" result="fbSourceGraphic"/>
      <feColorMatrix id="feColorMatrix34" in="fbSourceGraphic" result="fbSourceGraphicAlpha" values="0 0 0 -1 0 0 0 0 -1 0 0 0 0 -1 0 0 0 0 1 0"/>
      <feFlood id="feFlood34" flood-color="#fff" flood-opacity="1" result="flood"/>
      <feGaussianBlur id="feGaussianBlur34" in="fbSourceGraphic" result="blur" stdDeviation="17.9"/>
      <feOffset id="feOffset34" dx="0" dy="0" in="blur" result="offset"/>
      <feComposite id="feComposite35" in="flood" in2="offset" operator="in" result="comp1"/>
      <feComposite id="feComposite36" in="fbSourceGraphic" in2="comp1" operator="over" result="comp2"/>
    </filter>
  </defs>

  <style>
    /* The Universal Hierarchy */
    [data-trait-color="primary"]   { fill: var(--kit-primary, #ffffff); }
    [data-trait-color="secondary"] { fill: var(--kit-secondary, #222222); }
    [data-trait-color="accent"]    { fill: var(--kit-accent, #ececec); }
    [data-trait-color="detail"]    { fill: var(--kit-detail, #111111); }

    /* Independent Stable Elements */
    [data-trait-name="skintone"]   { fill: var(--kit-skintone, #d2a07a); }

    /* The Constant Core: Stays white-hot while the primary flame shifts behind it */
    [data-trait-name="aura-glow"]  { fill: #ffffff; filter: url(#white-glow); }
  </style>


  <path id="background" d="M0 0h420v594H0z" style="opacity:1;fill:url(#radialGradient105);fill-opacity:1;stroke-width:.264583"/>
  <g id="chair" style="display:inline" transform="rotate(10.7 106 306.2)scale(.9395)">
    <path id="path73" d="m234.1 376.5-.4 50.5-91.5 15 2.4-35-12.8-7-7.8-4.5-4.5 103.9 9 4.5 7.5-3.3 2-9.9 92.4 28.9v18.1l10.3 3.7 8.2-5.7 3.8-47.9 68.4-16.5v-8.2l-5.8-3.3-2-4.5c-1.7.8-8.7 2.4-8.7 2.4L256 445l4-67.2-12.3 2zm-46.2 72.2 3.7 15.2c5.8 10.7 4.6 12.8 4.6 12.8-3.7 12-3.3 14.4-3.3 14.4a777 777 0 0 0-53.2-15.2l2-18.6zm66.4 11.5 22.3 5L255 470zM232 490.7l-.4 12-10.3-3zm80.4-16.9 10 3.7-.5-6.6c-1.6.4-9.5 3-9.5 3m46.6-16-.2 41.2-10.3-.2c-5.3-19.8 3-8 3-8 .3-12-2.8-12-2.8-12a96 96 0 0 1 10.3-21m-1.2-45.4-.6-53.4-8.3 1.2c1 .6 4.6 17.5 5.6 28s2.5 20.3 2.5 20.3z" style="display:inline;fill:#1d1d1d;fill-opacity:.685616;stroke-width:.298641"/>
    <path id="path72" d="m248.5 399.8-4 80.8s2.4-29.3 4.4-46.6 7.9 3.3 7.9 3.3c.4-21.8 1.6-38.7 1.6-38.7-3.3 18.5-9.9 1.2-9.9 1.2m3.7 69.7 46.6-10.3c-16.9 5.7 3.8 2.4 3.8 2.4-24.8 8.3 1.6 12.4 1.6 12.4l-47.8 11.6c38.7-12.8 15.6-15.7 15.6-15.7 19.4-5.8-19.8-.4-19.8-.4M135.6 422c-3.3 41.6-4.6 61.4-4.6 61.4 6.2-50.7 11.6-28 11.6-28-.4-5.8 1.6-29.3 1.6-29.3-7.4 22.7-8.6-4.1-8.6-4.1M371 197.3c-9 44.2-17.7 127.4-17.7 127.4-.9 2.5-.4 20.3-.4 20.3.8-52.4 19-143.5 19-143.5l4.9-4.2zm-55.3-16.5c12 .5 15.7 3.8 15.7 3.8-5-.9-8.2-1.7-8.2-1.7-2.5 0-7.5-2-7.5-2m-64.7 172c-1.6 12.8 2.5 12.4 2.5 12.4a11 11 0 0 0-2.5-12.4" style="fill:#f9f9f9;fill-opacity:.345693;stroke-width:.298641"/>
    <path id="path85" d="M161.8 359.8s81.6 19.8 85.4 19.5c3.8-.2 24.2-4 24.2-4-5-21.3-19.8-30.6-19.8-30.6-13.4-4.1-24.6-5.3-24.6-5.3-48.7 7.8-54.4 14.6-54.4 14.6zm191 0 9-1.5c.3-4.6 16.4-158.3 16.4-158.3-.6-5.5-4.1-5.5-4.1-5.5-30-3.5-26.9-4-38-9.3-11-5.3-24.1-6.2-24.1-6.2 5 31.8 4.3 53.1 4.3 53.1 9 49.6 8 59.4 8 59.4 6 21.3 7.8 22.2 7.8 22.2l-1.5 2s16 32.2 16.6 35.4 5.6 8.7 5.6 8.7" style="fill:#535353;fill-opacity:1;stroke-width:.298641"/>
    <path id="path66" d="M316 179q1 0 2 .3zm2 .3c3.3.8 11.9 3.4 32.7 11.9 0 0 4.1.8 22.8 3.2q.1-.1 1.6.1l-.7-.4s-9.4-1.2-20.2-3c-10.4-1.6-14.9-7.7-36.3-11.8m57 15.2a7 7 0 0 1 3.2 4.5c0-3.1-1.7-4.2-3.1-4.5m3.2 4.5v1.5l-16.4 157.7-7 1.5 7.3-.9 16.3-158zM247.5 347.1l-.6 31.5-88.9-19.5-7.6-3.5 3.5 3 94.5 21.2 30-5.5-31.2 4.3zm-123 48.3-3.8 105.5 7.9 3.2 8.7-2.6.9-10.2 92.7 26.8.3 20.1 8.7 3.5 10.5-4.6 2.4-49 69.4-17.2-70.9 16.6-1.7 49-9 4 8.1-159.4-1.2.6-7.8 158.9-8-3v-21l-95-26.8-.3 11.1-7 2.6 7-101.4-7.8 101.7-7-3.5 3.2-100.5zm21 12c.6 1.4-7 72-7 72l93.9 28.5c-1.2-.6 2.6-130.9 2.6-130.9l-3.2 129.8-93.3-27.7 3.2-22.2 90-14-90.3 13.1 1.5-12 90.3-14.5L142 444l.9-2.4 90.3-14.2v-1.2l-90 14 2.3-28.9zM258 378.7l-3.8 95 63.3-14-62.7 13.4v-3.8l58.3-13.7-58.6 13.4 3.8-86.8zm-3.2 80.7c1.2 0 19 5.3 19 5.3l1.7-.6zm.6-12.5c1.5 0 42.3 12 42.3 12l1.4-.4-37.3-10.2zm.3-2.6 50.7 13.4 2-.6c-1.1 0-52.7-12.8-52.7-12.8M358 358.8l1.1 141.4-9.7-.7 8.9-.2-1-140.2zM256 488.1l-.6 14.9-3.5.3 3.2-1.5z" style="fill:#000;fill-opacity:1;stroke-width:.298641"/>
    <path id="path65" d="M316.6 220.6s.3 17.5 5.4 39.6c0 0 3 11 6.6 36.4-.4-4.2 1.2-31.8 5.7-67.1 0 0-7.8 8-17.7-9m-98 122a914 914 0 0 0-30.8 6.1s-5.4.5-14.3 4.7c4.4 2.4 12.5 7.7-8.8 4.8l-2.5 1.6a2593 2593 0 0 0 87.2 19s10.2-.7 22.1-3.1c0 0-1-5.8-12.5-23.8 0 0 5.9 12.5-3.6 16.3 0 0 12.8-.5 9.5 3.3 0 0 8 1-16.4 4.3 0 0-21-9-3.7-9.4 0 0-16.5-10 2.5-11.2 0 0-12-7.8-21.9-10.7q-3-1-6.7-1.9m97.7-159.2c10.5.9 20.2 5.5 26.6 8.2s26.8 4.6 26.8 4.6c-9.3 39.1-20.7 147-20.7 147a14 14 0 0 1-1.8-4.7C347 301 366 200 366 200c-26-2.9-33.5-8.7-39.4-10.8-5.8-2-13.7-2-13.7-2l-.3-5z" style="display:inline;fill:#000;fill-opacity:.271435;stroke-width:.298641"/>
  </g>
  <g id="earth" style="display:inline" transform="rotate(-8.6 702.7 -1854)scale(.1893)">
    <circle id="path86" cx="-950.6" cy="252.1" r="219.1" style="fill:url(#linearGradient95);fill-opacity:1;stroke-width:.276313"/>
    <path id="path87" d="m-925.8 37.1-2.2.2c-5.8 7.6.7 6.5.7 6.5 17.6-.3 15 4.4 15 4.4 19 2.6 20.8 8.8 20.8 8.8-2.1 3.3 9.2 5.8 9.2 5.8 14.2-1.4 3.6 2.2 3.6 2.2 4.4 11-2.9 11.7-2.9 11.7-11.3-.3-4-4.7-4-4.7 1.4-8 .7-7.7.7-7.7l-17.5-5.8c4 8-.4 10.5-.4 10.5 5.1 9.5-3.6 11.4-3.6 11.4-.4 7.6-11.7 9.8-11.7 9.8-13.2 3-18 7-18 7 25.3-4 20.9 7.6 20.9 7.6-14.6 5.9-24.1 4-24.1 4 .4 14-1.5 16.1-1.5 16.1 3.7 7.3 6.6 4.4 6.6 4.4 11-4 7 7.7 7 7.7-12.1 10.6-13.2 15-13.2 15a86 86 0 0 1-11.7 14.2c-29.6 41-12.8 73.4-12.8 73.4 14.6 15 12.8 20.1 12.8 20.1 25.2 21.6 53.3 4 53.3 4 28.2-14.2 27.4 1.5 27.4 1.5 20.9-4 15 18 15 18-.4 15.6 7.7 18.5 7.7 18.5 7.7 21.6 3.3 19.8 3.3 19.8 3.6 13.1-1.1 15.3-1.1 15.3-11.7 24.1-5.1 23.8-5.1 23.8 3.2 17.1 2.2 22.6 2.2 22.6-.8 13.5 2.5 13.2 2.5 13.2l1.1 11.3c38-6.6 50.4-28.9 50.4-28.9a99 99 0 0 0 16.5-32.8 79 79 0 0 0 10.2-10.6c8-25.2 3.3-29.6 3.3-29.6 17.1-44.2 18.6-49.7 20.4-59.2 1.9-9.5 1.9-26 1.9-26-8 3.7-8.8.8-8.8.8-9.5-1.5-18-16.5-18-16.5a247 247 0 0 0-32-51.1c3.6 2.6 8.3 5.5 8.3 5.5-1.4-4-1-9.9-1-9.9 2.9 10.2 7.6 16.8 7.6 16.8a200 200 0 0 1 31.4 51.9c3.7-5.1 12.6-27.6 12.6-27.6-11.2-54.3-51.3-89.3-67.4-104-16-14.5-51.1-37.5-78.9-44.1-20.8-5-32.2-5.4-36.5-5.3m93 60.2c2.2 0 5.1 1 5 6 0 0 5-1.7 18.9 5.2 0 0 8 6.6-1.8 4 0 0-6.2-4-11.7-.7s-4 4-12 .7-1.9-4-.8-15q.2-.2 2.4-.2m-43.2 3.5c.7 0 1.7.4 1.7.4 24.9 10.6 22.7 16 22.7 16 13.8 15.4 20 12.5 20 12.5-14.6-20.1-4.7-15-4.7-15 16 18 19.4 13.5 19.4 13.5 8.4 6.2 10.6-2.5 10.6-2.5 10.6 19.7 6.5 23.3 6.5 23.3-27-2.1-30.7-6.5-30.7-6.5-13.1 1-7.6 5-7.6 5 5.8 7-13.2-1.4-13.2-1.4-12-2.9-16.8-5.8-16.8-5.8-8.4-7-1-10.6-1-10.6a77 77 0 0 0-27.8.7c-8.8 2.2-13.6-.7-13.6-.7 4-15.4 8.4-15.4 8.4-15.4 5.9 0 1.1-4.3 1.1-4.3-1-4.8 8.4-.8 8.4-.8 10-9.5 14.3-1 14.3-1 24.1 12.7 16.4 16.7 16.4 16.7-8.4.4 3 4.8 3 4.8 1-6.2 4-7.3 4-7.3-4.8-9.9-11-11-11-11-12.5-9.3-11.8-10.6-10.1-10.6m-273 121.7c-19 39.4-12.8 51.5-12.8 51.5 10.6 48.6 16.4 52.6 16.4 52.6a95 95 0 0 1 19 36.9c23 41.6 38.8 57.7 38.8 57.7 8.4 6.2 17.5 10.2 17.5 10.2a81 81 0 0 1-14.6-17.9c7.7 5.5 1-3.6 1-3.6 10.7 1 .8-8.8.8-8.8 7-1.4 7-6.6 7-6.6 6.5-.3 1.8-7.6 1.8-7.6 4.7-2.2-1.5-6.2-1.5-6.2.8-11.7 9.2-11.7 9.2-11.7 20-4.4 11.3-24.9 11.3-24.9-3.3-12 1.4-11.7 1.4-11.7 16.5-15.3 7.7-30 7.7-30-10.6-.7-18.6-10.5-18.6-10.5-12-.4-16.5-5.1-16.5-5.1-12.4-7.3-14.6-18.7-14.6-18.7-9.8-2.2-7.3-13.1-7.3-13.1-8-8.4-11.3-5.9-11.3-5.9-8.4-5.4-9.1-16.4-9.1-16.4-7-8.8-14.6-5.8-14.6-5.8-1.5-8-11-4.4-11-4.4m206.4-177.2c-21.6 2.2-17.2-1.8-17.2-1.8 7.3-7 8.8-9.5 8.8-9.5-34.7 7-42 10.6-42 10.6-25.2 18.6-19.7 20-19.7 20 36.1-15.3 49-16 49-16 18.5-.7 21.1-3.3 21.1-3.3" style="opacity:.808331;fill:url(#linearGradient89);fill-opacity:1;stroke-width:.264583"/>
    <path id="path94" d="M-1053.5 303.8c-13.2-14-20.5 7.3-20.5 7.3-9.5 34.3-14.6 23.4-14.6 23.4-.7-16.1-7.3-18.3-7.3-18.3 4.4 23.4-3 23.4-3 23.4-21.1-10.3-13-2.2-13-2.2 9.4 23.4 13 31.4 13 31.4 8.1-26.3 39.5 12.4 39.5 12.4 53.4 50.4 30.7 54 30.7 54a26 26 0 0 1-27.7-9.4c21.1 5.8 8-9.5 8-9.5-23.4-15.4-32.9-17.5-32.9-17.5 41.7 25.5 22.7 25.5 22.7 25.5-11.7-11.7-14.7-4.4-14.7-4.4a121 121 0 0 0 38 26.3 130 130 0 0 0 35.8 13.2c-32.1-23.4-3.6-15.3-3.6-15.3 56.2 11.6 53.3 6.5 53.3 6.5-55.5-21.2-33.6-16.8-33.6-16.8-40.9-62-69.4-73.8-69.4-73.8-32.1-24-19.7-30.7-19.7-30.7 24 9.5 19-25.5 19-25.5m76.7 82.5c41.6 26.3 29.2 22.7 29.2 22.7-20.4-4.4-28.5-8.8-28.5-8.8 24.1 19.7 8 22.7 8 22.7 27-7.3 20.5 3.6 20.5 3.6 18.3-7.3 4.4-22.6 4.4-22.6 2.2-11.7-5.1-16.1-5.1-16.1-24.9-23.4-.7-11.7-.7-11.7-32.2-24.1-38-32.1-38-32.1 39.4 52.6 20.4 43 20.4 43-34.3-27-39.4-19-39.4-19 14.6 11 29.2 18.3 29.2 18.3m120.5-50.4c-12.4 22-2.9 25.6-2.9 25.6 4.4 26.3-.7 30.7-.7 30.7 22.6 9.5 39.4-.7 39.4-.7-13.1 17.5-27.7 20.4-27.7 20.4 46.7-27 52.6-43.8 52.6-43.8-45.3 16.8-28.5-1.5-28.5-1.5 18.3-11 11-8.8 11-8.8-41.7 19-24.9-11.6-24.9-11.6-10.2 35.8-18.3-10.3-18.3-10.3m-55.5 81.1c29.2 22-5.1 23.4-5.1 23.4 26.3 10.2-4.4 17.5-4.4 17.5-17.5 3-8.8-9.5-8.8-9.5-22.6 15.4-30 10.3-30 10.3 46.9 8.7 83.4-3 83.4-3l10.2-8c-43.8 11-26.3-1.5-26.3-1.5 19-24.8 2.2-38 2.2-38 9.5 34.4-21.2 8.8-21.2 8.8M-1109 104.3c-26.3 31.4-30 31.4-30 31.4 21.3-13.1 19-.7 19-.7 20.5-16.8 22-19.7 22-19.7-19.7 11-11-11-11-11m8 22.7c12.5 8.7 58.5-32.2 58.5-32.2 32.2-22.6 57-30 57-30-28.5 19 11 21.2 11 21.2-49.7 1.5-61.4 12.5-61.4 12.5-60.6 48.2-76 46-76 46 30.7-14.6-2.2-8-2.2-8 9.5-4.4 13.2-9.5 13.2-9.5m68.8-68.7c-30.7 30-16.1 23.4-16.1 23.4 36.5-16.1 31.4-20.5 31.4-20.5-27.8 13.9-15.3-3-15.3-3m11-4.4c23.3-9.5 26.2-15.3 26.2-15.3 39.5-2.2 32.9 1.4 32.9 1.4-18.3 8-3 10.2-3 10.2-44.5 3.7-52.5 11.7-52.5 11.7 30-17.5-3.7-8-3.7-8m52.5-2.2c35.8-3.6 47.5-1.5 47.5-1.5-3.6 8 11.7 8.8 11.7 8.8-11 13.2-19.7 11.7-19.7 11.7 19-9.5 0-13.1 0-13.1 9.5-6.6-18.3-3-18.3-3-17.5 5.1-21.2-2.9-21.2-2.9m-82.5 186.3c-30.7 3.7-44.6-6.6-44.6-6.6 39.5 12.5 14.6 16.1 14.6 16.1-10.2 10.2-19 7.3-19 7.3 39.5 0 30.7 7.3 30.7 7.3 38-16 10.2 4.4 10.2 4.4 30-11.7 34.4 3.7 34.4 3.7-16.1-26.3.7-27 .7-27-51.1 10.9-27-5.2-27-5.2m-98-21.9c-13.8 17.5-16.7 38.7-16.7 38.7-1.5 18.3 1.4 12.4 1.4 12.4 11-21.1 8.8 14.7 8.8 14.7 16 24.8 14.6 18.2 14.6 18.2-8-25.5 9.5-6.6 9.5-6.6 9.5-17.5-3-31.4-3-31.4-4.3 22.7-12.3-.7-12.3-.7 7.3-22 14.6-12.4 14.6-12.4 2.9-23.4-7.3-23.4-7.3-23.4-19 27.8-17.6 16-17.6 16 7.3-14.5 8-25.5 8-25.5m21.2-24.8c-14.6 27-3.6 33.6-3.6 33.6 2.2-18.3 4.4-12.5 4.4-12.5 12.4 18.3 21.2 9.5 21.2 9.5-15.4-11-2.2-12.4-2.2-12.4-26.3-6.6-19.8-18.2-19.8-18.2m172.5-99.4c-47.5 27-26.3 38.7-26.3 38.7-16.8-8 3.6-27 3.6-27 11-11.7 22.7-11.7 22.7-11.7m0 12.4c-19.8 19 1.4 13.2 1.4 13.2-24 8.7-16.8 2.2-16.8 2.2-17.5 0 5.9-7.3 5.9-7.3-16.1-5.2 9.5-8 9.5-8m46.1-8c83.7-19.7 20.7 22.7 20.7 22.7 55.8-19.6 22.7-14.5 22.7-14.5 38.3-16.5-43.4-8.2-43.4-8.2m93 38.2c49.6 7.2-16.5 23.8-16.5 23.8 35.1-16.6 1-20.7 1-20.7-56.8-15.5-25.8 4.1-25.8 4.1-65 11.4-74.4-8.2-74.4-8.2 72.3 12.4 52.7-7.3 52.7-7.3-23.8-8.2-36.2 1-36.2 1 55.8-18.5 69.3-12.3 69.3-12.3-40.3 10.3-11.4 11.3-11.4 11.3 47.5-6.2 12.4 2.1 12.4 2.1 10.3 6.2 29 6.2 29 6.2" style="fill:#fff;fill-opacity:.493217;stroke-width:.264583"/>
  </g>
  <g id="ball" style="display:inline" transform="rotate(10.7 110.8 254.5)scale(.9395)">
    <path id="path75" d="M280.4 481.1c-24.9-2-49.4 16.5-52.9 30 0 0-8.7 8.4-5.2 36.7 0 0 .5 9.7 12.8 25.3 0 0 21.7 20.3 59.3 12.8 37.7-7.6 35.2-43.6 34.4-62-.8-18.5-18.2-35.2-35.7-40.3a62 62 0 0 0-12.7-2.5" style="fill:#c5c5c5;fill-opacity:1;stroke-width:.325577"/>
    <path id="path74" d="M241.6 492.1a60 60 0 0 1 58.6-6.3c16.7 7.6 25 24.8 25 24.8s-10.1-17.5-21-22.3c-10.8-4.7-21.3-10-36.8-5.8s-25.8 9.6-25.8 9.6m22.2-4.7a66 66 0 0 1 16.8-5 44 44 0 0 1 18.7 5.4c-.8 6.4-1.8 9.8-1.8 9.8s4.4 3.2 7.8 8.1c3.4 5 5.9 9.3 5.9 9.3 7.4 4.1 12.9 8.1 12.9 8.1l2.7-3.7-2.1 4.6c2 14-.3 22.3-.3 22.3-10 4.8-14 6-14 6-5.7 13.3-12.4 18.5-12.4 18.5 2.2 8.8 1 12.2 1 12.2-10.3 5.8-19.6 6.5-19.6 6.5-12.7-1.5-13.5-3-13.5-3-.8-.9-1.7-3-1.7-3 7-7.7 11.8-14.4 11.8-14.4-4.3-8.5-9.1-17.5-9.1-17.5a82 82 0 0 1-21-6c-.5-19.4-.2-23.3-.2-23.3 14.5-5.3 21.2-6.8 21.2-6.8 3.3-10.1 8.7-17.7 8.7-17.7-6.1 9.6-8.3 18.5-8.3 18.5 6.1 8.7 12.2 16.7 12.2 16.7a147 147 0 0 0-11.1 18.1 185 185 0 0 0 8.4 17.8c12.3 2.6 21.5 1 21.5 1a60 60 0 0 0 11.8-18.2 56 56 0 0 0-9.5-18.1l-21.4-1 22.3-.4c6.5-9.2 9.2-16.9 9.2-16.9-5.3-11-14-17.3-14-17.3-13-.7-22 0-22 0-7.1-7.9-10.9-10.6-10.9-10.6m-.8.2a59 59 0 0 0-19.5 8.6c-5.7 9-7.2 16.5-7.2 16.5l10 9.9-1-.3-9.4-9a41 41 0 0 0-11.8 10.5v-6.4c5.7-13.8 14.7-23.2 14.7-23.2 3.3 0 5.6.4 5.6.4 11.5-5.8 16.3-7.1 16.3-7.1zm-40 32.6c-3.1 26.9-.7 35.7 6.1 45.1 7 9.5 12.1 12.7 12.1 12.7 2.8-1 3.4-2 3.4-2-8-12.7-8.6-19-8.6-19l10.8-11.3-11.8 10.9c-9.1-6.1-10.8-9.5-10.8-9.5l-1.1 4.9c-2.4-15 0-31.8 0-31.8m18.8 58.3a83 83 0 0 0 24.1 8c-9.5-2.6-17.4-5.6-17.4-5.6-2.4-1-6.7-2.4-6.7-2.4m2.2-2.6a261 261 0 0 0 20.4 7.6l.3-.6zm42.7 12.4c21.5-5 27.8-10.6 27.8-10.6-11.9 5.7-16.9 7.1-16.9 7.1-1.5.3-11 3.5-11 3.5m38-78.8c5 13.1 5.3 22.2 5.3 22.2-1-14.7-5.3-22.2-5.3-22.2m-.3 37.2 1.1 12.7.1-1.5-.7-8.7z" style="fill:#000;fill-opacity:1;stroke-width:.298641"/>
    <path id="path83" d="M274.4 481.7s-17.1 2.2-33.4 11.8c0 0 18.8-6.8 3.7.8.2-.1 4.7-2.4 13.2-4.8-7.4 3-13.3 6.5-13.3 6.5 17.2-3.4-2.4 22.3-2.4 22.3 4.2 2.6 4.1 3.8 4.1 3.8 12-4.9 21.5-7 21.5-7C242 519 269 492 269 492c-14.9 5.7-9.6-1.4-8-3.2l4.5-1.1s-12 .7 8.8-6m7.8.4a173 173 0 0 1 17 4.8l3.5-.4c-1.5 0-13.8-3.4-13.8-3.4-1.5-.4-6.7-1-6.7-1m-1.8.8s-6.2.8-14.3 4.7c0 0 7.2-2.2 18.4.5 0 0-4.8-3.5 13.2-.7 0 0-3.7-2.6-17.3-4.5m16.4 15.2c-11.4-.9-20.8.6-20.8.6 22.6 3.4 11.2 14 11.2 14 24.4 2.4-7 19.2-7 19.2l21.6.1c-8.8-8.7 6.2-21 6.2-21-18.5-3.3-11.2-12.9-11.2-12.9m-60 .6c-10.2 15.9-11.2 18.7-11.2 18.7-.5 2.3-.2 3.5-.2 3.5l3.1-4.2c3-9.3 7.2-16.1 8.4-18m-13.5 22.6c-1.6 18 .1 28.4.1 28.4 0-6.4 1-8.7 1-8.7-2-10-1.1-19.7-1.1-19.7m23.3 26c-6.3 3.7-8.7 9.4-8.7 9.4 8.6-8.3 12-7.2 12-7.2a50 50 0 0 1 13.4 2 173 173 0 0 0-16.7-4.3" style="fill:#fff;fill-opacity:.467243;stroke-width:.298641"/>
    <path id="path84" d="M321.3 504c3.4 16-4.4 14.3-4.4 14.3 9.4 14.9-13.5 16.4-13.5 16.4 7.6 15 6 18.5 6 18.5 20-3.5 2.2 21.5-5.4 21.9-6.2 1-4.3-6.1-4.3-6.1-24.3.6-28-10.7-28-10.7 13 15.7-13.5 16.5-13.5 16.5 19.5 6.4-9 7-9 7 28.6 7.5 48 3.4 48 3.4 16.8-5.7 20.3-10.8 20.3-10.8 14.3-20.5 12.5-44.2 12.5-44.2a66 66 0 0 0-8.7-26.3" style="fill:#000;fill-opacity:.467243;stroke-width:.298641"/>
  </g>
  <path id="path107" d="m155 511.1 4 3.4c3.2-.4 4.4-1.2 4.4-1.2.5-3.2-.4-5.5-.4-5.5zm16.6-6.9c2.5 3.3 4.3 4 4.3 4l4.6-1.9c.4-4.7-.5-6.7-.5-6.7-.7 0-8.4 4.6-8.4 4.6m17.4-34.8c2.5-.5 3.2-2 3.2-2 0-5-.8-6.6-.8-6.6-1.6 5.3-2.4 8.6-2.4 8.6m82.5 114.3 1.6 1h5c.6-.3 4.4-6.4 4.4-6.4z" style="display:inline;opacity:1;fill:#1a1a1a;fill-opacity:1;stroke-width:.264583"/>
  <path id="socks-base" data-trait-name="socks-base" data-trait-color="accent" d="M60 343.7c27.7 9.6 51.8 7 51.8 7 4 0 11.7-1.3 11.7-1.3 8.3 10.3 19 20.2 19 20.2 8.6 9.1 8.6 17.4 8.6 17.4a225 225 0 0 0 24.7 38.2c9.1 10 2.5 13.9 2.5 13.9-7.9 4-12.5 3.1-12.5 3.1-7.2-5.3-8.7-3.6-8.7-3.6a28 28 0 0 0-6.7 5.8c-1-9.2-6-13.7-6-13.7-17.1-22.2-32.8-31-32.8-31A1346 1346 0 0 1 70 361.3c-7.5-10.5-10-17.7-10-17.7m209 105.8c-4.6 17.7-5.3 21.5-5.3 21.5.6 11.6 7.3 15.6 7.3 15.6a86 86 0 0 1-3.6 25c-1.2 6.4-1 9.2-1 9.2 13 9.2 18.5 4.7 18.5 4.7 6.8-2.6 5.7-5.2 5.7-5.2a45 45 0 0 1 8.5-21.7c16.4-24.5 17.5-34.1 17.5-34.1 2.3-7.9 2.3-12.2 2.3-12.2-7.4 10-12.5 13.8-12.5 13.8-20.8 3.6-32.3-8.5-32.3-8.5-2.2-2.8-5.2-8-5.2-8" style="display:inline;fill:#f9f9f9;fill-opacity:1;stroke-width:.280585"/>
  <path id="pants-base" data-trait-name="pants-base" data-trait-color="secondary" d="M267.5 299.4c-37.4.7-43.1-1.7-43.1-1.7-19.6-7.7-25.4-14.4-25.4-14.4.8 3.7-2.2 4.2-2.2 4.2-3.8 0-2.7.5-2.7.5-.8 2-3.3 1-3.3 1-24.1-4.9-33.7-7.8-33.7-7.8-5 5.3-9.4 13.3-9.4 13.3-10.3 6.5-17.2 2.9-17.2 2.9-23.4-8.1-29.7-8.2-29.7-8.2-5.6 3.2-12 1-12 1-6.2 4-10.8 4-10.8 4-2.2 1.6-1.8 3.8-1.8 3.8-6.5-1.2-7.7-.9-7.7-.9-1.5 4-.1 6.7-.1 6.7l4.8-2.4c29 15 34.4 22.8 34.4 22.8 14.2 18.8 17.6 24 17.6 24 0 .8-3.3 1.5-3.3 1.5 7.2 1.6 8.7 1.7 8.7 1.7 23.9-9.1 33.8-10.9 33.8-10.9 39.7-2.2 50.3 1.2 50.3 1.2a45 45 0 0 1 21 12.2c9.8 23.3 8 28.5 8 28.5 3.6 3.7.8 11 .8 11 5.2 8 1.3 18.5 1.3 18.5-3 12.9-.9 20-.9 20 8.8 10.4 17.4-2.3 17.4-2.3 3-1.5 4.9-5.1 4.9-5.1-3.4-12.5-5-17.7-5-17.7 9.5-12.2 26.4-22.4 26.4-22.4 16.2-6.1 14.7-4.1 14.7-4.1a71 71 0 0 1 15.2 4.6c1.7 10.2.2 16 .2 16 6.9-4.7 5.1-9.7 5.1-9.7-3.7-4.7-4-6.5-4-6.5 4.7-4.2-.3-9.2-.3-9.2 3.2-2.3-.6-5-.6-5 2.7-2.8-.7-5-.7-5 3-.8 4.3-.5 4.3-.5L309 334.7c-1.1.7-2-.8-2-.8-9.3-20.5-15.3-25.1-15.3-25.1a150 150 0 0 0-24.3-9.4" style="display:inline;fill:#cf0;fill-opacity:1;stroke-width:.280585"/>
  <path id="tshirt-base" data-trait-name="tshirt-base" data-trait-color="primary" d="M185.4 185c-1.3-8 .3-16.4.3-16.4 6.2-16.6 9-20 9-20 10-9.3 16-12.7 16-12.7 1-2.3 1.4-5 1.4-5a23 23 0 0 1 5.4 7.2c3.1-10.5.5-18.7.5-18.7 5-14.7 11.8-23 11.8-23C237.7 86 241 84.6 241 84.6c11.7-5 18-1.8 18-1.8 17.2 6.1 24 13.6 24 13.6 11.7 18.4 10.6 28 10.6 28a1014 1014 0 0 0 14.3 38c13 27.9 7.2 47.8 7.2 47.8l-4.7 44.7c-2 28.9.6 50.6.6 50.6-.8 19.2.3 26.7.3 26.7-.2 3.2-3.7 3.1-3.7 3.1a87 87 0 0 0-14.6-25.9c-22.4-10.2-43.8-15.2-43.8-15.2-24-8.6-33.8-14.6-33.8-14.6-10.5-6.4-12.8-6.5-12.8-6.5 1.4-2 2.6-2.2 2.6-2.2-2.7-2 0-5 0-5 .1-1.8 1.1-3.2 1.1-3.2 1.5-.8-.5-2.4-.5-2.4 1.3-1.5 2.6-2.5 2.6-2.5 1.8-3.3-5.8-13-5.8-13-3.2-3.3-7-3.8-7-3.8 6.5-6.5 8-8.9 8-8.9l9-19.5c2.3-4.3 5.6-9.3 5.6-9.3 12.5-9.5 18.5-16.2 18.5-16.2l-13.8-.7c-14.5-7.5-17.8-15-17.8-15-1.5-5.7-3.5-7.2-3.5-7.2-11.5 17.7-16.2 20.9-16.2 20.9" style="display:inline;fill:#cf0;fill-opacity:1;stroke-width:.280585"/>
  <path id="boots-base" data-trait-name="boots-base" data-trait-color="primary" d="M147.3 435.4c.3 5 1 7.4 1 7.4a98 98 0 0 1 3.2 13.5c.6 10.7 1.4 20.3 1.4 20.3-.2 3.3-2.2 5.9-2.2 5.9-5.5 11-3.6 24.5-3.6 24.5 2.3 4.2 5.3 4.5 5.3 4.5 24.5-9.9 32.9-15.2 32.9-15.2 2-8 1.3-9.8 1.3-9.8-.8-5.6 4.5-24.5 4.5-24.5 1.6-8.8.7-12 .7-12-3.5-17.4-13.5-25.6-13.5-25.6l-3.3-.2c6.9 10.6 4.9 13 4.9 13-6.3 6-14.4 5-14.4 5-7.3-4.9-10.9-1.8-10.9-1.8-3.5 3-4.5 3.2-4.5 3.2-.9-6.4-2.8-8.2-2.8-8.2M269 503.2c-3.8 8-6.3 12.5-6.3 12.5-1 11.6-3.5 13.2-3.5 13.2a319 319 0 0 0-5.4 16.3c-8.9 16.3-11.2 17-11.2 17-9.7 18.8.3 19.8.3 19.8 16.7 5.1 23.6 3.5 23.6 3.5 16.6-6.9 19.8-9.2 19.8-9.2 8.2-15.7 5.3-30 5.3-30-1-10.7 5.8-26.3 5.8-26.3 1.8-9.1.1-9.3.1-9.3-2.5-3.1-3.3-3.1-3.3-3.1-4 8-3.8 14.1-3.8 14.1-5.8 5-7.7 4.7-7.7 4.7-10.3-1.7-15.8-5-15.8-5 .6-9.6 3-15.4 3-15.4 1-2-1-2.8-1-2.8" style="display:inline;fill:#ffd42a;fill-opacity:1;stroke-width:.280585"/>
  <path id="skintone" data-trait-name="skintone" d="M180.5 34c-4-.5-10.6-.4-20.5 2.3 0 0-16.8 7.8-22 37.6 0 0-.1 1.4 1.4 13.4 0 0 .5 1.8 6.8 15.3 0 0 3.1.8 6.6 2.8 0 0 0 1 1.4 6 0 0 .9 4.9 1.4 9 0 0 1.1 1 3.6 1.5 0 0-.4 1.7 4.3-1.2 0 0 2.8-1.3 4.2 1.5 0 0 .2 2 3.6.8 0 0-.3 1.3 1 3.1l2.2-.3s1.8 0 3.9 4.3c0 0 7.5 4.1 15-2.1 0 0 1.6-4.6 5.8-3.7 0 0 1.5 2 8 1.2 0 0 5.5 3.9 9.9 12.5 0 0 .5.9.2 2 .4-1.4 1.7-7.5 1-21.2 0 0 5.2-19.2 19-31.2 0 0-8 2-18.3-9.3 0 0-3.5-3.7-6.5-9-3-5.1.2-8.7-10-22.8 0 0-1.3-3-16.4-10.6 0 0-1.6-1.3-5.6-1.9M202 164.4c-14.2 19.8-21.8 25.8-21.8 25.8a51 51 0 0 0-10.2 15.5c-6.4 18.7-8.5 19.6-8.5 19.6-24.7-8.2-33-18.4-33-18.4-6-4.5-7.5-7.4-7.5-7.4-11-5.4-13.3-6.8-13.3-6.8-1.3-7.8-2.7-8.6-2.7-8.6-4.4-2.4-4.8.6-4.8.6l.6 8c-13.8-19.3-16.9-20-16.9-20-2.8-.8-4.2.5-4.2.5-7.5-8.5-8.9-5-8.9-5l1.2 4c-8.4-4.4-9.8-3.3-9.8-3.3-2 .6 1 3.1 1 3.1a44 44 0 0 1 13.3 10.6c5.4 7 9 7.7 9 7.7C95.2 201 99 201.4 102.7 205s12.9 14.5 12.9 14.5a35 35 0 0 1 5.5 5.2c19.5 24 26 30.5 26 30.5-8.4 15-11 17.5-11 17.5-5-1.2-7.2 0-7.2 0-7.6-3.2-8.3-2.4-8.3-2.4-3 1.4-3.2 3-3.2 3-4.3-.3-5.3.7-5.3.7a12 12 0 0 1-7.2 6.8c-2.6.8-3 1.6-3 1.6-6.5.9-7.1 2.1-7.1 2.1-.8 3.2-2.3 6.3-2.3 6.3 5.5.2 8.8-1.8 8.8-1.8a209 209 0 0 1 30.8 8.8c10.4 2 16-3.7 16-3.7 12-17.8 19.2-25 19.2-25a98 98 0 0 1 14.5 10c16.1-3.6 20.4-12.8 20.4-12.8a45 45 0 0 0 6.7-9.3 20 20 0 0 0-13.2-16.2l8.1-8.8c8.7-21 14.4-28.8 14.4-28.8C231.6 193.1 237 187 237 187c-9 .2-13.7-1-13.7-1-14-5.8-18.4-14.7-18.4-14.7-1.3-5.3-2.8-7-2.8-7m2.5 109.6s-.1 1.9-1.6 5.1c0 0-4 3-4 4.6 0 0 1 0 1.9.7 0 0 6.7 8.3 25 14.2 0 0 15 1.7 44 1.4 0 0-6.9-1.8-9.6-2.2 0 0-17.5-4.1-41.2-15.7 0 0-5-3.7-14.5-8M72.5 302C57.9 309.3 54 321 54 321c-.1 13 6.5 23 6.5 23 44.4 13.1 62 6 62 6l-1.5-1.7 4.6-.4c-10.6-15.4-18.7-24.3-18.7-24.3-16.6-15-34.4-21.6-34.4-21.6M303 380.3s-20.7 1.2-41.5 27A152 152 0 0 0 271 448s-.8 4.2 0 5c0 0 7.5 17.5 35.7 13.5l13-13.3s1-3.6.5-6.2c0 0-.9-2.8-3-17.6 0 0 2.6-22 2-44.2 0 0-9-3.1-16-5" style="display:inline;fill:#909090;fill-opacity:1;stroke-width:.280585"/>
  <path id="boots-pattern" data-trait-name="boots-pattern" data-trait-color="detail" d="M151.4 466a29 29 0 0 0 3.5-6.7c6.7-9.3 13-17 13-17 6.8-2 12.8-4.5 12.8-4.5-1.8 8-13 16.5-13 16.5a121 121 0 0 0-14.7 16c0-1-1.6-4.2-1.6-4.2m1.8 8.8a123 123 0 0 1 22.8-20.1c12-9 12.2-12.3 12.2-12.3l.6-3c4.2 7.9 1.7 11.6 1.7 11.6a44 44 0 0 1-21 15.3c-8 5.1-16.2 11.7-16.2 11.7zm118 48.8a62 62 0 0 0 8.2 28.2c8.5 12.5 7.3 20.2 7.3 20.2a59 59 0 0 0-14.3-22.7c-10.4-16.8-10-25.1-10-25.1 1-7 2.1-10 2.1-10l3.6-4.8-1.5 11.9zm-12.6 8.5c3.6 15.2 7.3 19 7.3 19 13.7 12.4 12.6 14.2 12.6 14.2a72 72 0 0 0-9.8-5.4 65 65 0 0 1-15.2-14c3.8-6.9 5.1-13.8 5.1-13.8" style="display:inline;fill:#fff;fill-opacity:1;stroke-width:.248586"/>
  <path id="shadow2" d="M181.8 34.7c-3.7-.8-9-1.4-15.7-.4 0 0 3.6 3-3.7 13.8 0 0-17 9.1-16.2 3.3 0 0-6 15.4-7.3 21.7 0 0 5.3-9.8 9.6-7.7 0 0 5.3.8 3.8 8.6 0 0-3.5 7.6-2.7 14.7 0 0 3.5 4.7 0 9.8 0 0-1.7 3.8-.3 5.4 0 0 2.3.2 4 1.9l-.3-.7a9 9 0 0 1 1.6 3.2l.4 1.4 1.8 7.8s.2-.5 2-1l.2-.4v.3l.8-.2s1.3 1.3-3.2 4.2c0 0 2.3 1.9 4.7 1.8l4-2s1.6 0 2 1.8c0 0 1.3 1 3.1 1.6 0 0 1.8-.5 4.3.1 0 0-1 .2-.7 2.1 0 0 3.1 1.4 7.2 7.8 0 0 9-.7 13-5.8 0 0 1.2-3.6 5.3-3.3 0 0 3.1 1.3 8 1.5l10.5 12s0 2-4.9 9.6c0 0 3-1.5 2 1.2 0 0-9.2 19-12 17.1 0 0 2 5.8 5.4 10.5 0 0-.3-13.3 5.9-15.5 0 0 .8-6 6.1-11 0 0 1.7-10 12.5-18.8 0 0-4.9-11 1.8-22.8 0 0-4.2 1.6-8 13.3 0 0 2 5.4-3 13.4 0 0-3.5 3.6-4.2 1.1 0 0-1-7.5-1-17.6 0 0 4.5-10.4 5.6-3.4 0 0 2.2-3.2 4.2-9.2 0 0 3.2-9.7 16.1-22 0 0-4 1.5-6.9 3.5 0 0-7.6 3.3-18.5-1.4 0 0 3.3 2.9 5.6 6.4 0 0 1.7 4.4-13 2.8 0 0 3.5 1 9.2 4.7 0 0-.4 3-10.5 12.7 0 0-7.1-2.7-19-20 0 0 7.6 16.3 2.2 25 0 0-11.2 1.5-15.5-6.8 0 0-3.1-1.1-11.2-10.2 0 0-4-2.7 0-13.3 0 0 5.8-5 8.6 4.8 0 0 1.5-.6 6-.1 0 0-2.4-2-2.5-6.5 0 0 2.3-.3 3.4 5.5 0 0 1.7.8 1.9 4.3 0 0 1.7.5 5-1 0 0-.6-.5 0-1.8 0 0 1.7-1.7-.2-10.8 0 0 .2 3.2-.5 6 0 0-2 2.9-3.9.8 0 0 2-3.9 2-1.1 0 0 3-2.8-.7-6.2 0 0-10.3-4.4-7.6-8.4 0 0-1.8.7-4.9 3.3 0 0 .3 2.6 4.6 5.3 0 0-2 1.5-5.6-2 0 0-.8-3.7 2.7-6.7 0 0-8.4-5.6-7.8-13.8.3-8.1 10.8-24.8 34.8-12.7-1.6-3.3-16.8-10.7-20.4-11.5M145 71.8a55 55 0 0 0 2.5 20.1c-.8-10.8 0-13.2 0-13.2a14 14 0 0 1-2.5-6.9m18.5 31.8c1.2 6.3 3.6 6.6 3.6 6.6a14 14 0 0 0 4.4 8.8c-6.5-5.1-8-9.8-8-9.8-1.1-1.9-4.6-2.5-4.6-2.5-.7-.9-.3-2.2-.3-2.2 1.9 3.2 3.2 2 3.2 2 .4-1.9 1.7-2.9 1.7-2.9m44.5 72.2c-2 5.1-2.6 11.7-2.6 11.7-5.7-7.7-14-2.8-14-2.8-11 10.5-7.3 12.2-7.3 12.2 8.8-.7 10.7-1.5 10.7-1.5 1.8-5.2 5-7.5 5-7.5 0 6.6 3.2 6.9 3.2 6.9-5.8 7.6-8.5 8.6-8.5 8.6-1.1-5.5-3.3-1.2-3.3-1.2-4.2-5-8.3 1-8.3 1-2.2-2.8-7.6 7-7.6 7-4.5 11.2-.2 6.9-.2 6.9l10.2-10c-.4 7.1 1.4 7 1.4 7-8.2 10-6.6 15.4-6.6 15.4-4.7-5.7-9.6.3-9.6.3-8 13.7-4.7 12.5-4.7 12.5 6.4-6.5 8.5-8.2 8.5-8.2.2 4.2 3.2 4 3.2 4-15 11.7-17.8 22-17.8 22a105 105 0 0 1-13.8 20.8c-9.9 4-9.5 2-9.5 2 3.3-6.7-2.7 0-2.7 0-2 6.4-1 10.5-1 10.5 2.6 2.9 8 4.5 8 4.5-8.8 1.5-13.5-1.6-13.5-1.6-9-2.5-16.7-5.5-16.7-5.5-8.4-1.6-10-1.1-10-1.1a22 22 0 0 1-5.5 1.5c2.2-3.3-1.3-1.4-1.3-1.4q1.7-4.1 1.8-4c5.4-1.7 10.6.2 10.6.2 4 4 4.9 1.3 4.9 1.3 7 5.3 9 3.1 9 3.1 8.6 4.6 8.7.3 8.7.3.1-6-.7-8-.7-8-4.5 0-7.6-.5-7.6-.5 5.8-1.6-4.6-2.8-4.6-2.8 3.3-2-.6-2.9-.6-2.9 4.9-1-3.6-1-3.6-1a8 8 0 0 1 3-1.7c3.7-.3 5.6 0 5.6 0-1 1.5 5.6-.2 5.6-.2-3.7-.5-6-1.5-6-1.5 2-.8 2.3-1.2 2.3-1.2 2.9.6 7.3 2.2 7.3 2.2 2.1 2.6 5.2 1.6 5.2 1.6-2.7 2.8-3 3.5-3 3.5q-1.1 5.4-1.2 5.3c3.7-5 8.6-9.2 8.6-9.2 4.8-4 .6-4 .6-4 6.7-10.4 11-18.6 11-18.6a129 129 0 0 0 10.5-15.6c-3 .6-4.4 2.3-4.4 2.3 6.5-9.6 10.6-19.6 10.6-19.6 2.9-8-1-3.6-1-3.6 3.6-9 5.2-12.4 5.2-12.4a97 97 0 0 1 10-12.7c-1.9 3.4 7.6-5 7.6-5a177 177 0 0 0 13.2-19.8c2.4 4 2.3 6.5 2.3 6.5.8 2.1 3.4 4 3.4 4m3.4 32.8a40 40 0 0 0 8.4-15.8c3 5.7 6.6 4.2 6.6 4.2-6.1 5.4-15 11.6-15 11.6m-2.1 2c-3.4 2.3-7.3-.2-7.3-.2 4.1.1-2-3.2-2-3.2l-4.2 1.6c5.7 1.4 2.3 2.4 2.3 2.4 6.5 3.4 11.2-.7 11.2-.7m67.4-89.6c-2.7 7 .7 3.9.7 3.9-3.9 8.9 1.6 5.8 1.6 5.8-9.1 9-.3 6-.3 6-8.2 5.6 6.3 3.2 6.3 3.2-14.8 8.3.7 7.5.7 7.5-23.6 6-11.1 9.9-11.1 9.9-13.8 0 8.6 19 8.6 19-15-9.2-.2 11.5-.2 11.5-16.3-21.2-13.5-13.2-13.5-13.2-3-.2.6 10.4.6 10.4-8.7-24.5-15.1-20-15.1-20a51 51 0 0 0 5.1-10.5c9.2-18.1 11.6-24.8 11.6-24.8 2.4-5.2 5-8.7 5-8.7m-155.4 78.4c6.3 8.3 9.4 9.7 9.4 9.7a86 86 0 0 0 31.4 16.6L150.6 249c-.7.8-3 5.7-3 5.7-10-9.4-22.2-25.7-22.2-25.7-1.9-2.3-4.4-4.7-4.4-4.7-7.9-6.3-15.2-16.5-15.2-16.5-5.5-5.4-10.6-8.4-10.6-8.4-6.1-6.2-10-9.5-10-9.5-5.7-3.7-7.2-6-7.2-6-3.7-4.6-9-8.7-9-8.7-7-3.3-7.2-5-7.2-5 1.7-1.2 2.8-1.2 2.8-1.2 5.8 2.9 8.2 3.7 8.2 3.7-2.5-3.6-.9-4.5-.9-4.5a96 96 0 0 1 8.3 5c2.8-.9 5.9 1.3 5.9 1.3A396 396 0 0 0 97.3 189c1 2 4 3.7 4 3.7l-.8-9c3.2 0 5.3 1.4 5.3 1.4l3.5 8.5c4 2 12.1 5.7 12.1 5.7m88.7 20.8c9.6 10.6 12.6 13 12.6 13-10.8-8-9.6-2.4-9.6-2.4 5.4 9.9 8.9 11.1 8.9 11.1-5.8-.5-4.3 4.7-4.3 4.7l11 8.8c-11.1-6.8-10.9-.9-10.9-.9-3-6.5-4.4 1.6-4.4 1.6a97 97 0 0 0 20.4 19.2c33.5 21 42.6 22.7 42.6 22.7-43.1-28.3-51.8-38.8-51.8-38.8 24.3 17.4 9.6 1.4 9.6 1.4 44.6 37 48.1 36.5 48.1 36.5-14.2-11.4-21.8-18-21.8-18 29.2 21.6 16.8 9.2 16.8 9.2 19 15.2.5-14.3.5-14.3-18-34.8-31.9-53.4-31.9-53.4 31.3 45 19.3 12.7 19.3 12.7 10.6 15.7 9 4.7 9 4.7 12.2 56.3 25.9 64.3 25.9 64.3 1.7.3-.4-4.5-.4-4.5 8 5.5 11 6.9 11 6.9-.2 11.4 0 21.6 0 21.6-.3 3.4.6 5.9.6 5.9-.9 1.6-3.5 3.3-3.5 3.3-.8-1.2-8.4-18.6-8.4-18.6a72 72 0 0 0-6.8-7.4c-2.2-2-38.5-13.4-38.5-13.4a131 131 0 0 1-34.2-14.2c-8.5-4.1-17-8.7-17-8.7 1.9-1.8 3.1-2.2 3.1-2.2-2-1-2.1-2.2-2.1-2.2 1-2.5 2.1-3 2.1-3-.7-1.6 1.2-3 1.2-3-.4-2.3 1.5-4 1.5-4 5-14.9 7.4-16 7.4-16l-3-9.3a22 22 0 0 0-4.5-12.6zm60.3 56.3c-13.9-28.4-15.8-19.5-15.8-19.5-3.2-37.1-28.5-46.2-28.5-46.2 14.6 6.5 36 39 36 39 12.2 26.3 13.3 34 13.3 34zm21.4 6.6c-19-64-20-100-20-100 5.5 41.5 9.2 29.5 9.2 29.5-.5 13 10.8 70.5 10.8 70.5M68.5 304c-1.3-3.8.2-7.4.2-7.4 7.9 2.2 6.9 1.3 6.9 1.3 1.4-3.7 5.8-3.7 5.8-3.7 4.3-2 8.5-3.5 8.5-3.5-4.9 3 4.6 9.2 4.6 9.2-6.3-2 18.9 12.6 18.9 12.6a154 154 0 0 0 38.6 12.9c-24.6-3.5-50.9-18.8-50.9-18.8-19.3-10.3 0 4.4 0 4.4-14-9.4-4.3-.4-4.3-.4-8.6-6.8-.3 3.8-.3 3.8-19.6-13.1-28-10.4-28-10.4m57.7 45.2c-2-5.9-10.5-15.7-10.5-15.7 30.4 8.1 35.5 4.3 35.5 4.3a287 287 0 0 1-16.7-5.5c37.6 1.2 50.5-8.6 50.5-8.6-8.8 5 21.1 9.2 21.1 9.2C191 311 171.4 306 171.4 306c26.2 9.3 35.3 21.6 35.3 21.6 5 4.5-5.1-8.4-5.1-8.4 29.9 23.4 3.4-5.7 3.4-5.7 33.8 30 32.6 36.2 32.6 36.2 8.8 20.2 6.5 32.3 6.5 32.3 2.1-25.6-20.3-38.5-20.3-38.5-22.7-7-56.9-3.7-56.9-3.7a338 338 0 0 0-35.3 11.8zm193 13c-32.5-3-48.3 5.4-48.3 5.4 43.5-4.8 28.5-.5 28.5-.5 25 3.5 5.4 7 5.4 7 13.6 1-5.7 3.2-5.7 3.2a967 967 0 0 1-42.6 12.4c28.9-6.7 1.6 5.8 1.6 5.8 24.4-10 4.7 8.8 4.7 8.8 26.6-24.1 32.7-23 32.7-23 14.6-2 22.6 4 22.6 4 .3 4.3.7 16.6.7 16.6 10.2-8 1.4-15.5 1.4-15.5 3.4-7.6-1.2-10.5-1.2-10.5 5.8-1.2.2-5 .2-5 3.6-2.1-1.1-4.6-1.1-4.6 5.4-1.3 1.2-4.1 1.2-4.1m-119.6-80.3c19 12.3 32 14.8 32 14.8 20.3 2.6.6-7.8.6-7.8A356 356 0 0 0 270 300c-30.4 2.5-44.2-1.7-44.2-1.7-20.4-9-26-16.4-26-16.4M58.4 314.3c-4 8.4 5.4-.1 5.4-.1 6-8.9 6.1-10.6 6.1-10.6 8.8.6 12.6 3 12.6 3-15 1.3-9.4 11.3-9.4 11.3 13.6 9.3 24 6 24 6 4.2-2 3-5.9 3-5.9a125 125 0 0 1 11.1 10.5c-11.8-5.3-19.9 8-19.9 8 1.8-11-17.4-9.5-17.4-9.5A32 32 0 0 0 85 348.9c-11.2 1.2 1.8 7.9 1.8 7.9 2-12 5.7-15.1 5.7-15.1 17 33.3 41.1 41.8 41.1 41.8 7.7-2.5-1-23.9-1-23.9-14.4-9.4-26-13-26-13-9-1.3-9.5-2.7-9.5-2.7 9.4 1.5.4-4.5.4-4.5 16.1 6.6 23.7 2.3 23.7 2.3a32 32 0 0 0 9.1 10l-8.3-1.8c15.7 12.7 24 23 24 23a133 133 0 0 0 19.9 37.6c10.4 15.8 8.2 14 8.2 14a23 23 0 0 1 4.5 0c5 4.6 6.5 8.6 6.5 8.6-3.1-1.4-3 6.3-3 6.3 2.5 4.6 8 4.1 8 4.1-16.2 19.2-2 29.6-2 29.6-2.3 8-.5 6.8-.5 6.8 3.4 11-1.4 16.9-1.4 16.9a180 180 0 0 1-33.9 14.5c15.8-17.6 9.2-24.3 9.2-24.3-7-2.7-13.2 2.8-13.2 2.8 3-8.1 5-11.7 5-11.7.2-8.4-1.5-13-1.5-13 .9-14-2.3-20-2.3-20 0-5.4-2.2-10.3-2.2-10.3-21.8-26.4-30.7-31.8-30.7-31.8-26.2-20.8-46.4-42.2-46.4-42.2a158 158 0 0 1-14.7-30.4c-1.8-9.5 0-12 0-12 .9-1 2.8-4.1 2.8-4.1m214.3 82.1c2.2 22.7 7.7 16 7.7 16 12.7 21 28.2 21.8 28.2 21.8-6 8.1 2.5 7.6 2.5 7.6-4.1 6 2.6 5 2.6 5-4.2 7.3 4.3 1 4.3 1-4.8 11-.4 8.6-.4 8.6-1.8 9.5-.2 9.4-.2 9.4-6.5 21.8-22 39.8-22 39.8-4.3 8-5 10.7-5 10.7-5.5 8.4-2.9 10.1-2.9 10.1-2.4 3.7.9 5 .9 5-15 9.7-8.6 25.5-8.6 25.5-10.3-8.9-4.6 2.6-4.6 2.6 4.8 6.7 7.8 10.6 7.8 10.6-19.6 3.6-8.8 12-8.8 12-7 3.1-12.3 4-12.3 4-18.2-2-22.7-6.5-22.7-6.5-3.2-9 4.4-17.8 4.4-17.8 6.2-8.6 9.5-14 9.5-14 4-8 5.5-14.5 5.5-14.5-.3 6 4.3-7.8 4.3-7.8 1.4 3 .5-6.8.5-6.8a102 102 0 0 1 7-16.8l.8-6c.4-6.8-.6-10-.6-10-4.5-7.5-6.6-14.2-6.6-14.2.3-2.5 1.5-5.7 1.5-5.7.5 4.7 1.7-2.6 1.7-2.6 1.4-3.3.2-6.3.2-6.3 1.5-4 4.2-9 4.2-9a86 86 0 0 0-3.4-22.4 59 59 0 0 1-6.2-19.3c3-3.2 10.7-10 10.7-10m1.4-2c-1.2.7-24.9 23.1-24.9 23.1-.6 2.6-1.5 8.8-1.5 8.8.2 3 2.4 8 2.4 8 .7.6 3.4-.1 3.4-.1 1.8-1.8 11.2-7.3 11.2-7.3 1.1-1 2.4-1.9 2.4-1.9-2.5-11-3.7-14.6-3.7-14.6-1-.8-1.2-4-1.2-4 1.4-.6 11.9-12 11.9-12m-27.7 2.4c4.8 8.2 5.1 11.3 5.1 11.3-2.5-5-5.9 6.2-5.9 6.2 4.5-11.7.8-17.5.8-17.5" style="display:inline;fill:#000;fill-opacity:.302625;stroke-width:.280585"/>
  <path id="shadow1" d="M151 99.5c-1.6 2.9 1.5 2 1.5 2 4.9-1.7 6.5-1.8 6.5-1.8 1.5-.4 1.7 0 1.7 0-2.4 1.6-2.6 3.2-2.6 3.2.2.6 1 .5 1 .5 1.4-1.2 1.6-1.8 1.6-1.8-.9 2-2.8 3-2.8 3q-.3 2.4-.1 2.5c4 1.2 3.4-.4 5.8 3.6a36 36 0 0 0 5.4 7.2c1 .9 3.4 2.4 3.4 2.4-4.5-1.8-7.6 0-7.6 0-.6 0-1.6.4-1.6.4-3.1 1.4-4.1.3-4.1.3 3-3.8 5.3-3.7 5.3-3.7-2.1 2-1.3 2.9-1.3 2.9 2-.9 3.3-4.4 3.3-4.4-.2 2.9 2.7 2.7 2.7 2.7-2.2-2.5-4-3.2-4-3.2-2.8 0-4 1-4 1-.3-2.2-3.3-.3-3.3-.3 1.3-3.6 6.5-3 6.5-3-1.8-3.5-2.7-4.7-2.7-4.7-3.7-.8-6 2.3-6 2.3-1.3-6.2-3.9-7-3.9-7-1.5-.2-2.5.1-2.5.1l.1-2.3zm24-25.2c-2.5 2.8 2.5 3.8 2.5 3.8 3 1 6.5 2.6 6.5 2.6 3.4 3.8 3.1 4.3 3.1 4.3-3.8 1-2.7 3.5-2.7 3.5-2.2 2.2-3.2.8-3.2.8 0-3-2-4-2-4 .7-2.2-1.3 0-1.3 0 .5 3 4 6.2 4 6.2l-5.2.4c.6-2.5.1-3.5.1-3.5a31 31 0 0 1-1.8-4.8c5-.4 6.3-.8 6.3-.8-6.4-1.7-7.7-3.8-7.7-3.8-.7-3.5 1.4-4.7 1.4-4.7m.6-.5c4.6.2 3 1.9 3 1.9 5.4.2 8.8 5.1 8.8 5.1 1 5.2.4 7.3.4 7.3.5-1.7 2 2 2 2a29 29 0 0 0-2.5-11.3c-4.1-5.4-5.5-5.7-5.5-5.7-1.8 0-6.2.7-6.2.7m-4.7 48c3.5-.4 4 .3 4 .3-1.9.7-1.6 2.2-1.6 2.2-.6-1.5-2.6-1-2.6-1q-2.3-.1-2.2-.2a5 5 0 0 0 2.4-1.3m21-1c6.8-5.3 5.2-14.9 5.2-14.9a97 97 0 0 0-4.6-10.5c9.7 17 17 21.3 17 21.3 5-1.3 14.5-14.2 14.5-14.2 3-4.5 3.6-5.8 3.6-5.8-.7-2.8-2.4-5.5-2.4-5.5 4 2.8 8.4.3 8.4.3-5.6 6-12 17.1-12 17.1-3.1 8-3.7 10.5-3.7 10.5 1.4 6.2-.2 19-.2 19-2.3-4.5-5.5-8-5.5-8 6.6 4.5-.7-3.6-.7-3.6-3-3.5-4-.8-4-.8-5.7 0-8.8-1.4-8.8-1.4-3.2 0-5.6 3.1-5.6 3.1-3 .8-4.1-3.9-4.1-3.9.1-.7 2.8-2.7 2.8-2.7m77.5 14.5c-1.7 6.7 3.8 4.2 3.8 4.2.3 3.8 7.2 1.7 7.2 1.7-8.3 4.4-1.9 5-1.9 5-13.8 4.3-17.6 9.5-17.6 9.5a44 44 0 0 0 8.8 10.8c-6.8-2.9-2 2.9-2 2.9-9-8.8-10.8-8.2-10.8-8.2 6-11 10.5-22.5 10.5-22.5.4-1.2 2-3.4 2-3.4M62.4 171.2c2.5.4 1.4-1.9 1.4-1.9 5 3 9.6 6 9.6 6 2.7 4.3 4.7 8.6 4.7 8.6l-8.5-8q-6.1-3.3-6-3.4zm8.7-1.9c2.3-.5 4 2.8 4 2.8.6 3-1.7 2.6-1.7 2.6 5.7 6.9 2.9 7 2.9 7 5 3.8 4.8 5.4 4.8 5.4 4.2 2.6 6 5 6 5 4.5 5.7 9.3 8.2 9.3 8.2l-5.9-9.2c2.6 1 1-3 1-3a63 63 0 0 1-8.3-12.7 54 54 0 0 1 12.2 14.4c4 6.4 1.3 5.3 1.3 5.3 3.6 5.3 1.4 6.7 1.4 6.7 4.4 3.5 7.2 6 7.2 6l4 4.7c-2-3.7-1.2-7.3-1.2-7.3-3.9 1.2-6.4-2.6-6.4-2.6-1.4-5 2.2-3.4 2.2-3.4-2-5.2-1.4-8-1.4-8-.8-1.1 1.6-3.6 1.6-3.6-2.5-.5-3.5-3.2-3.5-3.2.7 5.8.6 9 .6 9-7-9.5-15-19-15-19-5.7-3.4-6.2-.5-6.2-.5-4.8-5-7.7-6-7.7-6-2-.4-1.2 1.4-1.2 1.4M106 189l1.3 12.4c.3-5 5.2 3.3 5.2 3.3.8-3.6 3.2 0 3.2 0 2-2.7 3.8-2.5 3.8-2.5q-3.2-4.3-3-4.4c-7.3-2.5-8.6-5.5-8.6-5.5-.2-1.2-2-3.3-2-3.3m4.8 26c3.2 2.3 2.2-1.8 2.2-1.8a196 196 0 0 0 17.7 16.9 122 122 0 0 0 19.2 19.8c-1.2 2.3-2.4 3.9-2.4 3.9-9-9-15.5-19.7-15.5-19.7-4.9-5.8-5.5-4.7-5.5-4.7-5.5-7.3-6.1-5.3-6.1-5.3-5.7-4.7-9.6-9-9.6-9m97.5 5.5c4 4.5 3.7 7.7 3.7 7.7a71 71 0 0 0 2.7 11c1.4 2.2 1 4.5 1 4.5-3.2 5.8-7.5 14.2-7.5 14.2-2.6 3-9.9 13.3-9.9 13.3-5.8 3.6-16.4 7.9-16.4 7.9-6.6-3-8.4-6.6-8.4-6.6-3.8-2-6-4-6-4 5.5-5.9 17.5-16 17.5-16l18.4-20.8c1-1.9 5-11.2 5-11.2M139.1 270c11-12.2 11.6-17 11.6-17 5.8-5.4 12.4-19.5 12.4-19.5l-3 1.9c7.3-9.3 7.9-10.3 7.9-10.3-1.8 7 1.4 4.1 1.4 4.1-11 16.7-9.6 18.6-9.6 18.6-6.5 7-6 18.6-6 18.6-8.7 8.1-8.4 11.8-8.4 11.8-7.7 4-6.6 2.2-6.6 2.2 17.5-23.3 9.4-20 9.4-20zm33.3-66.8c7.2-8.3 9.3-10 9.3-10-.7 6.9 1.2 8.6 1.2 8.6-6.6-1.6-9 4.6-9 4.6 2.1-5.2-1.5-3.2-1.5-3.2m26.1-12c-4.8 5.8-3 8-3 8 3.7-1.3.5 3 .5 3 5-4.5 5.3-6.3 5.3-6.3-4.7 2.6-2.8-4.7-2.8-4.7m3.2-16c2 8.3 2.5 9.6 2.5 9.6.5-10 1-12.6 1-12.6a14 14 0 0 1-3.5 3m38 44.6 9.5 11.3a135 135 0 0 1 19.7 39.1c-12.4-27.1-13.3-20.9-13.3-20.9a88 88 0 0 0-16-29.5m19.6 20a289 289 0 0 1 30.3 56.7c-11-7.4-17.4-12.8-17.4-12.8 21.5 17.2 19.8 17.7 19.8 17.7-14.7-7.8-18.4-10.7-18.4-10.7 24 16.2 22 16.4 22 16.4-8.3-3.3-12-4-12-4 14.9 9.6 16.8 14.4 16.8 14.4-4.1-6.4 8.9 17.6 8.9 17.6l1.2-4.8-.4-12.7c0-3.3.5-10.2.5-10.2-2 2.1-9.2-7.3-9.2-7.3 7.9 11.5-4 2.3-4 2.3 10.7 12.4-5.5-5-5.5-5-22.1-45.1-19-51.8-19-51.8-4.5-5-7.1-10.5-7.1-10.5 9.9 24.2 6.4 21.8 6.4 21.8-5.6-6.9-12.9-17.2-12.9-17.2m-29.9-44c4.3 8.4 3 12.3 3 12.3 2.9-2 .6 7.1.6 7.1 3.3-12.8 8.6-8.7 8.6-8.7-10-10.5-7.4-16.7-7.4-16.7zm50 18c3.2 34.5 11.5 66 11.5 66-9.5-21.1-18.4-86.3-18.4-86.3 8.7 45.8 6.8 20.2 6.8 20.2m-69 38.6c-.1 7.4 11.6 14 11.6 14-11.4-6.5 19.5 17.9 19.5 17.9-32.8-24.4-27.4-17.5-27.4-17.5-7-2.9 13.5 11.7 13.5 11.7-12.3-7.9 7 4.8 7 4.8 17.4 10 27.6 12.4 27.6 12.4-25.4-9.6-41-18.5-41-18.5-16-11.3-8.7-2.4-8.7-2.4-9-6 6 5.9 6 5.9-5.2-3.8-15.9-7.8-15.9-7.8 1.2-2 3.9-1.6 3.9-1.6-3.6-1.8-.8-4-.8-4-1.3-3.5 2.6-3.5 2.6-3.5-2.3-2.4-.2-4.8-.2-4.8.8-2.6 2.4-6.6 2.4-6.6m71.9 45.5c-39-22.8-47.6-36.2-47.6-36.2 24.3 23.9 40.7 33.3 40.7 33.3-34-18.3-48.6-33.2-48.6-33.2 40.7 31 55.5 36.1 55.5 36.1m-44.5-12.8c19.3 10.8-4 2.4-4 2.4 31.5 10.7 25.8 9.6 25.8 9.6 22.9 6 25.7 5.7 25.7 5.7-20.3-5-47-20.3-47-20.3zM218.4 119c1.4 21.6 1 32.5 1 32.5.2-9.8-5.8-5-5.8-5 5-7.7 4.4-12.6 4.4-12.6-.5-3.6.4-14.9.4-14.9m57.6 6.2c-7.2 12.8 1 5 1 5-7.6 11-7.8 9.9-7.8 9.9 3.8-7.6-.8-3.7-.8-3.7a39 39 0 0 1 7.6-11.2m19.6 10.8c4.9 20.2 9.2 28.6 9.2 28.6-6-20.1-3.5-20.8-3.5-20.8-4.2-7.1-6.8-18.7-6.8-18.7.1 3.6 1.1 10.9 1.1 10.9M199 284a138 138 0 0 0 27 15.5c-24.1-12.1-12.8-1.3-12.8-1.3-14.2-12.1-9.6-5.4-9.6-5.4-6.6-4.7-2.6 1.1-2.6 1.1-7-6-2.2 1.2-2.2 1.2-5.9-4.3-10.6-6.4-10.6-6.4 4.8 1.7 6.9 1.3 6.9 1.3-1.5-2.6 3.3-.9 3.3-.9 0-2.4.6-5 .6-5m45.2 15.4c25.5 2.4-5 3-5 3 17.3 2.4-19-1-19-1 14.2 3.6.2 2.5.2 2.5 8 2-5.9 0-5.9 0 21.8 3.8 32 5.8 32 5.8-16.5-4 7.7-4.9 7.7-4.9-7.6 2.5-5.2 2.2-5.2 2.2 27.4-.8 31.2-2 31.2-2-25.1 1.2-9.9-2.3-9.9-2.3-17.9 1-3.6-3.8-3.6-3.8-16.1 2-22.5.5-22.5.5m43.4 7.8c-38.1 5.8-54.6 7.4-54.6 7.4 29.8-3.4 11.5 1.8 11.5 1.8 20.7-3.2-5.5 6-5.5 6 44.6-12.8 47.8-10.6 47.8-10.6A30 30 0 0 1 301 322l-7.7-13.6a29 29 0 0 1-8.6-2.4zm-55 38.8c-7-15.5-24.9-29.1-24.9-29.1 25.3 24.5 16.6 20.5 16.6 20.5a268 268 0 0 0-23.8-18c26.5 22.4 8.4 12.3 8.4 12.3 8.2 6.7-23.6-2.5-23.6-2.5 16.6 6-8 8.4-8 8.4-6 2.8-10.7.7-10.7.7 13.8-6 14.6-10.3 14.6-10.3-19.9 13.2-37.5 12.6-37.5 12.6 22.3-1.3.4 2 .4 2-19.9-1.3-21.2-2.4-21.2-2.4 15.5 5.4 6.4 5.6 6.4 5.6 11 2.5-8.6 2-8.6 2l11.9 3.7c21-9 34.5-11.6 34.5-11.6a893 893 0 0 1 46.1.1c11.4 4.5 23.2 13 23.2 13 2.6 5-3.8-7-3.8-7M92.9 292.4c13.6-3 4 1.5 4 1.5 11.6-.5-5.3 7.3-5.3 7.3 20.8-7.5 14.8 1.2 14.8 1.2 10.1-9.9 9.7-3.3 9.7-3.3 4.5-5 13.8 4.2 13.8 4.2-9.5-8 11 4.5 11 4.5-10.9-9.6 13.4 4 13.4 4-22.8-14.9.2-9.3.2-9.3-18-4.6 13-3.9 13-3.9-21.2-2.8-16.4-9.4-16.4-9.4-3.7 8.8-9.7 9.2-9.7 9.2-8.5 1.5-11.6-1-11.6-1-14.2-6.2-30.3-8.5-30.3-8.5zm222.2 51.1c-25.5-15.4-21.6-15-21.6-15 12.8 9 16 5.3 16 5.3 4.2 6.3 5.6 9.7 5.6 9.7m-256.3-6c-2.3-12.7.2-17.2.2-17.2 3.4 7.3 5-1 5-1 1.7-5 6.4-7.5 6.4-7.5-2.3 7.7 4.5 11.2 4.5 11.2-8.4-2.4-7.6 3.3-7.6 3.3a82 82 0 0 0 13.5 21.5c-15.9-8.6-6.3 6.9-6.3 6.9 16 15.6 14.7 6.4 14.7 6.4.5-8.8 1.3-11.5 1.3-11.5 14 26.7 49.4 42.3 49.4 42.3 7-10.1-3.9-29.2-3.9-29.2a60 60 0 0 1 11.9 14c5.8 17.8 9.8 23 9.8 23 13 21 19.6 27.5 19.6 27.5 3.2 5.3 2.2 10.7 2.2 10.7-9.6 5.1-13 4.2-13 4.2-9.3-2.9-10.8-2.6-10.8-2.6l-6.7 3.2c1-6.2-11-21.6-11-21.6a288 288 0 0 1-16.7-14.6c18.3 6.5 12-5.8 12-5.8-19-12-19.4-5.4-19.4-5.4 0 2 1.2 5.8 1.2 5.8-23.5-17.2-35.2-29.5-35.2-29.5-10.2-10.8-12.6-14.4-12.6-14.4a211 211 0 0 1-8.5-19.7m205.5 67.7c2.9 14.2 10.7 18.7 10.7 18.7 2-2.4 2.4-5.7 2.4-5.7a44 44 0 0 0 18.6 18c9.3 1.3 9.7.8 9.7.8-9 6.3 1 6 1 6-9 8.3 2.8 5.9 2.8 5.9-8.3 10 1.7 4.7 1.7 4.7-4.3 9 1.8 6.5 1.8 6.5-3.7 15.2 1.4 13.4 1.4 13.4a631 631 0 0 1-21 32.8c-3.5 8.3-6.5 10.5-6.5 10.5a36 36 0 0 1-9.2 9.1c-6.4-1.8-10.7-4-10.7-4a309 309 0 0 1 3.7-21.3c6.3 8.2 4.5-2.8 4.5-2.8-1-8.2-3-12-3-12-6-7.8-6.6-14-6.6-14 3.5 2.3 3.4-17.8 3.4-17.8 3.4-6.3 1-15.7 1-15.7-1.4-8.9-4.4-22.6-4.4-22.6-1-3.5-4-8.5-4-8.5zm19 122.9c-15.3 8.8-12.9 16.8-12.9 16.8-4.5-4-5.6 4.5-5.6 4.5-3.4-2.3-.8 7.6-.8 7.6l6 4c-15.2-5.7-20.8-7-20.8-7 11.3-3.5 10.9-17.8 10.9-17.8 2.6 5.5 3.2-5.2 3.2-5.2 4.6 3.7 4.8-8.9 4.8-8.9 9 4.2 14 .7 14 .7-3 4 1.3 5.3 1.3 5.3m-34.5 26.4c6.5 4.2-4.2 13.4-4.2 13.4q-6.3 3.4-6.2 3.5c0 4.2.4 8.2.4 8.2 11.5 6.6 26 5.7 26 5.7-7.5-3.6-9.2-15-9.2-15 5-8.3 22-4.8 22-4.8a92 92 0 0 0-28.8-11m-83.7-48c13.4-20.9 7.2-23.4 1-26s-15.4 3.5-15.4 3.5c9.6-8.2 3-7.5 3-7.5 15.7-11.8 5.7-9.2 5.7-9.2 13.8-15.3 2-8.9 2-8.9 6.8-12.4 1.4-18.1 1.4-18.1 3 3 17.1-1.8 17.1-1.8-4.6 5.3-1.6 3.9-1.6 3.9-7.4 12.5 5.3 7.4 5.3 7.4-19.4 17.2-6 22-6 22-11.2 4.3 8.3 10.2 8.3 10.2 18.4 1.3 1.3 17.8 1.3 17.8-13.7 8-22.1 6.7-22.1 6.7" style="display:inline;fill:#000;fill-opacity:.284343;stroke-width:.280585"/>
  <path id="tshirt-pattern" d="M275 90.3c9 8.6 3.3 25.1 3.3 25.1a1079 1079 0 0 0-13.3 29.8c-.3 1.7-4.1 14-4.1 14 14.4 15.2 19.8 27.3 32.4 42.8a242 242 0 0 1 19.9 28c7.4-42.9-2.1-56.8-4.5-64.9-2.4-8-14.6-39.3-14.6-39.3-4.2-23-12.4-31-12.4-31-3.4-2.9-6.8-4.5-6.8-4.5m-68.3 66.9-5.3 7.1s1.8 2.3 4 7.7c0 0 .7 6.3 17.8 14.2 0 0 4.2 1 16.2 1.4 0 0 3.8 2.2 6.4 5.6 0 0 3.2-2.8 5.4-6.6 0 0-4.3-5.5-10.7-7 0 0-13.8-1.6-19.6-5-5.8-3.2-8.9-3.8-14.2-17.4m50.6 10.7a32 32 0 0 0-2.5 5.8 50 50 0 0 1 17.3 21.4c5.6 12.6 11.2 14.7 11.2 14.7 6 6.4 27.8 41.3 27.8 41.3V242c-25.7-37.7-31.9-42-35.1-49a253 253 0 0 0-9.4-17c-4.7-4.5-9.3-8.1-9.3-8.1m-2.5 15.7c10.6 20.8 12 19.5 14.7 25.2s6 14 6 14c4.4 14.7 7.1 8 7.1 8 2.5-2.7 26.5 40.1 26.5 40.1l.7-11.4c-21.7-36.5-29.2-40-29.2-40-3.6 4.3-6.2-9.2-6.2-9.2-5-15.6-8.7-15.5-8.7-15.5-5.8-4.3-11-11.2-11-11.2m-34.2 17.2c-.9 1-2.9 2.4-2.9 2.4a54 54 0 0 1-6 10.7c-1.1 2.3-2 5.8-2 5.8 4.4-7.8 5.5-9.6 7.1-11.7 1.6-2.2 3.8-7.2 3.8-7.2m41 13.4c10.1 27.4 13.2 25.3 13.2 25.3 4.9 1.6 7.2 12.7 7.2 12.7 4.1 11 5.2 8 5.2 8 2.8-1.5 15.6 20.4 15.6 20.4a39 39 0 0 0 7.6 11c-.7-3-1.1-9.8-1.1-9.8-15.8-26.2-18.9-31-21.3-32.4-2.4-1.5-3.7-1.2-3.7-1.2-.3 4.1-4-7.7-4-7.7-4.1-9.6-10.4-14-10.4-14-5.2-4-8.3-12.3-8.3-12.3m-43 .3c-3 6.4-6 8.2-6 8.2-1.4 1.8-1 4-1 4 1 7.9 3.3 11 3.3 11-2.5-9.3 2.2-15.8 2.2-15.8 2.2-6 1.4-7.4 1.4-7.4m-16.7 20s-4.2 5.2-6.5 6.7c0 0 3.8 1 7.1 3.1 0 0 4 2 6 12.3 0 0 2.6-5.7 4.5-7.6 0 0-2-9.3-11.1-14.4m6.9-79.7c7.3 13.3 8.3 15.2 14.9 17.5s18.4 3.9 18.4 3.9c6.3 1.9 9.9 7 9.9 7 .2-1.3 1.7-3.8 1.7-3.8-6.6-7.2-16-7.9-16-7.9-18-2.7-17.9-4.8-20.6-8.8s-6.3-13-6.3-13zm4.5-7c4.2 7.1 4.7 10.2 8 13.6 3.4 3.4 10.3 5.8 17.4 6.3s12.8 4.1 12.8 4.1c1.4 1.2 3.3 4 3.3 4l.3-1.7c-3.5-5.2-6.1-6.4-12-7.4s-14.6.4-19.8-5.3-9.5-15.4-9.5-15.4z" style="display:inline;fill:#1a1a1a;fill-opacity:1;stroke-width:.248586"/>
  <path id="socks-pattern" data-trait-name="socks-pattern" data-trait-color="detail" d="M63.6 350.5c38.7 11.2 63 3.5 63 3.5-2.6-1.8-5-4.4-5-4.4-23.5 4-42.1-.2-42.1-.2-11.2-2.7-18.7-5.3-18.7-5.3 1.7 2.2 2.8 6.4 2.8 6.4m3.3 5.7c34.8 10.2 55 3.5 57 3 2-.3 5.6-2.5 5.6-2.5 2 1.5 3.7 3.5 3.7 3.5-14.5 8.6-37.3 6.4-43.5 5.5S70 361.5 70 361.5c-1.7-1.1-3.1-5.3-3.1-5.3m8.2 10.6c33.2 7 41.6 3.4 47.8 2 6.2-1.5 12.8-5.7 12.8-5.7l2.4 1.7a57 57 0 0 1-28.7 9.1c-6 .2-25.7-3.1-25.7-3.1-1.5-.6-5-1.1-5-1.1zm8.4 7.3c23 5.1 34.7 4 40 2.5a42 42 0 0 0 13.7-7c.9-1.4 2.5-3 2.5-3l.6 1c-11.7 10.5-16 11.2-26.9 11.4-11 .2-28.6-3.5-28.6-3.5zm185 80.2c12 19 34.5 17.9 38 15.9s14.2-12 14.2-12c.2-3.2-.5-6-.5-6-9.5 10.7-14.2 14.1-14.2 14.1-14.8 2.6-23.4-2.9-23.4-2.9a41 41 0 0 1-12.8-12.6c-.6.7-1.3 3.5-1.3 3.5m-1.3 2.7a39 39 0 0 0 37.1 16.8 59 59 0 0 0 11.7-7.1l2.6-3.3c-.2 1.6-1.1 4.4-1.1 4.4-11.4 8.8-10.6 8.4-18.7 8.4s-19.5-3.5-24.8-8.6q-8-7.8-7.9-7.9zm-1.6 6.2c11.9 13.7 21.9 15 28.5 15.5s10.6.2 13.9-1.2c3.2-1.5 7.6-5 7.6-5l-2 3c-6 4.7-7.6 4.5-15.1 4.7s-14.8-2-20.5-4.7-13.1-10.6-13.1-10.6zm-.8 4.4c14 14.2 27.9 15.7 33.6 15.2 5.6-.5 9.5-.3 11-1.3l2.9-2-2.6 2.8a37 37 0 0 1-24.8-.5c-8.8-2.9-19.4-12-19.4-12-1-.7-.7-2.2-.7-2.2" style="fill:#000;stroke-width:.264583"/>
  <path id="pants-pattern" data-trait-name="pants-pattern" data-trait-color="detail"  d="M199.1 283.3c0 1.7-.3 3.8-.3 3.8 11.2 10.5 17.2 13 20 14.2 2.7 1.3 12 3.4 12 3.4 2.8.2 23.3.7 26.1.7s23.2-1.7 23.2-1.7l-12.1-4c-34 0-39.3-.3-43.5-1.6s-15.5-7.9-15.5-7.9c-2.8-1.7-9.9-6.9-9.9-6.9m-4.5 4.4s12.7 9.7 26.2 17c0 0 4 1.5 18 2.9 0 0 26.1.7 45.7-2l-2-1.1s-9 1.8-24.5 2.5c0 0-15.2 1-35.3-2.5 0 0-9.4-2.6-26-16.4zm-.3 1.5-.1 1.9s2.8 1.7 14.7 10.6l.8.2s-3.5-2.3-15.4-12.7m24.9 15.4 5.6 1.3zm5.6 1.3c4.5 1 7.4 1.8 15.5 3.5 0 0 29.4.7 49.1-2.2q-.1-.2-2.4-.8s-13.7 2-47.2 2c0 0-6.5-.7-15-2.5M86 292c-.5.3-1.6.6-1.6.6a147 147 0 0 1 28.8 20.3c10.3 5.6 11.8 10.6 11.8 10.6a77 77 0 0 1 11.7 20.2c3.3 2.4 1 4 1 4l1.4.4.7.3-.8-.9c1-1.2-1-3.4-1-3.4-5.8-11.4-14.4-24-14.4-24a20 20 0 0 0-4.4-4.1c-3.4-3-5.6-3.8-5.6-3.8-3.6-3.8-18.3-13.6-18.3-13.6-3.7-3-9.3-6.6-9.3-6.6m-4.3 2c-1.3 0-3.7 1-3.7 1a193 193 0 0 1 41.8 27.5c9 13.6 12.7 21.7 12.7 21.7 2.3 2.1 2 3.3 2 3.3l1.6 2 1.9-.6-2-1.1c.9-2-2-4.3-2-4.3-9.7-17.2-13-21.5-13-21.5-14.7-12.5-24.7-18.3-24.7-18.3q-14.4-9.5-14.3-9.6zm-12 3.1-1.2.1s-1.3 4 .2 6.7c0 0 2.5-3 5.1-2.2 0 0 19.8 9 32.3 20.2 0 0 9.5 10.7 19.7 26.2h-5.2l2.7 1.3s3.5 1.3 6.9 3l4.2-1.7s-.7-1.6-2.6-3c0 0-5.4-13.3-13.6-22.3s-12.3-13.2-41-27.3c0 0-4.5-1-7.5-1M282 351.4c-7 3.7-17.9 4.8-25.2 8-7.3 3.4-15 11.8-15 11.8a22 22 0 0 1 2.6 8.4 29 29 0 0 1 14.6-14.3c5.1-2.5 14.6-5.5 14.6-5.5 1.5-.7 8.4-8.4 8.4-8.4m-15.4 17.7-.2.3zm-.2.3q-.3.4-2.7 2.3c-3.3 2.9-9 2.9-18.3 14.7 0 0 .8 2.4-.3 6.5l2.1 4.1s0-3.8 2.3-7.7 8.7-9.2 16.9-19.9m46.4 5.8h-2s-8.4 0-24.3 4.5c0 0-13.7 5-23.9 8.2 0 0-6.8 1.7-14.7 10.1 0 0 .8 1.6-1.5 2.7l.4 2.5s2.5-2 2-4.3c0 0 4.2-5.3 15.5-10.5 0 0 1.9-.9 27-8.7 0 0 9.2-2 20.6-4 0 0 5.1.8 9.4 3l-.8-1.5s-3.1-1.8-7.7-2m-4.4 2.3-2.7.2-28.3 8.5-5.8 3.3s-12 7.4-26.2 25c0 0-1.7 8.6-1.2 16.5 0 0 2.2 3 8.7 5 0 0 4.2-.3 14.3-11.7 0 0 .2-2.4-1.8-6 0 0-8.6 10-16 11.7 0 0-1.1-.9-1.8-2.5 0 0-.5-6.8 3.2-11.8 0 0 9-8.1 14.1-13.3 0 0 16.9-13.4 24.6-18.6 0 0 8-2.4 13-3.5a46 46 0 0 0 16.2 5.6s1.6 11.4.4 15.1c0 0 4.4-5.3 4.8-8.5 0 0-1.7-4.2-3.2-6.5 0 0 0-2 .9-3.5 0 0-4.9-3.2-8.5-4.6 0 0-2-.4-4.7-.4m-33 8.8s-1.2 0-5.3.7c0 0-7.9 5-12.6 9.3L247 406.9s-.3 1.7-.7 2.6c0 0 7.9-7.7 13.2-13.8 0 0 9.6-7.6 15.9-9.4M264 413.8s0 1.2-1.2 2.5c0 0-11.5 11-15 9.8 0 0 1.5 1.2 2.6.7 0 0 3.1-.7 14.2-11zm-23.8-49.6c8-9.5 23.3-15.7 34.1-17.8a65 65 0 0 0 20-7.7c-9.9 4-32.9 4-40.9 7.7a70 70 0 0 0-15.7 10.9c2.3 4 2.5 7 2.5 7M145.4 346c-3.3-10.6-11-22.3-11-22.3a105 105 0 0 0 14 13.1c3.2 2.6 4.3 6.6 4.3 6.6-3.3 1-7.3 2.6-7.3 2.6m15.7-5.5c-7-11.7-17.2-23.8-17.2-23.8-6.5-6.5-9.8-12.8-9.8-12.8 8 8.8 23.7 20.1 23.7 20.1 9.5 8 12 15 12 15zm18.3-1.5c-1.1-6.2-5.5-12-5.5-12-12-8-20.8-20.1-20.8-20.1L148 301a551 551 0 0 0 27.4 20.8c10.2 7 15 17.6 15 17.6-6.3-.8-11-.4-11-.4m-20.1-56.6c10.6 7.7 18.2 19 18.2 19a42 42 0 0 0 11 8 58 58 0 0 1-14.6-19.7l-3.3-4.8c-2.2-.3-11.3-2.5-11.3-2.5m22.6 4.7c1.9 7 9.2 14.6 9.2 14.6-4.4-7.6-1.5-12.7-1.5-12.7-3.7-.4-7.7-1.9-7.7-1.9m119.5 35.1c-17.6.7-35.5 5.5-35.5 5.5-14.6 0-17.9-1.5-17.9-1.5 14.3.4 35.5-7.6 35.5-7.6 8.8-1.9 13.9-3.7 13.9-3.7zM289 308.7c-9.9 2.2-17.6 7-17.6 7-7 2.1-9.5 1.4-9.5 1.4 9.2-1.8 9.9-6.6 9.9-6.6 5.5-.7 1.8-3 1.8-3 7.3-.6 4-2.5 4-2.5 4-.3 4.8-.7 4.8-.7 4.4 1.1 6.6 4.4 6.6 4.4" style="display:inline;fill:#1a1a1a;fill-opacity:1;stroke-width:.248586"/>
  <path id="path5" d="M156.6 104.7c-.7-.3-1.4-1-1.4-1l.7-1.5 2.2-1.8-1.2 3.9z" style="fill:#fff;stroke-width:.264583"/>
  <path id="outline" d="M179 33.4a30 30 0 0 0-24.3 6.5c-6.1 5.1-14.1 15-16.7 34.5 0 0 1.4-6.6 3.6-14.1 0 0 1.9-8.3 14-20.4 0 0 7.3-7.8 25.3-5.9 0 0 10.2 3.2 21.5 12.7 0 0 7.3 10 8.8 20.5 0 0 1.6 3.3-.5 1.2l4.7 6s2.1 2.9 5.8 6a47 47 0 0 1-9.5-13.4s-.3-6.3-8.8-20c0 0-3.8-4.7-16.7-11.2a28 28 0 0 0-7.2-2.4m52.9 53.8 2.6.9s1.6.4 3.8-1c0 0-2.2.9-4.4.6zm26.4-5c-5-1-12.7-1.4-18.9 4 0 0 3.8-2.1 11.3-4.3 0 0 15.4 0 32 14.2 0 0 2.4 3 4.9 9.6 0 0 3.7 7.2 6 19 0 0 1.4 5.3 3.4 17.5 0 0 1.4 4.4 3.2 9.2q-1.3-3.5-2.3-8.7l-2.7-12.9 6 16.4a253 253 0 0 0-7-21.3s-1.2-11.7-10.6-28.2c0 0-4.5-5.6-20.5-13 0 0-1.9-.9-4.8-1.5m43 64 .3 1 .2.4zm.5 1.4c.8 2.2 1.4 4.3 2 5.5 0 0 11.4 24.5 12 47.7 0 0-1.5 24-5.5 53.3 0 0-1.1 11.2-.2 34.7a67 67 0 0 0 .7 7.6s-1.8-24 .9-48.3c0 0 3.8-25.7 4.8-45.4 0 0 1.3-12.2-7.8-40.2 0 0-3.4-6.5-7-15M182.3 72.4a35 35 0 0 0-7.2-.1s-3.7.7-3.2 8l.3-3s.2-2.1 2.3-4.4c0 0 .9-.6 9 0 0 0 .8.4 7 10 0 0 1 .1.2 8.2 0 0-.9 2.7-3.7 3.9 0 0-1.1 0-1.8-2.8 0 0-.2 1.8 1.9 3.3 0 0 5.6-1.4 4.2-10.9 0 0 .3-3-7.4-11.8zm-10.4 7.9v.6zm10.2-7s-6.3-1-8.1 1.4c0 0-.5.3-.5 1.4q.2-.7 2.5-2.4s6.2-.8 4.4 1.2c0 0 1.8-1 3.4 1.3 0 0 5.7 2.5 4.5 11 0 0 .9-2.8 1.2 2.7 0 0 .3-2.1-.4-6.5 0 0-.5-5.1-7-10.1m-8.6 2.8q-.2.5 0 .6zm0 .6q.1 1.3 1.3 3.4s1.5 1.7 5.5 1.7c0 0-.9-2.4 4.2-.6 0 0-2.3-1.8-7-.8 0 0-1.5.4-2.9-1.5 0 0 .7-1.5 3.3-.2 0 0-.5-1.1-3-1.3 0 0-.6.5-1.1-.6zm62.2 12.6c-16.2 16.5-17.6 30.5-17.6 30.5.1 17.8.5 19-2.7 23.8l-14 20.8-5 7.6c-7 10-16.4 18.7-16.4 18.7-10.1 12.4-10 14.3-14.8 26.4-4.7 12-17.9 37.1-18 37.3l4.3-7.6c10.8-21.1 12.8-27 12.8-27l6.6-15.9a106 106 0 0 1 15.4-19.1c8-8.9 11.4-14.1 11.4-14.1l4-6c2 2.7 2.7 7.2 2.7 7.2a43 43 0 0 0 18.7 14.7l12.4 1c-5.8 6-10 9.8-10 9.8a165 165 0 0 0-15.9 12.8l8.2-6.7a230 230 0 0 0-8 14.2c-4.5 12.2-7.1 15.4-7.1 15.4a486 486 0 0 1-29.3 30.4l8.4-7.3c11.2-11.3 22-23.8 22-23.8 4.4-10.8 8.1-17.8 8.1-17.8l6.7-11.4c5.7-4.2 10-8 10-8 4.3 5.4 6.5 7.2 6.5 7.2.2 2.4 0 4.3 0 4.3q.9-3.1.8-3.3a8 8 0 0 0 2.8 2l-5.8-5.6c-1.7-2.5-4-4.9-4-4.9l7.4-7.2 3.4.3c.7-.4 6.2 5.4 6.2 5.4l-.2-.5.7.6c7.4-8.4 8-16.1 11-24l.3-1.4c-2.8 6.1-2.7 7-2.7 7a40 40 0 0 1-9.4 17.8c-1.7-3.3-5.8-5.7-5.8-5.7l-16.1-.8c-10.8-4.7-16.3-11.3-16.3-11.3-2.2-3-2.6-5-2.6-5a20 20 0 0 0-3.1-5.4c10.6-15.8 13.6-19.6 15.1-22.7 1.7-3.6 1.8-10.3 1.8-10.3-.3-11.6-.1-13-.1-13a73 73 0 0 1 13.7-25.2zm-88.5 165.1-.5 1 .5-.8zM182.7 83c-3.6 2-2.6 2.7-2.6 2.7 1.4 1.5 1.3 2.8 1.3 2.8 1.3 1.5 2-.1 2-.1.7-2.8-.5-4.2-.5-4.2-.2-.5-.2-1.2-.2-1.2m-44.2-1.5c1 9 2.5 10 2.5 10 4 10.5 5 11.3 5 11.3 1.5 2 3.2 1.2 3.2 1.2 2.2.4 3.3 1.3 3.3 1.3a6 6 0 0 0-2.6-1.4c-.6-5 3.7-5.7 3.7-5.7a8 8 0 0 1 2-2.4c-7 2.9-8.4 4-8.4 4q-1.2 2.6-1 2.6c-4.8-9.6-5.5-11.7-5.5-11.7-1.2-3-1.9-6.4-2.2-9.2m39.7 5.8s.2 1.1.4 1.4c0 0 1 1.4 2.6 2.6a10 10 0 0 1-3-4m97.6 34c-6 12.7-10.5 22.8-13.2 28.8l-.7 4 .9-3.3 2.3-4.3c7.3-1.4 12-4 12-4-9.2 2.7-5.9-1.4-5.9-1.4-7 6-4-1-4-1a231 231 0 0 0 8.6-18.8M158.2 100l-3.5 1.1-2.3.8 3.2-.8zm0 .1s-2.2 2.3-4.9 2.7c0 0-.3.8-2.4 1 0 0 .6.5 3.4-.5 0 0-.4.7-1.8 1.3 0 0 .9.2 2.8-1.8l-.5 1.5 1.3-1.9-.1 1.4.7-2.2v1s.7-1.6 1.3-1.9l-.3 1.5q.3-1.5.6-2m-1.5 4.3v1l.7.6zm-2.9 4.4v1.4c.6 3.6 1.5 6.2 1.5 6.2.2 3.3.4 4 .4 4 3 3 5.6 1.6 5.6 1.6l2.9-1.7-2.5 1.2c-2.5 1.3-4.2 0-4.2 0-1.4-.8-1.8-1.7-1.8-1.7-.3-4.7-1.6-9-1.6-9q0-1-.3-2m10.4 11.5q.5 0 .8-.3zm-2.7-11c1.9 1.8 3.4 4 3.4 4a20 20 0 0 0 4.3 5.2c-2.3-2.5-3.8-4.7-3.8-4.7-2.6-4-3.9-4.5-3.9-4.5m30.7 8.9-3.6.6q3 .1 2.8.2c-2.4 1-3.6 1-3.6 1h3.5l-2.4 1h1.9q-4.9 1-6.3.7c4.8.7.4 1.1.4 1.1 4.5.8-2.4 1.2-2.4 1.2 3 1.3-1 .6-1 .6 2.5.8-2.2 0-2.2 0-.3 2.6 0 4.9 0 4.9-.7-2.3-2.1-3-2.1-3 .3.9-.1.9-.1.9l-1.1-1c-.7-.3-1.8 0-1.8 0 1 2.5.8 3.6.7 4 .8-1.8 1.1-.5 1.1-.5.3-1.1 1.2 1.3 1.2 1.3.2-1 .6.8.6.8.8 4 1.3 3.8 1.3 3.8-.7-1.6 1-.3 1-.3-.4-1.2 1.4 1.2 1.4 1.2-.2-1.5 1.4-1 1.4-1 3.3 1.2 5.2.2 5.2.2q1.8 0 2 .3l-.7-1.1c2.8-1.2 3.9-2.8 3.9-2.8-1.8.8-2.1.4-2.1.4a10 10 0 0 0 3.6-3.7c-1.2.6-1.8.4-1.8.4 2.4-1.9 2.2-3.6 2.2-3.6l-.8.6c3-3 5.2-1.7 5.2-1.7 4.6 2.1 7.2 1.3 7.2 1.3 5.5 5 8.4 8.4 8.4 8.4a26 26 0 0 0-4.9-5.5q-3.3-3.6-3.4-3.4c-3.7.7-7.7-1.2-7.7-1.2-2.2-.5-4.4 1.3-4.4 1.3l-.9 1q-2.3 1-2.4.9c2.2-.8 2.4-1.7 2.4-1.7-1.7.8-3 .2-3 .2 2.3-.4 2.7-1.1 2.7-1.1q-2.5.1-2.6-.1c1.7-.3 2.3-1 2.3-1-1 .2-2 0-2 0 1-.4 1-1.3 1-1.3-.9.4-.3-.6-.3-.6 1-1.3.7-2 .7-2-.4.3-.7 0-.7 0 .3-.7.2-1.7.2-1.7m-2.1 18v.4q.2 0 0-.4m-15.2-5.8v.1zm-10.8-13c-4.6 1.8-4.7 3.3-4.7 3.3-.2 1.2 1.6.6 1.6.6 1.4-1.2 1.8-2.3 1.8-2.3-1.9 1.5-.1-.8-.1-.8.6-.5 1.4-.8 1.4-.8m5.6 1.4c-2.4-.5-4.1-.2-4.1-.2-1 2.4-.4 3.1-.4 3.1.6 1.2 1 .6 1 .6.4.8 1 .4 1 .4.5.7.8-.1.8-.1.4.5 1-.3 1-.3 0 .6.9-.3.9-.3l3.7-1c-2.6-.9-3.9-2.2-3.9-2.2m5 3h-1.2l-1.5.5-1 .8c-.2.2-1.6.4-1.6.4-.7-.1-1.1-.6-1.1-.6 0 1.2 2.9.3 2.9.3-.4 1.7 1 2.7 1 2.7.3.6 1 .4 1 .4 1-.6 3.3 0 3.3 0-2-.6-3-.3-3-.3-.7.4-1.1-.1-1.1-.1-1.4-1.5-1.2-2.6-1.2-2.6q1.1-1 1.2-.9v.5l.9-.8c.3-.3 1.4-.3 1.4-.3m-2.7.5-2.2.7 2-.6zm40.1 9-1.6 4.4c-8.6 5.9-12.5 9.7-12.5 9.7-9.6 7.3-12.8 26.2-12.8 26.2l-.2 3.6a71 71 0 0 1 8-23.6c7.3-10 17.5-15.4 17.5-15.4q-5 11.8-5.2 11.7c3-5.1 6.6-14.9 6.6-14.9zm51.5 15.6s-8 14.1-14.6 29c.7-1.6 4.2-9.1 12-23.5 0 0 2.5-4.3 2.6-5.5M185 175.2v.4zm0 .4a45 45 0 0 0 .6 9.3zm-112.6-8.2q-.2-.1-1 .4zm-1 .4c-1.4.6-1 1.2-1 1.2 2.8 6.7 6.8 14 6.8 14q-5-5.6-5.1-5.4l-9.4-5.9c-1-1.6 0-2.8 0-2.8-1.7.7-.4 3.1-.4 3.1 5 2.7 9.8 6.2 9.8 6.2l5.8 6c1.7 3.5 7 6 7 6l8.8 8.5c3.3 2.4 10.1 8 10.1 8 7.8 9 11.1 13.2 11.1 13.2 3.2 3.1 6.7 5.2 6.7 5.2 16.7 22.3 25.3 29.8 25.3 29.8-12.1-13-26.2-31.2-26.2-31.2a67 67 0 0 1-13.6-13.8c-2.4-4-11-10.2-11-10.2-3.9-7.8-9-13.1-9-13.1l-6.7-13.3a65 65 0 0 0 5.4 11.7c1.7 2.8 4 5.4 4 5.4l5.7 9c-5.7-4.2-9-8.6-9-8.6-6.4-4.6-8-6-8-6-4-6.5-7-13.8-7-13.8q-1-2.7 0-3.2m2.8.6 2.4 2s2.7 2.5 3.8 3.9c0 0-3-4.1-6.2-6m9.8 4.4c-2.7-.4-3 .6-3 .6 1.5-2 5.9 2.1 5.9 2.1a289 289 0 0 1 14 17.8c0 4.4-.3 7.5-.3 7.5.6 2.9 1.7 3.5 1.7 3.5-1.4-2-1.2-4-1.2-4q.2-9.4 0-9.3l-.6-6.6c1.1-1.6 4.7.5 4.7.5 2.3 4.6 2.3 7.5 2.3 7.5a45 45 0 0 1-.2 7.4c.7-4.5 1.5-5 1.8-5l-.7-.8-3-9.6c-4.2-2.4-5.4-.1-5.4-.1l.6 8.2c-4.3-6.7-9.9-13.5-9.9-13.5-1.6-2-5.4-6-5.4-6zm25.2 22c2.6 5.3 3 6.4 3 6.4-1-5.1-1.4-5.4-1.4-5.4zm12 4.4c3 5.4 8.2 8.8 8.2 8.8l.6.4-4-3.4c-2.8-3-4.8-5.8-4.8-5.8m88 21.6c2.5 4.2 2.6 8.1 2.6 8.1 0 8 3.3 10.7 3.3 10.7.7 2.5.2 4 .2 4-1.4 2.7-1.7 3.7-2.7 5.9l2.6-5.1c.8-1.4.5-3.9.5-3.9l-.3-1.4a22 22 0 0 1-3-7.7c-.2-2.6-.8-5.8-.8-5.8-.6-2-2.4-4.8-2.4-4.8m-70.5-6c6.7 4.8 10 6.5 10 6.5l4.3 1.2a38 38 0 0 1-6.5-2.6zM215 238s.8 1.7 1 3.4c0 0 .1 1.1-.7 3.5l.4-.7s0 3.5.9 7q.2.1.8 3.8-.2-2.2-.8-4.2s-1-7.5.4-10.1zm.3 6.9c-1.5 3.2-.4 1-.4 1zm-18.9-3.8c9.9 4 12 15.4 12 15.4l.2.4-1.6 2.5c-1 .8-1 1-1 1l.2.3c-7.8 11.8-10.9 12.3-10.9 12.3-7.7 4.5-12.9 5.7-12.9 5.7-3.4-.7-7-4.9-7-4.9a40 40 0 0 0-7.5-4.8c2.2 2 5.6 3.5 5.6 3.5 1.2 2 8.6 6.7 8.6 6.7 7.7-2.3 16.5-7.7 16.5-7.7q5-6.3 7.7-10.7c.7 1.6-1.4 2.7-1.4 2.7 1.3 1.4.2 2.6.2 2.6-1.4 2.4-1.3 3.4-1.3 3.4 1.2.5.8 1.4.8 1.4-1.4 1.4-1.7 2.5-1.7 2.5l1.6.5q-.6 3-1.1 4.3l1.3-1.6.3-2.5c5.6 2.3 13.5 7.5 13.5 7.5 13.6 8.5 41 16.5 41 16.5q4 .7 7.5 1.6h-1c-28.9-.3-39.3-1.3-39.3-1.3-15-4.7-24-12.8-24-12.8-1.7-1.4-3.4-2-3.4-2 5.7 4.1 4.2 3.6 11.9 8.6 7.6 5.1 15 6.4 15 6.4 23.6 3 39 1.5 39 1.5h3.2q5.3 1.2 9.3 2.7l-10-.1s-19.6 1.7-38-.5l-1.6.2s-1.6.1-10-.5l9.4 1.7s3.7 1.4-8-.2c0 0 7.6 2.3-1.8 1.5 0 0 5.2 1.3 15.4 2.2l-5.8-1s1.6-1.2 22.1-.6c0 0 2.6.8-13.4 1.6 0 0 19.4-.9 41.4-2.9l-19.7 1s-13.6.5-28.7-1.6c0 0 1.2-.8 4-.7 0 0 9.8.6 22 .9 0 0 8-1 23.7-.7q6.9 2.7 10.4 4.4a674 674 0 0 0-39.5 7s-2.7 1.4-4.5 1.8l18.2-3.3s-8.7 2.5-20.5 7c0 0 34.5-10.9 44.8-11.6l5 1.2.2.1.5.1 1.7 2.1-1.8-1.7 2.7 3.8 2.7 3 2.6 4.8 1.4 2.5 2.6 4.7 1 1.2-2.3-4.7c1.9 3.7 3.5 5.3 3.5 5.3a210 210 0 0 1-6.3-12.7l-.9-1.1-.8-1 1.2 3-5.6-7 3.5 3.3s-1-2.3-4.2-6.6h-.1q-3.2-2-7.7-4.2l3.3 2.1 2.6 2.2-1-.5-1.2-.9.3.2-.7-.5q.3 0 .4.3l-11.3-4.6-8.4-3-20.7-5.3c-4.6-1.5-10.7-4-10.7-4a478 478 0 0 0 22.2 5.8c-9.2-2.8-16.2-4.6-16.2-4.6a132 132 0 0 1-14.3-6c9.5 5 6.6 4.3 6.6 4.3-16.5-6.6-26-13-26-13a62 62 0 0 0-6.4-3.3l.3-2.3q4 1.8 7.5 3.9l-7.3-4.8h-.1l.5-4.2c5.5 3.9 10.6 8.3 10.6 8.3 11.4 7.2 22 11.4 22 11.4-16.2-8-20.3-10.8-20.3-10.8 7.3 2.3 14.2 5.9 14.2 5.9l-6.6-3.8a42 42 0 0 1-9.7-3.8c-6.2-4.7-9.2-7-10.2-7.6v-.1l.6-1.4 2.7 2-2.5-2.7.2-.5 3.7 2.3a22 22 0 0 1-3.2-3.8v-.1c-.6-1-.3-1-.3-1 1.2-1 1.1-2.1 1.1-2.1l-1 .7 1.4-2.3.1.3.2-.8v-.1a43 43 0 0 0-6-11.3c-3.6-3.2-6-3.8-6.5-4m93.4 66-1.2-1.2-1.4-.7zm-2.6-2-1-.8-8.3-4s5.6 2.8 9.3 4.9m-1-.8.3.2-.7-.5zm8.1 4.5a92 92 0 0 1 10.6 12c-2.3-3.2-4.7-7.3 1.6-3.4 0 0-3.3-3.4-12.2-8.6M209 261.4a972 972 0 0 0 24.3 18.3l21 11.2-20.2-11.5c-16.9-12-22-16-22-16-1-.8-3-2-3-2m-2.6 1.4.4.4-.1.4q-.5-.9-.3-.8m-.6 1.2.6.4-.6 1.5-.1-.1c.3-1 0-1.8 0-1.8m-.3 2 .2.2-.3 1q0 1.7-.3 3.1c-1-.6-1-1-1-1 .6-1.9 1.4-3.3 1.4-3.3m-59.5-9.2c-7.3 13.7-10 16.6-10 16.6-3.7 2.8-4.5 4.7-4.5 4.7a14 14 0 0 1-1.8 5.4c1.4-2 2-5.2 2-5.2 2-3.4 5.3-5.4 5.3-5.4 3.7-6 6.3-10.9 9-16m59 14.7-.4 2-1-.3zm-35.2-4.6-.5.5zm141 30q-.2 1.7-.1 4.6v.6l.1 3.3a70 70 0 0 0-.2 8.6v-.1l-.2 16.3q-.7 3-1.5 4.2l-.8-1.5.6 1.8-.7 1 .8-.8c3.5 9.3 10 22.3 10 22.3a199 199 0 0 1-7-21.2c.6 4.3-1.5 1-2.8-1.3l.2-.2.3.4a8 8 0 0 0 2.1-2.8c-.4-2.1-.7-6.5-.8-8.9l.1-8.9c.4-5.9.2-11.6.2-11.6a29 29 0 0 1-.3-5.7m-.4 8-.2 1.4zm-32.6-12.6 6.2 5.6c-3.5-3.3-6.2-5.6-6.2-5.6m-74.3-14L199 283s1.2-1 4-4zm58 18.1 9.9 3.2s-3.3-1.4-9.8-3.1zM199 285a5 5 0 0 1-2.3 2.5l-3.3.3c.5 1.4-.3 1.8-.3 1.8l-5.2-.5-27.1-6.6c-1.3-.4-3.4-.6-4.3-.7l31.2 7.3h-1c3.6.4 7 3.1 7 3.1a10 10 0 0 1-2-2.1h.3-.3l-.3-.5c1.7.7 3 2 4 3-1.4-2.2-1.2-3-1.2-3 0-1.3.8-1.4.8-1.4a16 16 0 0 1 5.5 2.7c-2.8-2.2-2.7-3.3-2.7-3.3a93 93 0 0 0 17.6 12 99 99 0 0 1-17-12.6zm-3.6 7.6 1.8 2.4s-.6-1.1-1.8-2.4m-61.2-19.8c-3.6-.4-5.5.1-5.5.1-6.2-2.5-7.8-2.5-7.8-2.5-3 1.5-3.7 3.1-3.7 3.1-4.7-.9-5.8 1.3-5.8 1.3a10 10 0 0 1-4.5 5.2l-3.1 1.4q-1.5 1.1-2.2 1.4h.7c1.7-1.5 4-2.3 4-2.3 3.8-2.4 4.8-4.3 4.8-4.3 1.3-2.5 2.7-2.7 2.7-2.7q3.7.2 3.6.4c2.5 0 3.3-.3 3.3-.3q-3.4-.1-3.3-.2c2.8-3.1 3.7-2.8 3.7-2.8l7.6 2.6c2-.6 4.3-.5 5.5-.4m-32.6 10q-1.6-.1-4.6 1 1.3-.4 4-.8zm56.8-4.4-.6.8-.1.1zm134 30.8h.2v.2s-.6-.1-.1-.2M97 283.7c-2.2.7-2.2 1.4-2.2 1.4-1 3.5-2.1 5.4-2.1 5.4l-.3.5-3.7-.8 2 .9h-.6 2.3-1.6q1.8.6 5 .3l-.3.2h.5l.7-.3.6-.1.2-.1h-.4.6-.4c-3.2 1.3-3.7 1.8-3.7 1.8 5.8-1.8 8-3.2 8-3.2l-4 1.4h-.4l3.6-1.7s11 .6 29 8.2l-5.4-1.2q4 2 7 4l-2.8-2.4q7.5 3 12.5 5.9a55 55 0 0 0-9.5-5.2 158 158 0 0 1 24.8 4.5c-8.6-3-18.8-4.2-18.8-4.2a71 71 0 0 1 20-1c-7.5-1.5-12.4-.9-12.4-.9.6-.7 3.8-3.2 3.8-3.2-1 .7-6.6 3.3-6.6 3.3-5 1.5-10.4 1-10.4 1h1.2s-2.5-.5-11.5-3.9c0 0-5.8-2.4-13.1-4q-3.7-.9-7.7-1.3l-4.4 2v.1h-4v-.1l1.2-2 1.5-4.3zm-6.9 7.4-2.1-.2s-2 2.1-10 3.1c0 0-1 .7-3 3.9l-6.1-1.7s-1.7 2.7-1.6 6.7l.8-4.3s.8-1.3 8.4.1c0 0-.1-1 5.8 1.7 0 0 6.1 4.7-7.5-.7 2 .8 8.5 3.7 21 10.8 0 0-15.8-11-9.4-8.5 0 0 12.1 5.4 23.6 15.6 0 0-12-11.7-32.4-20.3 0 0-1.3-.8-.2-2 0 0 .8-1.2 2.5-1.2 0 0 8.1 2.6 11.9 4.8 0 0-.7-.7-9.1-5.1l5.8-2.8zm69.6 7.2-2.2-.3 4.7 1.1q.1-.1-2.5-.8m151 29.9.2 1.9-.1 1.7zM108.3 291c-7.9 1.1-10.4 2-10.4 2 8.2-1.6 12.6-1.2 12.6-1.2l-15.4 6.9 17.3-6.5c-2.7 4.2-5 6.3-5.1 6.4 5.7-5 7.4-5.9 7.4-5.9 1 2-.3 3.8-.5 4.1l2.5-3.3c-.7-.6-5.4-2-5.4-2zm202.4 41.4v.5l-1.5 1.5q1.4-1.5 1.5-2m-179.3-32q3.3 3 10 8.3s-3.9-4-10-8.2m9.7 3.5q5.2 3.3 12.5 9.5s-2.8-4.1-12.5-9.5m-49.2-2.5c5 3.4 6.7 4.1 7.2 4-4-2.4-7.2-4-7.2-4m7.2 4c3.3 1.8 7 4 10.3 6.3 0 0 12.3 7 28.5 11.5 0 0-21.2-7.3-32.2-14.2l-7-5.2s1 1.4.4 1.6M70 300.8s-2-.2-1.3 1.8l1.2-1s-.4-.5 2.5.2a47 47 0 0 0-9.2 5.4c-8.8 9.8-9.2 14.3-9.2 14.3q0 4.1 1.2 8.8c-.7-7.2-.2-9.8-.2-9.8a49 49 0 0 1 17.9-18.6h.2-.2l.3-.2q-.2 0-.3-.2l-.4.3zm-14.8 29.5v.1M73 302l.6.2-.4-.2zm.6.2c2.5 1.1 16.8 7.8 33.5 21.9 0 0 9.5 10.6 17 23l1.5 1h-5c-6.3-1.3-10.2-1.1-10.2-1.1l-1-.1-3.2-.5c3 1 5.2 1 5.2 1 5.8 0 9 1.4 9 1.4l1.5 1.2-.8-.4c-26.1 5.3-54.4-3.6-60-5.5-3.8-8-6-13.6-6-13.7q1.9 6.7 5 13.4l.6 1c4.4 9.2 9.5 16.6 9.5 16.6 32.7 34.6 53.4 46.5 54 46.8L123 407c-27.5-19-52.8-46-52.8-46q-5.1-8.6-8.6-16c30.3 8.6 46.3 6.8 46.3 6.8l14.5-1.3 6.7 5.8c-4.7-4.4-6.8-6.6-7.5-7.3.5 0 2.7.5 5.8.1l-.7-.7c12-.4 14.4-.7 14.4-.7 23.6-8 26.2-7.2 26.2-7.2 20-1 29.6-.8 33.8-.5a208 208 0 0 0-35.8.4c3.3-.6 6.7-1.2 8.2-1.2 0 0 10.4-.9 22.8-3.7 0 0-14 2.4-31.3 4l5.1-2.6q-5.4 2.4-13 5l6.7-1.3a185 185 0 0 0-22.9 6.9l-14.5.6-1.2-.7s-4.8-7.7-17.7-23.4c0 0-10-12.5-34-21.8m148.9 29c9.8 16 6.8 14 6.8 14l-16.9-15.1c11.7 10.8 11.2 11.5 11.2 11.6-5.2-3.2-14.5-7.5-14.5-7.5q12 6.8 17 10.7l-2.4-.9a35 35 0 0 1 12.2 10.1l-.9-1 2.5 2.6a123 123 0 0 0-14.9-24.5m-30.5.7c20.6 7.4 10.7 5.8 10.7 5.8 8.2 2-7.2 1.4-7.2 1.4 18.2 1.1 23.2 2.6 23.2 2.6C194 332 192 332 192 332m127.5 27.6s.7 3 2.7 5.5c0 0-4.2 1-11-.6l8 2.8s1 1.2.3 3.1c0 0-.8-.1-6-1.9l.3-.1-7.4-.8c3.6.6 8.3 1.7 12.1 3.5 0 0 1.1-.1 2.7 2.4 0 0-1.4 1.9-4.3 1.5 0 0 2.5 1 4.3 4 0 0 .3 2.9-1.1 6.5l-3.8-1.2q-.4-.5-1.1-1s-3.2-2.8-9.4-3.6l-3 .6-2.3-.6 5.5-1.3s4.8 1 10.6 5c0 0-2.6-2.8 2.5-.8 0 0-.1-.5-7.7-3.2 0 0-4-1.2 2.7-1 0 0-1.8-.5-5.8-.4l-4.7.2-4.2 1.3-1.1-.2 1 .3c-6.6 1.9-20 5.7-37 9.5 0 0 9.2-1.9 15.1-2.9 0 0-.5.6-4 2.5q4.6-2 9.7-3.5.1.1-10.1 5.8a184 184 0 0 1 15.2-7s-3 1.8-14 9.9c0 0-.6-.3-.1-1.3a57 57 0 0 1-10.6 8.3l3.6-1.6s-15 14.4-21 21.9l2.8-2.3s-2 4.9-.7 8.9c0 0 0-4.5 1-8.8 0 0 7.6-10 18.1-18.9 0 0 4-3.6 12.5-9.6l-.2.1 2.6-1.8 4.8-3.2s4.9-3 16-5l11.1 3.1q-6.4-2.3-10.6-3.2l2.3-.4s4 .7 9.2 3.9l-.9-.3 1.2.4 1.5 1-.4-.5 1.9.7.6.6 4.7 5.3q-.3-1-1-2.2s-3-2.6-1.4-4.9c0 0 .6-1.2.3-5.2 0 0-1.3-3 0-5.2 0 0 .7-.6-1.2-2.4 0 0-1-1.1.6-3.4 0 0-2.3-1.4 1.5-2.9 0 0-1.2-1-3-5.4m-.5 28.9c.1 3.6 0 10.3-.6 23.1 0 0-.8 8-1.4 17.4h.2s0-2.3 1.3-17.2c0 0 1.2-9.5.5-23.3M246 421l-1.2 1.4zm27.4-32.5c-8.2 3.4-14.2 7-14.2 7 7.2-3.4 11.6-5.6 14.2-7m-59-47.5h-.7l-6.6-.6 9.8 1.6q-1.8-.9-2.6-1m-7.3-.6c-.8 0-.7-.1-1.5-.2l-2.6-.2zm13 2.3-2-.2a29 29 0 0 1 5.2 1.3s-1.4-.7-3.2-1m-2-.2h-.4zm98.6 20.8-.5.3zm-11.6.6s-3.3-.3-10.8 0c6 .3 13 1.4 20 4a12 12 0 0 1 5.3.7s-3.3-1.5-14.5-4.7m-10.8 0c-10-.5-17 1.4-17 1.4a270 270 0 0 1 17-1.4m-58.3-9.4.8 1.3h.2zm1.2 3.3s6.7 15.5 6.6 25.1c0 0 .4-.1.7.8.3 0 2.2.5 4.3 4 0 0-.6-2-4.3-5.2l-2.2-11.5s-1.4-8-5-13.2m7.3 26.3a31 31 0 0 1-.2 9s-.8 1.2 4.8 7.6c0 0 .4-.8-3.8-7.8 0 0 1.3-3.1-.7-8.8m-90.1-41.4c-3 .7-5.6.9-5.6.9l-10.8.5c6.7.2 7.2.6 7.2.6l-6.5 1.3c9-1.2 15.7-3.3 15.7-3.3m-11.4 4.4c-3.5 1.5-13 4-13 4-1.7-.1-7-1.4-7-1.4l7.4 2.5c7.8-2.8 12.6-5.1 12.6-5.1m157.2 32.5 2.1.6c-3 .6-7.5 1.6-12.6 3 0 0 4.1-1.9 10.5-3.6M126 348.4q.3 0 .5.3s-1.9.7-5 .3l-.3-.4 2-.1zM323 396l-.8 2s-.3 1-.9.7c.8.6 2 .8 1.7-2.7m-1.7 2.7-.6-.6q.3.6.6.6m-181-32.2c.4.6 3 4 8.2 13.3 0 0 0 4.1 6.2 15l1.9 2.8c-2.7-5-5.1-10-6.4-14.3 0 0-1.8-6.8-10-16.8m16.3 31c6.2 11.4 14.1 22 14.1 22 9.2 13.6-8.3-13-14.1-22m110.3-.3q-2 .6-1.8.7zm-20.6 1.4h-.2l.5 1q0-1.1-.3-1m.3 1c.2 1.4.2 4.8-.4 12.5.5-.5 1.3-2 1.3-5.7 0 0 0-4.4-.9-6.8m-.4 12.5-.4.3-.3 1.9.7-2zm-.7 2.2a29 29 0 0 0-1 16.2c-.2-3-.2-9.6 1-16.2m-1 16.2v1.5q4 3 6.1 3.9c.8 1.5.9 1 .9.3 1.5.5 2.2.3 2.2.3 4.5-2.4 9.7-7.3 13.4-11.1l1.2 5.9c3 10.6 2.1 17.7 2.1 17.7a87 87 0 0 0-7 22.6c2.2 12 6.7 14.4 6.7 14.4 1.4 6.3.5 13.4-.2 17.1l.1-2.5-.6 2-3.7 7.2-3 6-1.3 7-.9 3.2-1.3 3.2-3.2 8.9c0 1-3.7 9.8-3.7 9.8s-4 7.4-8 12.1-9.7 16.4-3.9 21.2c5.8 4.7 21.6 6.3 27.4 4.2l3.7-1.5-.2-.3.8-.4.2.3 9.6-4.5 4.2-2.1c7.3-15.1 5.3-27.2 5.5-33.6a104 104 0 0 1 4.6-19.5c2-5 1.7-12.6 1.7-12.6 0-.7-2.4-2.7-2.4-2.7l2 2.2c.8 7.1-1.6 11.6-1.6 11.6-3.4 12.8-4.2 18.5-4.2 18.5-1.3 8.3.7 12.4-1.5 21.8s-4 13.6-4 13.6c-15 7.6-20.4 9.2-20.4 9.2-22.4.5-26-5.7-26-5.7-3.8-6.2 2.3-16.2 2.3-16.2 6.8-9 9.6-13 11.3-16.8a76 76 0 0 0 15.8 13.3c-4.2-3-12.5-10-12.5-10l-2.9-4.3 1.7-5q1.3-4.5 2.8-8.4c4.3 17 7.5 18.4 12.4 23.6s8 9.7 8 9.7c-4.7-9-8-8.3-12.6-15.5a86 86 0 0 1-7.8-17.8c1.5-4 2.9-6.9 2.9-6.9l1.6-7.4.2-1.4v.4l.2-1.4c5.3-10.5 6-11.6 6-11.6l.4.7-.3 1.1a80 80 0 0 0-6.4 13.8V517l-.1 1c-.4 3.1-1.1 10.9.9 16 2.5 6.3 3.5 9.4 14.6 22.4 0 0 6.6 6 8.8 17.2 0 0-.4-5.2-2.9-9.8s-9.4-11.4-14.5-19.3c-4.5-7.1-7.2-10.7-6.8-24 .3-.1 1-1.7 1-1.7-1 1.9-.2-1.5-.2-1.5a175 175 0 0 1 6-11.5c2.3-12.9 1-20 1-20-3.5-2.5-4.4-5.5-4.4-5.5a40 40 0 0 1-2.6-9c4.7-18.2 7.2-22.6 7.2-22.6.4-5.5-1.6-15.4-3.6-23.6l2.2-2.3 2.9 7q-1.4-4.6-2.8-7.1v-.1l-1-1.7a42 42 0 0 1-4.3-13.7h-.1l1 6a23 23 0 0 0 4.2 9.5l-2.2 2c-1.4-6-2.9-11-3.3-12.3l-1.6-3c2.2 5 3.7 11 4.7 15.4-6 5.2-14.7 11.2-14.7 11.2l-1-.4v-.2a38 38 0 0 0 10.3-6.6c-4.6 3.6-8.8 5.2-8.8 5.2-.8.3-2.5-.4-2.5-.4-3.2-5.1-3.7-8.3-3.7-9.8 0 1.4.2 2.7.2 2.7l3.4 8.6c-3.9-2-5.5-3.7-5.5-3.7zm2.1-6.7.1-1zm17.3-11.4c1.6 2.5-1-3.6 0-.4zm5.3 147.6 2 1.2zm12.7 19q-.8.8-3.8 5.4l-5.1.4-.7-1.3-.8.4.5.9s.7.8 6.2.4c0 0 1.3-.7 3.7-6.2m31.4-138c-4.4 8.2-6.8 10-6.8 10 3.8-2.5 5.7-5.9 5.7-5.9-3.6 4.9-2.7 2.5-2.7 2.5 3.4-5 3.8-6.6 3.8-6.6m6.6 3.6v.3zm0 .3.3 1.1-.7 7h-.3s-7.5 9-12.7 13c-3.7 2.6-18.4 1.4-27.9-4.7a31 31 0 0 0 27.9 5.4s3-2.7 12.9-13q-.5 3.4-1.4 7.4s-2.7 10.2-6.5 18.2l2-3.3s9-24 6.4-31.1m-8.4 34.4-1.6 2.5 1.4-2zm-1.6 2.5c-.7 1.3-5 8.2-16.1 24.2 0 0-4.1 7-3.2 11.4 0 0-.3 4.3-2.4 6.4L287 525l-2.8 1.5c-.6.2-6.7-1.2-7.3-1.1s-8.8-3.4-9.4-3.9 0-4.2.3-5.2l1.5-8.8-2 7.6-.6-2s-1 2.2-.9 3.2.3 4.8 1 5.4c.8.5 8.2 3.6 9.4 4a35 35 0 0 0 8.6 1.2q.4 0 1-.4l-.6.6s.3.1 1.3-1l1-.7c.3 1.2.9 3.5.4-.2l3.8-2.6c.8-.7 4.1-2.1 3.7-3-.3-1-.3-4.9-.3-5.4v-3s-.6 2.7-.5 3.3l.6 5.6-6.3 3.8-1.1.7v-.2s2.5-1.4 3-7c0 0-1-3.9 2.7-10.8 0 0 9.3-13 16.4-24.9M273 456a14 14 0 0 1-2.5-6s-.5 1.5-.1 2.8q0 .2 2.6 3.2m-149-47.8.3.1zm190 37q-1.7 5.3-3.1 7.7 2.4-3.3 2.2-3.5c1-2.9 1-4.1 1-4.1M311 453q-1.1 1.5-3.2 3.4s1.3 0 3.2-3.4m-43.4-12.8h-.2zm-90.2-15.9c-1.7-.2-3.5.2-3.5.2 1.9-.2 4.9.2 4.9.2 7.9 9 9 13.5 9 13.5l.9 2.4.1-.8v1q1.9 5.7 2.6 9.1l.4-.4-.3 1c.9 4.6.3 6.1.3 6.1a116 116 0 0 1-2.7 13 103 103 0 0 1 2.6-9v.7-.7c2-9.5-1.5-18.2-1.5-18.2a51 51 0 0 0-11.3-17.6zm14.4 37c0 1.7.2 4.3 0 6.4 0 0-.8 1-2.7 2 .6 0 2.6-.5 3.1-2zm-2.7 8.4-1.1 3.5c-1.2 5.2-1.7 9.3-1.7 9.3-.5-4 0-5.8 0-5.8-11.2-8.6-20.7-6-20.7-6-8.5 3.1-11.6 6.5-12.4 7.7l.4-1 2.4-2.7c-1.4.8-2.6 1.1-2.6 1.1a7 7 0 0 1 2.2-6.8q-1.3 1.2-1.9.8l-.1.2v-.2c-.4-.2-.5-.7-.5-.7l-.6-3.2c.6-2.3 1.5-4.5 1.5-4.5 7-9 12-16.3 12-16.3a10 10 0 0 1 2.2-2.4H167l1.7-.5-.6.5c2.5-.2 6.5-1.2 12-4.5 0 0 1.5-3.4-2.8-9.6 0 0 1 1.9 1 2.6 0 0 2 2.9 1.4 6.5 0 0-3.3 3.3-13.5 4.7 0 0-2.4-1.7-6.9-3.2 0 0-1.4-.4-3.9.6 0 0-3 1.8-5 3.7l-.3-1.5v1.7l-.6.7.7-.6c.1.6.5 1.5.2-.2 1.5-1.3 4.7-3.9 7.6-4.3 0 0 2.1 0 7 3.2l2 .2-.7.2c-6.3 11.2-11.6 15.8-12.5 18.1-.7 1.5-1.2 3.5-1.4 4.7-.7-5-.4-8.7-.4-8.7-.6-7-3.5-14.6-3.5-14.6l-.8-4.3.6 4.7c3 8.6 3.3 16.5 3.3 16.5l.6 7.3v.2-.2l.5 7.6c.5 2.2-.2 4.7-.2 4.7-9.5 16.4-4.9 29.4-4.9 29.4 2.6 3.2 4.5 3.5 4.5 3.5l3.4-1-.5.4c2.2 2.4 4.2 3.8 4.2 3.8 2.6-.1 4.2-1.3 4.2-1.3.3-3.3 0-5-.1-5.6a109 109 0 0 0 16.6-7.9c1 3.5.1 6 .1 6-1.8 1.4-4 1.9-4 1.9-3-2.3-3.6-4-3.6-4l-.6.6c3 3.4 4.1 3.7 4.1 3.7 4.1-1.3 4.5-2.2 4.5-2.2.3-3.4 0-5.9 0-6.4q5.1-3.3 5.2-3.5c2.2-8.2.9-12.1.9-12.1q1-8.3 2.6-14.5m-39-27.7c0-3.3-1.3-4.5-1.3-4.5-2.7-3.4-.8-.8-3-3.5l3.7 5zm3.5 27.8c.5-.8 3.3-4.9 10-11.5 5.7-5.7 13.4-10.4 17-19.4-1 2.1-3.6 6.3-10.3 13 0 0-12.2 9.1-16.7 17.9m27-30.9.6-1.6zm-21.9 33.9q2.1-1.5 5-3c4.4-2.3 14.8-4.8 27.5-18.1l.3-1.2-.1-.6a98 98 0 0 1-8.2 8s-7 5.6-21.3 12.5zm30.1-32-.1-.2a15 15 0 0 1-5.2 8.4c-5.2 4.6-18.7 11-30 25 0 0 1.7-.8 2.6-2 0 0 4-5 22.5-18.8 0 0 9.4-5.2 10.2-12.4M176 471.9c3.4.8 5.5 2 5.5 2 3.9 2.2 4.3 3.7 4.3 3.7a20 20 0 0 0 .5 8.3c.6 6.4-1.3 10.3-1.3 10.3a172 172 0 0 1-32.7 15.2c-4.1-2.2-4.5-3.5-4.5-3.5-2.4-12.2 1.5-22 1.5-22q2.7-5 3.5-7.2c6.1-5.4 9.6-6.7 9.6-6.7a27 27 0 0 1 13.6-.1m95.4 52.4-.3 2s.4 4.5 2.8 12.3a73 73 0 0 1-2.5-14.3M163.2 508c.4 2.3-.2 5.4-.2 5.4-1.6.8-3.6 1.1-3.6 1.1-1.7-.9-3.6-3.5-3.8-3.8zm113 37 2.9 6.9s4.5 5.7 8.2 19.9c0 0-2-10.7-5.2-15.8q-2.6-3.7-5.9-11m-24.6 9.1-1.8-.1s4.3.4 23 8.5c0 0 9.1 4 13.4 12.6 0 0-2.1-5.2-8.7-10.4 0 0-16.2-9.1-25.9-10.6m-95-449.8 1.3-3.2v.5l-1.2 3.2zm.9 1.2c.2-1.2.6-2.2.6-2.2-.2.8.9.2.9.2-1.3.9-1.5 2-1.5 2m-2.2-1.8c.6 1 1.4 1 1.4 1l-1-.6z" style="display:inline;fill:#000;fill-opacity:1;stroke-width:.280585"/>
  <path id="highlights" d="M141.7 72.1c-4.8 11.7 1 18 1 18l-1-11.7c.2-7 1-8.5 1-8.5-1 1.2-1 2.2-1 2.2m4.8 24.7c2.5-2.6 3-4 3-4-1.2 2.8-1.2 5-1.2 5-2.2 2-2.2 2.6-2.2 2.6-.4-1.6.4-3.6.4-3.6m16.5 10.4c3.1 6.1 4.8 7.6 4.8 7.6-2.1-3.4-1.5-4.4-1.5-4.4q-3.4-3.1-3.3-3.2m-4.2 10c-2.8.4-1.9 1.8-1.9 1.8 1.7-.7 2-1.9 2-1.9m33.6-38.7c7.4 3.5 9.2 4 9.2 4-4.8.1 3.9 7.5 3.9 7.5A95 95 0 0 1 187 73.6zm27 41.2c.8 15 1.4 15.8 1.4 15.8 3.2-1.4 4.1-5.4 4.1-5.4-2.8 3.8-3.7.3-3.7.3-.9-3-1.8-10.7-1.8-10.7m-8.6 34c-7 7.6-7.6 10.6-7.6 10.6 2.8-2.5 5.2-6 5.2-6 1.1-1.4 2.4-4.6 2.4-4.6m-17-2.3c-8 16.2-8 23-8 23 0 5 .6 6.2.6 6.2 1.3-9.7 3.7-12.5 3.7-12.5-2.6 1.7 3-12.5 3-12.5.6-2.3 3.6-6.9 3.6-6.9-.5.1-2.9 2.7-2.9 2.7m14.4-7.9a129 129 0 0 0-6.3 18.2c7.3-12.9 13.2-19 13.2-19-8.4 7.6-5.2-2.7-5.2-2.7-.8 1.4-1.7 3.5-1.7 3.5M139.8 269l16.4-30.4c1.8-.8 1.5.4 1.5.4-7.2 11.3-14 23.5-14 23.5zm18.1-34.3a233 233 0 0 1 7.5-15.3c.6.3-1 4-1 4-1.8 2.8-5 9.5-5 9.5-.3 1.1-1.5 1.8-1.5 1.8m-53.7 48.6c5.2-2.6 8-3.4 8-3.4-3.5.4-1.8-2.6-1.8-2.6-2.7 3-5 4.4-5 4.4-1.2.5-1.2 1.6-1.2 1.6M66.5 308c-6.3 9-8.2 9-8.2 9a33 33 0 0 1 4.6-6.4c1-1.4 3.6-2.6 3.6-2.6M262.8 97.8c7.4-1 6.8 4.1 6.8 4.1a77 77 0 0 1-10.5 27.1c8.7-19.4 8.5-26.4 8.5-26.4-5.2-.7-9.2 2.3-9.2 2.3 7.2-4.6 4.4-7.1 4.4-7.1m-6.2 69.3c-5 11.4-10.7 22.7-10.7 22.7l5.4-9c1.6-5.6 5.3-13.7 5.3-13.7m-10-13.5c-12.5 14.3-26 27.3-26 27.3-4.6-1.1-7.2-4.2-7.2-4.2 4.3 1 14.5-5.5 14.5-5.5 15.4-15.5 16-21.4 16-21.4 8.3-4.3 9.3-5.6 9.3-5.6-.9 1.8-6.5 9.4-6.5 9.4m25.9 47a305 305 0 0 0 8.9 51c1.9 8.1-.3 4.4-.3 4.4-9.2-34.4-9-52.4-9-52.4zm-21.4 22c8.5 13.7 10.4 14.6 10.4 14.6-4.6-6-10.5-19-10.5-19 1.2 2.5 0 4.4 0 4.4M224.8 266c16.1 13.2 27.9 18.7 27.9 18.7-6.9-4-12.5-8.9-12.5-8.9-12.5-8.6-20-16-20-16zm49.2 3.4c9.1 17.4 9.3 20.4 9.3 20.4-3.1-1.6-3.2-3.1-3.2-3.1-3.2-10.2-11.4-24-11.4-24 3.2 3.6 5.3 6.7 5.3 6.7m-25.2-19.7a46 46 0 0 0-12.3-27.8c12.3 18.8 7 16.7 7 16.7 5.6 8.3 4 17.4 4 17.4-.1-2.7 1.3-6.3 1.3-6.3m25 38A297 297 0 0 1 247 267c20.3 16 21.6 15.2 21.6 15.2 9 7 5 5.6 5 5.6M157 283.2c18.6 3.3 30.3 7.1 30.3 7.1a252 252 0 0 0-23.8-4.5c-8.6 1.4-12.6 2.5-12.6 2.5 3.4-2.3 6-5 6-5m-66.7 10.4c4.4 4 7.4 2.5 7.4 2.5-3.5-.4-7.4-2.5-7.4-2.5m39.4 12.3c-8.3-8-11-6.4-11-6.4 6.4-.7 11 6.4 11 6.4m28.3.3c-11-3.2-8.5-.6-8.5-.6-4.4-4 2.8-2.1 2.8-2.1a73 73 0 0 1 16.6 5.5c-4.4-1-10.9-2.8-10.9-2.8m-27.4 16.4a219 219 0 0 1-31.2-15.6c11.6 7.3 14.7 9.8 14.7 9.8 7.8 3 16.5 5.8 16.5 5.8m185.6 37.6c-16.4-2-41.7 4.3-41.7 4.3 36.5-6.9 37.8-6.4 37.8-6.4-1.6-3-6-4.6-6-4.6 4.9 1.7 9.9 6.7 9.9 6.7m-10.2 9.5c-9.8-1-18.4.3-18.4.3 10.1-2.2 18.4-.3 18.4-.3m-5.3 5c-17.4 4.8-35.3 9.5-35.3 9.5l21.4-4.6c10-2.5 14-5 14-5m7.4-33c-15.4-8.7-20.4-15.3-20.4-15.3a52 52 0 0 0 20.4 15.2m-19.4-.8c-27-10.5-16.7 1-16.7 1-7.6-9.6-1-8.6-1-8.6 9.3 3.4 17.7 7.6 17.7 7.6m-165.8 18.7c11.4 14.4 8.6 19.3 8.6 19.3-9.6-3.8-17-9.8-17-9.8 16 5.3 13.3 1 13.3 1a51 51 0 0 0-5-10.5m191.5 26.7a199 199 0 0 1-3.5 40c-7.2-2.6-7-5.7-7-5.7 6.9-.1 10.5-34.3 10.5-34.3M151.9 492c5.9-8.5 8.8.1 8.8.1-1.9 10-7.7 12.7-7.7 12.7 5.6-9.6 1.8-7.7 1.8-7.7 1.6-8.5-2.9-5.1-2.9-5.1m137.6 43.7-1 22c0 5.4-1.2 7.8-1.2 7.8-2-9.2-6-13-6-13 7.2 4.8 6.1-9.6 6.1-9.6.8-4.4 2.1-7.2 2.1-7.2m-8.2 37.5c-9.4 1.3-7.1 5.1-7.1 5.1 8-1.5 7.1-5.1 7.1-5.1m-93.2-120.7c-3.3 9.7-1.4 13.5-1.4 13.5 3.2-6.6 1.4-13.5 1.4-13.5m22.4-240.1c-16.2 28-50.9 60-50.9 60 33.4-30.2 43-44.2 43-44.2 3.5-8.3 8-15.8 8-15.8m19-24.6c-4.4 2.2-5.3 7.4-5.3 7.4 6-2.8 5.5-3.4 5.5-3.4zm-11.8 6.4c-5.1 12.4-8.2 14.3-8.2 14.3-4 .7-5.8-.6-5.8-.6 5.5-.5 1.5-2.5 1.5-2.5 5.1.3 6.3-2 6.3-2 3.2-5.3 6.2-9.2 6.2-9.2m-9-15c-2 6.3-1.7 10-1.7 10 1-4 3-6.6 3-6.6-1.2-1.4-1.3-3.4-1.3-3.4m-5.3-130c7.3 10.8 6.2 17 6.2 17-3.5-2.4-7-4.5-7-4.5 6.6 2.7 4.5-3.1 4.5-3.1-3.8-7.4-10.6-10.7-10.6-10.7 3.8.5 6.9 1.3 6.9 1.3m-14 3.3c-8-1.5-9.1 2.7-9.1 2.7 11.9 3.8 15.6 1 15.6 1a48 48 0 0 0-6.5-3.7m1.7 45.3c4.8 8.7 2 15.5 2 15.5-2.7 2.1-4.9 1.5-4.9 1.5 2.8-1.7 4.5-6.3 4.5-6.3-.8-7.6-4-12-4-12 1-1.6 2.4 1.3 2.4 1.3M171.6 124q1.3 1.8 1.4 1.7l-.4-1.8q-.9-.1-1 .1" style="display:inline;fill:#fff;fill-opacity:.488559;stroke-width:.280585"/>
  <g id="crown" transform="rotate(10.7 106 306.2)scale(.9395)">
    <path id="path96" d="M100.5 79.6 71.8 55.7l-.2-.2 4-2.9c7.7 3.5 10.2.4 10.2.4-3.2-5.7-4.7-7.5-4.7-7.5l2.2-3.3c6 2.4 6.7-.7 6.7-.7 1.7-5.7-4.2-11.5-4.2-11.5 7.7 5.4 9 1.8 9 1.8-1.3-6.8-4-10.8-4-10.8l2.2-1.3c8 5.5 9.8 5.7 9.8 5.7 7.7-.6 5.5-7.9 5.5-7.9-1.6-5.8-3-9-3-9 11.4 8.9 13.2 7.6 13.2 7.6 2-.2 3-1 3-1-.2-8-2.2-10.9-2.2-10.9l3.3.4c8.7 7.5 12 8.7 12 8.7C138.3 11 132.4-1 132.4-1l3.5-2.4c.7 1 18.8 35.3 18.8 35.3-26-4.2-43.5 21.7-43.5 21.7-10.6 14.4-10.7 26.1-10.7 26.1" style="fill:#edbe00;fill-opacity:1;stroke-width:.264583"/>
    <path id="path95" d="M100.7 77.5a63 63 0 0 1 40-45.5c7.9-2.6 14.8.2 14.8.2L136-3.3c15.6 34.3-12.6 7.8-12.6 7.8 7.5 27-10.3 26.7-18.1 24.6s-14-8.5-14-8.5C107 56.1 81 45.3 81 45.3c17 22.1-9.4 10.2-9.4 10.2l29 23.9L73 55.6c21.8 8.5 13-4.1 13-4.1-.8-1.3-4.3-5.7-4.3-5.7 27 9.3 10.1-23.9 10.1-23.9 27.3 19.3 33 1 33 1 2.7-9.2-1-17.2-1-17.2C146.2 24 141 8.6 141 8.6l-1.9-5.7 15.1 28c-21.4-3.6-43.4 21.6-43.4 21.6-10 14.4-10.1 25-10.1 25m-2.6-3c12-43.3 48.3-47 48.3-47l.5.2c-32.6 11-39 26.2-39 26.2-10 16.4-9.8 20.6-9.8 20.6m-25.8-20 3-2.2c9.7 3.8 10.5 0 10.5 0l-.1 1.3c-4.8 1.6-10.2-1-10.2-1Zm8.7-9.9c2.2-2.9 2.1-2.5 2.1-2.5 14 4.2 13.2-5.6 13.2-5.6 0 5.6-2.2 6-2.2 6-5.2 1.4-10.9 0-10.9 0zm10-24 1.8-1c35 23.3 28.2-9.1 28-11.1-.5-2-1.5-4.2-1.5-4.2h3.9l-3.4.4c6.2 18.3-2.9 22.9-2.9 22.9-9.2 1.6-18.1-4-18.1-4L93 19.9zm44.5-24c-3.5 1.8-3.5 2-3.5 2 6.3 14.2 3 14.6 3 14.6 2.7-.8.4-7 .4-7a50 50 0 0 0-2.5-7.2zM104 25.3c8.7-.3 1.3-16.7 1.3-16.7 10.2 9 16 6.5 16 6.5-2.3 5.5-15.1-5.2-15.1-5.2 6.3 12.3-.1 15.4-.1 15.4-.7.4-2.1 0-2.1 0M95 32c-5 2.2-9.4-2.5-9.4-2.5 7.8 10 3.3 13.4 3.3 13.4 4.7-3.6-1.9-12.3-1.9-12.3 6.3 4.3 8 1.4 8 1.4" style="display:inline;fill:#000;fill-opacity:1;stroke-width:.17485"/>
    <path id="path97" d="m77 58.5 19.4 16.8c3.7-13.4 7.9-18.1 7.9-18.1-8 14.8-8.6 6.7-8.6 6.7-3.8 7.5-5.3-.3-5.3-.3C86.2 66.9 87 59 87 59a10 10 0 0 1-9.8-.5m38.4-26.7c17.2-4.2 9.5-24.5 9.5-24.5 3 21.2 8.6 17.7 8.6 17.7-6.4 6.4 6.2 3.1 6.2 3.1-22.4 9.3-23.5 13.4-23.5 13.4 17.3-16.8-.8-9.7-.8-9.7m26.9-21.2 8.8 16c-6.8-.3-12 .6-12 .6 9.2-5 1.2-10.8 1.2-10.8 2.9-1 2-5.8 2-5.8" style="fill:#fff;fill-opacity:1;stroke-width:.264583"/>
    <path id="path98" d="M83.3 47c19.9 5.6 13-14.3 13-14.3C94.6 28.1 93 23 93 23a38 38 0 0 0 13.5 7.5c-10.8.7-1.7 3.1-1.7 3.1-12.4 14 0 6.6 0 6.6-9 16.4 3 4.2 3 4.2-5.1 12.2 4.2 1.4 4.2 1.4a152 152 0 0 0-12.6 17.8c8-16-2-8.6-2-8.6 3.6-9.3-9.4-.6-9.4-.6 6-6-4.7-7.5-4.7-7.5m2.5-4.3c7.9 2 .8 4.2.8 4.2 12.4.4 9.7-9 9.7-9-3.5 6.7-6 4.7-6 4.7zm23-22.2c.8 5.3 6 3.2 6 3.2-3.6 3.3 4.5 1.1 4.5 1.1-3.7 4 3.3.8 3.3.8C116.2 32 109 30 109 30c8.4-.8-2-2.8-2-2.8-3.4-.9-5-2-5-2 7-.2 6.9-4.7 6.9-4.7m25.5-7.3c4.3-1.7-1.5-13.4-1.5-13.4C139.5 10.2 139 3 139 3c4 12.4.5 11 .5 11-.5-8.8-2.3-4.2-2.3-4.2.3 3.5-3 3.5-3 3.5m-20.1 32c9.5-7.8 4.7-.4 4.7-.4 12.6-11 25.6-14.3 25.6-14.3-9.2 2-2-1.5-2-1.5-20 9.2-28.3 16.1-28.3 16.1m-35 8c6.3 2.5-2.1 4-2.1 4 10.2 2.7 9.8 0 9.8 0 .6-3.1-.5-4.8-.5-4.8-2.7 2.8-7.1.8-7.1.8m36-37.7c5.7 4.4 5 7.9 5 7.9 3.3-9 5.3-3.7 5.3-3.7.9-7.8-1.7-12.6-1.7-12.6.4 8.2-2.9 4-2.9 4 1.1 3.3.7 4.4.7 4.4-3.6.6-6.3 0-6.3 0" style="fill:#000;fill-opacity:.355828;stroke-width:.264583"/>
  </g>
  <path id="weareall1" d="M224.9 239.6v-1.3l1.8.7q.9.4 1.5.3t.6-1.6l-.6-16.4-1.8 1.6q-.8.5-1.6.2-.6-.3-1-.9t-.4-1.4h1.7q.9-.1 2.2-.7l1.8-.8 1.7.7.8 18.9q0 1.5.7 2.2.6.6 1.6 1l1.3.6v1.3z" aria-label="1" style="font-size:28.907px;font-family:&quot;Noto Serif Kannada&quot;;-inkscape-font-specification:&quot;Noto Serif Kannada, Normal&quot;;fill:#f9f9f9;stroke-width:.150558"/>
  <path id="aura-color" data-trait-name="aura color" data-trait-color="primary" d="M54.2 329c.3.8-5.5-5.3-4.3-7.7.8-1.7 3-2.5 3.4-4.4.4-1.3-.7-3-2.2-2.5-1 .2-2.5.4-2.5 1.8 0 2 2.1.6 2 .7-1.7 1.2-4-1.7-3.5-2.5 1-2 4.9-5 5.3-6.8.5-2-.8-4-2-5.5-.5-.6-.6-1.7-1-2.2-.7-.6.2-1.8.5-2.4.1-.3.4-.1.7-.3 2-1.4 6.8-3.3 6.2-6.2q0-.7-.4-1.5c-.3-.3-1.9-.4-1.4-.2.8.4 2.3 1.2 1.8 2.6-.5 1.6-3.1 2-3.1 4 0 2.6 5.8.9 6.8-.4 3-4-2.2-5.5.1-7q1.5-1.3 3.1-2.3c2.8-1.4 6.8-1 9-3.8 1-1.2 1.3-2.8-.2-3.5l-1-.2q.2.3.6.2c.4.1 1 1.2 1.1 1.5.4 1-.4 1.9-1 2.5-2.4 2.4-7.8 4.6-7 8.6.4 2 3.6 2.9 4.8 1.3.7-1-.7-3.8-1.3-3.8l.7 1.2c.2.6.9.8 1.1 1.3.6 1.2-2.7 3.6-3.5 4-1.3.7-6 3-4.9 5.2q.4.7 1.3.7 1.6.4 2.2-1.3s0-1.7-.4-1.3l.4.8c.1.4 0 1.3-.2 1.6-.4.6-2.2 2.4-1.3 3.3.3.3 3 .7 3 0l-2.4 2c-.8.9-3.3 3.8-3.7 3.8s-1.3 2.3-1 1.9q0-.3-.3-.4c-.3 0-.7 1.6-.9 1.8-.1.1-1.6 1.7-1.3 2l-2 5c-.2.6.3 1.6 0 2.2q-.6 1-.7 2.1c0 .6.5 1.4.4 1.9-.3.7-1.1 1.4-1 2.2l1.3 1.4h.2l1.8 3.5q.3.4.2.5c-.6 0-2.2-2.7-2.7-3.2-.3-.3-.7-2.1-.8-2.2m86.5-63.6c-.4-.5-1.1-.6-.7-2.2s2.7-2.2 3.2-3.9c.7-1.8-1.7-3.1-3.2-2.3-.6.4-1.2 1.1-.6 1.7.2.2 1 .7 1.4.5.2 0 .7-.4.5-.4-.6 0-.5.6-1.3.3q-.9-.3-1.3-1c-1.2-2 1.7-3.1 2.3-4.2.5-.7 1-2.1.7-3-1.2-3.7-6.4-7.8-5.6-12 .6-3 5.7-3.1 7.8-4.9 2-1.6-1-3-1.2-2.7l1 .7c.5.4.2 1 0 1.5-1.1 1.6-3.6 1.8-4.6 3.4-.7 1-1 2.7.5 3.2l3.8 1q1-.2 2-.7c1.4-.6 2.4-1.3 1.7-3-.3-.7-1.5-1.4-1.5-2s1.2-.8 1.5-.8-.6.3-.9.5q-.7.7-.1 1.6c.7 1 2.8 1 2.8 2.6 0 2-1 2.4-2 3.6-.2.2-.5 1.4-.4 1.6s.7.8.7.5h-.3q-.2 0-.3-.4c-1.2-3.4-5.3-2.5-6.9.2q-.5 1 .2 2l1 2.5c.8 1.3 4 1.3 5.2 1 3.5-.9 8.2-5.5 6.6-9.5q-.4-1.2-1-2.1c-1.4-1.7-3.6-2.1-2.4-4.5.6-1.2 1.6-1.6 2.3-2.6l2.2-3.2q.6-.8 1-1.7c.2-2-.6-4.3-2.3-5.5-.9-.6-2.2-.5-2.7-1.8-.8-2.6 2.1-3 3.5-4l.8-1.1c.8-1-1.6-2-1.4-1.8l1.3.9c1 1-2.6 2.7-2.4 3.7.4 2 4.3.9 5.2 0 2.6-2.6-2.3-3.8-.5-6.3a11 11 0 0 1 2.3-2.5c1-.7 2.7-.7 2.7-2.3q0-.7-.2-1.2h-.3c0 .4 1.3.5 1 1.3-.4 1.4-3 1.8-1.6 4.6q.2.7 1 1h.5c.9.2 1.5-.7.8-1.4l-.7-.4c0-.1 1.8.3 1.3 1.7-.3 1-1.9 1.6-2.6 2.5q-.5 1-.6 1.7-.4.6-.3 1.2c.5 2.1 3.1 1.8 4.2.2 0 0 .6-1.2.4-1.2v.9q-.6.8-.7 1.9c0 .4.3 2.5.1 2.7-.2.4-.8.6-1 1-.3.9-.2 2-.6 2.9l-2.1 3.2.3.4s-.8 1-1 2.3l.2 1.2c-.7.6-1.1 3.2-1.3 3.2l-.5-.1c-.8.2-1 2-1.6 3q0 .4-.2.6c-1.9 1-1.1 2.8-2 3.6q-.7.5-1.3 1.2c-.6.8-.9 2-1.4 2.7q-.4.4-.8 1.2c0 .2 0 1-.2 1.1q-.5.6-.8 1.6l-.1 1-.7 2.2-1.6 2.6-1.9 4c-.6 1-1.7 1.6-2.3 2.6-.2.2-.7.9-.4.9q.3-.2 0-.4l.3 1.4q-.1.2-.4.1c-.5.3-.3.6-.4 1-.1.3-.8-.9-1.1-.6-.6.5.6 2-.3 2.2q-.8.5-1 1.3l-.7 1c.3 0 1.7-3 2-3.4s0-.7 0-1m27.9-57.3c-1.9-1.3 2.1 1.8-1-.8q-.7-.6-.7-1.4c-.7-3.5 1.5-3.7 3.2-6l.6-.7c.4-1.5-.3-3-1.8-3.3-.8-.2-2 .3-2.3 1.2-.1.5 1.2 1.4 1.2.9 0-.3-.6 0-.8-.1-.5-.2-.9-1-1-1.3-.7-1.3 4-2.5 4.7-3.8 2-3.2-1.2-5.3-1.2-8.4q.2-.7.6-1.3.5-1 1.3-1.9c1-1 2.9-.7 4-1.8.5-.5.9-1.4-.1-1.7-1.7-.4 1.6.6.2 2-1 1-3.6 1.1-3 3.8.2 1.3 3.1 2.1 3.5.8.5-1.4-1.4-2.5-1.4-2h.4l1 .5s.5 1 .4 1.2c-.2.9-1.2 1.4-1.4 2.2-.4 1.9 1.8 3.7 3.5 3.1 1.9-.6 1.3-4 1.7-5.4.3-1.2 4.2-.7 3.6-2.4-.1-.4-1-1.2-1-.8 0 .2 1.2.3.6 1.5-.3.7-1.5.5-2 1q-.2.7 0 1.2c.3 1.1.4 1.8 1.7 1.8.6 0 1.2-1 1.3-1.2v-.6q0 .5-.4 1c-.8 2.6-1 2.1-3.3 4.3l-3 3.3q-1.3 1.7-2 3.6l-1.5 2c-.2.4-.4 1.6-.7 2q-1.2.9-1.8 2.2l-.7.6c-.7 1.3-.1 2.4-.5 3.1l-.5.2c-.2 0-.5 1.1-.5 1.1q-.6 0-1 .3.1.6.4 1.1c.2.6-.4 1.6-.7 2l-.2.5q-.2-.2-.4 0c0 .3.7.8.6 1.2q-.3.1-.4 0c-.2.1-.2.9-.2.9.4 0 0-.6 0-.7-.2-.8.5-2 .7-2.7.3-1-.3-1 .3-2.3m3-131.1c-2.2-1.8-1-1.7.6-4.2q.9-1.3-.7-1.4c-.2 0-1.4.7-1 1 .4.5 1.1 0 .9.2-.6.6-1.7-1.2-1.2-1.7 1.1-1 3-1.5 3.9-3.2.6-1.2-1.9-4.7-.8-6.4 1.2-1.7 3.4 0 5.2-.9.4-.2.9-.8.4-1.1q-.4-.3-.5-.1c0 .6 1.3.6.1 1.4s-3.6-.2-3.6 2q0 .8.8 1.5c1 1 3.7.1 4-1.3.3-.8 0-2.1.5-2.7q.7-.9 1.5-1.2c2-1 5 1.4 6.6-.6q.2-.4.1-1l-.5-.3c-.3-.4 1.2 1.5.2 2-1.3.6-2.2 0-2.6 1.6q-.3.3 0 .6.7.8 1.8.8c3.5 0 3.4-4 5.3-6 .7-.6 2.4-1.2 3.3-.7 1 .5 2-.5 1.7-.5l-.1.4-.7.2c-1.5.4-2.6-.4-3.8 1.3q-.3.3-.4.8 0 .8.9.9c.7.2 1.7-1.7.8-1.7l.2.4q.1.8-.5 1.2c-1.3.8-2.6 1.3-3.8 2.4-1.2 1.2.1 3-1.8 4.3-.5.4-1.7 1-1.4.6l1-.8c.6-.9-.5-2.3-1.5-2.4-2.4-.4-5.7 1.4-6.3 3.9-.4 1.3 1.7 2.6 2.7 3s3.8.8 4.4-1c.4-1.1.7-2.2 2.2-2.2 1.3 0 3.2 0 3.8-1.4q.3-.3.2-.6s-.8-.5-.8-.3l.4.4c.4.8-.7 1.6-1.3 2-.8.3-3.2 0-3.6.8-.3.7-.2 2.1-.5 2.5-1 1-2.4.6-3.1 2s1.6 2.9 2.7 2.5c1.4-.5-.4-2.6 1-2.6 0 0-1 1-.8 1.6 1 3 1.5.9.2 3.6-.3.5.4 1.8.4 1.7-.4-.4-.4-1.3-.8-1.7-.1-.1 0 .5-.3.4l-1-1.3q-.2.2-.5.2c-.8-.7-1.2-1.8-2.2-2.3-.3-.1-.2.4-.4.3-2.4-1.2-3.4-1.6-6-.7l-1 .8c-.4.1-.7-.5-1-.3l-.5.7h-.7c-.3 0-.2.4-.5.5l-.6.1c-.3.3-.9 1.9-1 2m18.1 3 .3-1.7.4-1.2c.4-1 4.5-1.2 5-3 .2-.8-1.1-1.5-1.7-1-.9 1 .2 1.6.2 1.3 0-.2-1-.5-.7-1 1-2 5.2-1.4 7-2.2 1.1-.6 1-2.4 1.5-3l1-.4v-.1c0 .3-.7.4-.8.5-.3.3-.7 1.2-.8 1.5V71a7 7 0 0 1-1.3 3.4q-.8.9-2 1h-.7l1-.3c.7-.4.4-1.3-.1-1.6-1.5-1-5.3 3.3-3.9 4 .6.3.7.3 1.3 0 1.3-.7.3-1.5.3-1.5q.1.3.4.4c.7 1.5-3 2.2-3.7 3.3q-.5.9-.3 1.9c0 .6-.1 1.9-.7 2.5-.3.3-.8 1.4-.5 1.1.2-.2.1-1 0-1.3l.1-.2-.2.6v-1.4c-.3-.6-.4.6-.6.4q0-.5-.3-1c-.2 0-.3.8-.3.6 0-1.2-.6-1.5.1-2.7m23.8-10.3c-.3-.8-2.6-5-.3-7.3.8-.7 2.6.5 2.4 1.3-.1.3-.7 1-1 .7l-.3-.2c-.1.1 1.1.2 1.3.2 1.3 0 2.2-2 1.6-3-.7-1.5-3-4.2-2-6 1.6-3.1 6.9-3 7.9-7 .3-1.3-1.3-2.1-1.3-1.9l.2.1q.5.5.5.8c.3.6-.3 1.9-.7 2.2-1.1.7-4 .5-3.5-1.6.2-1 1.1-1.6 1.8-2.3.6-.5 1.5-3.2 1.5-4q0-.9-.4-1.8c-.3-1.2-6-3.8-7-4.5-.3-.2-.8-1.1-1-1.4-1.8-4.5 4.1-5.3 5.5-8.6.3-.9.3-2.2-1-2.4-1.1-.2 1 .4.8 1.7s-1.7 1.7-2.7 2.4l-2 .8c-2 1-6.8 2.8-5.7 6 .2.6 1.4 1.1 2 1.4.4 0 1-.1 1 .2 0 .8-2-1.3 0-1.3a5 5 0 0 1 3.3 1.3c2 2 1.7 4.3-.9 5.6-1.7.8-4.5 1.2-6-.7l-.3-1.5c-.3-1.5.8-1.8 1.1-3q.1-1.2-1.1-1.3c-.3 0 .7.8.4 1.6-.3.5-1 1.3-1.6 1.5-1.2.4-5.5.8-4.8 3.1.4 1 0-.6.3-.9q1.3-.8 2.8-.5 1 .3 1.7.8c.7.7.8 2.8-.4 3-.7.2-2.7.6-3.3.5-1.7-.5-4.1-2-3.1-4l1.1-3.7q-.2-.7-.9-.7l-.2-.2.3.5c.1.3.2 2 0 2.1-1.6 1.6-2.2 1.2-3 3.6l-.3.8c.4.4 1.9.7 2.4 1s1.2 1.5 1.6 1.5c.2 0 .2-.4.5 0q.4.5.5 1.1c.2.5 1 1 1.2 1.4.5 1 0 2.7.6 3.8l1 1c.8 1.7 2.4 5.5 1.9 7.5q-.3.8-.3 1.7c0 .3-.2-1 .5-1.3.4-.1 1 .7 1.2.9.4.4.5.4.8 1q0 .5.2.7l.2-.3c.2 0 .9 1.4 1 1.7.3.7.2.9.4 1.6l.8 1.2c.3 1.2.4 2.3 1.2 3.1q.2.4 0 .4c0 .8 3 4.4 3.7 4.4 0 0-.7-.7-1-1.3a7 7 0 0 1-1.1-3.5m4.6 59.3c.4-.4-.3-2.8-.9-4.5-.3-1-1.9-1.5-2.8-1-.5.2-.8 1.3-.1 1.7.6.3.6-.7.7-.7.2 0 0 .6 0 .7h-.6c-1.6 0-2.2-1.9-1.8-3.3.5-2.1 4.6-6 4.1-8-.3-1.2-2.2-2.5-3.3-1.4q-.4.5-.4 1.2c-.4 2 2.4-.8.6 1-.9.9-2.6-2.4-2.4-3.2.3-1.2 2-2 2.4-2.9l.7-.9q.3-1.8-.2-3.6c-.7-4.3-2.2-4.1 0-8.7.4-.6 1-1.5 1.7-1.8 1.2-.4 4.6-1.7 3.4-3.3q-.4-.6-1-.7l.9 1.2c.6.6.4 1.6-.4 2-2.1 1.3-4 2.3-4 5.1q-.2 1.4.6 2.6c.4.5.8 1.5 1.4 1.7 1.8.4 3.9-.5 3.9-2.6 0-1-1.3-1.6-1.4-2l-.3-1.2q.1-.9 1-1c.7 0-1.5.9-1 1.9l1.2 1.8.8.6c1 2-3 5.4-2.5 7.1l.5.5q.6.8 1.7.5 1-.3 1.7-1.2c4.6-4.7-2-9.1-.3-12.7 1.7-3.4 6.2-4.4 8.4-7.4 1-1.3 1.8-3.5.8-5-.6-.9-1.2-1.2-1.6-2.2-.2-.9 2.5-2.1 2-1.8l-1 .5q-.4.3-.7 1c-1 1.6 2.5 1.7 3.1 2.2l.9 1.2c.9 1.8-3.2 3.4-2.6 5.3.4 1.2 3.3.2 3.8-.6.7-1.6-2.6-2.4.2-3.4.1 0-1.4.7-.7 1.5.2.4.4 1.2.7 1.5.2.2 1.5.9 1 1.5q-1.5 1.2-2.8 2.9-.3.7-.9 1.4s-.2.5-.4.5c0 0 .2-1.4-.4-2-1.8-1.7-5.3 1-6.3 2.6-.7 1.3 1 2.7 2 3s2-.2 1.9-.1c-.5.9-1.5 1.5-2 2.4-1.3 2.7-3.4 5-5.1 7.7-.5.6-.4 1.7-.8 2.4q-1.6 3-2.6 6.2c-.1.7-.7 4.5-1 4.8l.2.4.2 1.7c0 .5-.4 1-.3 1.5l.4 1c0 1.5.2 2.9-.3 4.4m19.7-42.7q-1-1.4-1-3c0-4.5 7.5-2.6 8.2-6.3.4-1.9-1-2.1-1.1-3.4a6 6 0 0 1 .7-3.9c3-5 11-3.3 15.7-5.6l.7-1c1.1-1.5-.3-2.6-1.8-3-1-.1-2.7.1-2.7 1.5 0 .6 1.6.8 2 .8s.6-.7.5-.7v.3c-1.1 1-2.5 0-3-1-.6-1.2 2.5-2.9 3.2-3.1 2.9-1.1 6 .1 9-.8 2.2-.6 2.9-2.6 4.5-3.9C274 52 276 52 277.8 52c.5 0 2 0 2.3.5 1.4 2-1 5-3.2 5-.6 0-.8-.8-.5-1 .2-.3.2.6.4.7h1.1c1-.2 2.1-2 1.3-2.7-1.9-2-4.3-.9-6.4-.3-1.4.4-4.2 3.1-2 4.3.9.4 2 1 2.8-.1.5-.8-.4-1.5-.2-2.2.2-.6.7-.4 1-.7l.2-.1c0 .5-2 1.3-1.4 2q.8 1 .6 2.5c-.5 2.8-4.3 1.8-6.2 2.6-.3.1-2.6 1.8-1.8 1.8v-.7l.4-.5c1-1 3.6-.7 3.6-2.7q0-1-.9-1.4c-3.5-2-9.2 3-7 6.7 1.8 3 6.6 4 9.6 2.2 2.4-1.5 3.1-4.5 5.8-5.7l1.6-.4c1.4-.1 11.5 1.3 9.4-3q0-.2-.3 0c-.2.2.3.8.3 1l-.4.6q-1 1.7-3 2c-2.5.6-4.4-.3-7 .9q-1 .2-1.8.6c-1.6 1.2-1.4 2.5-2.2 4q-1.2 2.8-3.7 4.7a8 8 0 0 1-5 1l-.8-.5c-1-.3-3.4-.2-3.8 1s.4-.7.8-.9c1.2-.6 3-.4 3.9-1.5s-.9-2.8-1.8-3.1q-1.4-.6-3-.6c-2.7 0-8 2.6-6.4 6.1q.7 2.4 2.4 4.3c2.3 2.2 7.9 3.3 10.9 1.8 3.5-1.8 3.1-6.7 7-8.7 3-1.5 6.2.7 9.6-1.3 2.5-1.4 1-2.5-.6-3.3-1.2-.6-2 1.8-1.3 1.8l-.3-.4.2-.4q.4-1 1.4-1.4c1.8-1 4.5.3 6.4.5q2 .2 3.8-.5.4 0 .9-.4l.5-1.8-.4-.4c-.3 0 .3.5.3.8 0 .6-.1 2-.4 2.6-1.4 2.7-3 4.8-6 5.6-3 .9-5.9-.5-8.7-.9q-2.2-.2-4.3.3l-.8.4q-2 .3-3 2c-.5.5-1.3 2.2-1 3s.3 2 .8 2.6c2.5 3.4 8.2 4.1 12.1 3.4q.5-.2.8-.6c2.2-1.4 1.1-4.1 3.1-5.8q1.7-1.2 3.8-.9s.9-.1.9.2l-.6-.2-1.6-.1c-1.4 0-3.2 2-3.8 3.1-1.2 2.5 1.8 4.1 2.3 6.3.2.8-3 4.1-3.4 5-1.3 2.3-.5 5.9 2.5 5.9q.8 0 1.3-.3c.7-.5 2.2-1.7 1.2-2.6-.2-.1-1-.3-1-.7 0-1.6 4.6-2.2 1.5-.7l-.3.7c-1.6 2.2 2.3 2.4 1.7 3.6q-.6.7-1.4 1.3a7 7 0 0 0-1.5 5.1c.1 1 .7 2 .7 2.9 0 .2-.5 2.3-.7 2a18 18 0 0 1-1.7-3.4v-.3q-.3.2 0 .4l-.7-1-.9-1.3-1.1-1c-.3-.4 0-1.2-.2-1.6-.2-.9-.2-.2-.6-1q-.3-.5-.4-1.2c-.2-.4 0 .5 0 .2 0-1-1.4-2-2-2.7l-.2-.7c-.8-1-2.7-1.3-3.9-1.7l-4.4-3.3s-.6-1.2-.9-.9c-.2.3.7.4 1 .4.8.1 2.2.1 2.8-.6 1.3-1.8-1-4-2.5-4.8-1.9-1.2-5.7-2.6-8-1.4-.8.4-1.6 1.6-1.3 2.6l1 .9q-.2-.3-.7-.3l-1.4-.6h-.6q-.2-.5-.7-.7-.8.1-1.4-.1c-.6-.3-.5-.6-1.3-.8l-2.2-.1c-.3 0-.4-.5-.7-.5-.8-.2-1.7.2-2.4 0-4-1.3-7.7.6-11 2.3l-1.3.4c-.8.4-1.5 1.2-2.5 1.4q-.6-.2-1.1-.1c-.5.3-.3 1-.5 1.4l-1.7 1 .9-.9c.5-1 0-1.3 1.3-1.5m75 155.5.8-2.9c.7-2.7 1-9.8 5.7-8.2.8.3 1.1 0 1.8.8.7.7.5 2 0 2.5-.3.3-1.8.3-2-.2v-.5c-.4 0 0 .7.2 1 .8.8 3.1.1 3.6-.8 1.7-3.4-4-7 1-10.3 3-2 7.5-3.5 8.8-7.2.9-2.6-2.2-4.3-1.5-7 .2-.9 3-2 3-2 0-.8-3.1 1-3.3 1.2l-.5 1.6c-1 2.7 2.6 5.4.2 8.5a7 7 0 0 1-9.8 1.8 5 5 0 0 1-2-2.6c-1.3-5 6.8-1.7 9-5 .2-.1.7-.9.5-1.2-.7-1.5-2.6-1.9-2.6-3.9q0-1.7 1.6-2.6c.1 0 .6-.4.5-.2-.8.8-2.1.6-2.6 2-.6 2 3.6 4-1 5.2-2.6.7-6.3-3.3-4.7-4.9 1.3-1.3 3.7-1.5 4.7-3.3 1.2-2.5-1.3-5.5-1.3-7.8 0-1.8 2-2.6 1.8-2.6-1.1 0-2.1 1.6-2.6 2.6-.4.8 2 2.9 0 5-.2.1-1.2.5-1.5.4-2.2-.7-2.2-3.7-1.3-5.4 1-2 4.6-3.4 3-6.5-.5-1-1-3.3-.2-4.6.4-.6 1.6-2.3 1.6-1.6 0 .4-1.3.4-1.6.6l-1.3 1.5c-1.2 2.5 2.2 4.2-1.3 6-.7.3-1 .9-2 .2-3-2 0-2.1 0-3.6l-.8 1.3c-.5 1-1.4 3.4-.8 4.6 1 2 .4 1.8 0 4.2-.4 2.6.7.4 1.3-.3.1 0-.6 2.6-1.3 4.7-.5 1.5-1.5 3.8-1.5 6.7 0 .6.3-2.3.7-1.8 1 .8-.2 3.3.3 3.3 1.4 0-.5 4.3-.5 4.7 0 1.3-.5 3.6-1.3 4.4-.2.2.2.4.3.5.7 3.7 0 1.5 0 3.6 0 .3.6.3.5.8-.5 1.8-1.7 3.2-2.1 4.9-.2.8.5 1.6.3 2.3q-2 5 .2 10M301 146.5c0 .3-.6 1-.2 1s.2-1.4.2-1l-.2 2c0 1.4 3.4-.6 3.9-1.5 1-2-1-3.8.5-6 .5-.7 5.7-2.8 3-4-.3-.3.8 1.5.6 2-.8 1.6-6.3 3-2.9 6.4h.6c3 0 1-2 1.3-3 0-.2.5-.8.5-.8-.2 0-.8 2-.8 2.3 0 2.8 4.8 2.1 1.3 5.7-1.8 1.8-3.8 4.4-2 7 0 .2.4 1.1.7 1.2 6.9 2.3 2.6-2.6 3.1-4.1.3-1 2.1-1.8 2-1.8l-1.2.8c-1.6 1.5.6 1.8 1.3 3 .8 1.8-2 3.4.7 4.7q.8.2 1.3-.2c3.4-1.7.6-4.9 2.9-6 2.6-1.3 9.7-1 11.3-2.6 2.1-2-2-4.8-1-6.7.4-.8 2-2 2.8-2h1q-4 .2-3 3.6l.2 1.3c1.5 1.4 2.2 1 2.9 3 .1.5.7.5.5 1-1.6 4.9-6.7 5-6.7 8.6l1 1.3c-2.4 0 1-4.7.8-5.2-1.8-3.6-10.4.2-11.4 3.1-.2.6-.7 2-.5 2.6.5 1.4 2.7 2.8 4.1 2.3 4-1.2.1-2.2.8-3.6.3-.5 1-.2 1.3-.5 0 0 .3-.4.3-.2s-1.6 1.3-1.8 1.8c-.6 1 1.7 2.3.5 3.6-1.1 1-3.2 1-4.4 1.8-.8.5-1.2 1.5-1.8 2-1 1-1.4 4.5-.8 5.7.2.4 2.6.1 2-1 0 0-1.4 2.5-2 3.1-.4.4-1.7-2.8-1.8-3.1 0 0 .3-1.2 0-2-.2-.7-.1-1.9-.8-1.9-.1 0-.4.5-.2.5s-.8-2.4-.8-2.5c-.2-.5.9-2.2 0-2.6-.3-.2-.1 1.3-.3 1-.5-1-.5-2.3-1-3.3-.1-.3-.3.5-.5.5s-1.4-4.7-1.6-4.7c-.6 0-2-3-2.6-5.7-.2-1.2-1.1-.6-1.3-1-.1-.6.1-1.5-.7-1.8-.7-.2 0 1.4-.8 0-.8-1.5-.8-2.3-.3-4.1m8 338.4c4.3-1.2 12.4-5 10.9-10.9-.5-2.1-2.4-6.2-1-8.3 1.2-1.9 4-1.5 4.9 0 .3.7-.3 1.7-.8 2.1s-1.5-.1-1.3 0c.7.7 2.2-.6 2.3-.8 1.4-1.3-2.1-4.1-.7-7 2.7-5.4 9.5-7.2 12-12.3.6-1.1 1.4-3.5.9-4.7-.7-1.5-5-4.6-4-6.7.5-.8 4.2-2.4 4.2-2.6 0-1.1-3.7 1.8-3.8 2-2 2.8 2.8 7-1.9 8.6-1.3.5-2.1.5-3.6 0q-1.9-.8-1.8-2.8c0-1.9.2-2.7.8-4.4 1-3.2 6.3-3 7.2-7.5.4-2 .2-2.9-1.5-4.2-2-1.5 1 1.2 1 1.6.5 1.9-.8 3.4-2 4.6-2.6 2.6-9.5 4.2-10.4 7.8l-.5 2.3c-.1.4.2 1.3 0 1.6-.3.2-1 1-.5 1 .3 0 0-.6.2-.8.4-.4 1.3-.6 1.8-.7 3.3-1.1 8.4 1.3 7.8 5.1-.6 3.4-3.8 6.3-7.2 5.2-.5-.2-1.4-.8-1.6-1.3v-.8c-.9 0 .2 1.9-.2 2.6q-1.6 2.2-2.6 5.2c-.9 2.6-1.4 7-2.1 10.6l-1.3 4.6c-.4 1-1.3 1.9-1.5 2.9-.7 3.4-2 5-3.7 8M134.1 40.4c-3.3-.9 3.2 1-1.5-.6q-1.5-.5-2.2-2c-1.7-3.5 5.7-3.5 4.6-6.7-.5-1.4-4-2-4.6-.4-.2.6.1 1.4.7 1.6.8.3 1.7-.5 1.7-.5-1.5.7-4 1.4-4.6-1-1.2-5 5.2-5.2 5.9-9.6.5-3.7-4-6-5.3-9.1-1.5-3.7 5-3.7 6.7-4.6.4-.2 2.7-1.5 2-2.2-.2-.2-1.1-.6-.9-.4.4.4 2.8 1.7.8 2.2-2.7.7-4.5 1.5-5.5 4q-.6 1.7.7 3c3.3 2.7 11.7 2.5 13.5-2 1.3-3.1-5.2-4.8-4.5-6.8.5-1.8 3.5-2.5 5-3.1 1.6-.6 2.8-1.7 4.3-2.4 2-1 4.1-2.2 3.4-5-.2-1-1.8-1.4-2.1-2.3s2.8-1 2.7-.9l-1.5 1v.6l-.2 1.1c.2.4 1.2 1 1.5 1.1 2.2 1.8 5.2 4.1 3 7-1.2 1.4-3.2 1.6-4.3 2.9q-.4.6-.3 1.3c.1.5 1 .7.9.7-3.5 0 1.2-3.4 1.4-4 .5-1.3-2.9-2.3-3.6-2-3.6 1.2-6 2.4-5.3 6.6v2c1 3.1 6 3.9 8.2 1.6 1.7-1.7-.2-4.7 3.5-4.7l-1.5.1c-1.5.4-2 1.5-2.4 3-.6 3.4 6.4 3.3 2.8 6.9-1.1 1.1-2.7 1.8-3.9 3-.5.5-1.3 1.1-1.6 2-.8 2.3 3 4 4.8 2.9.7-.5 2.2-3.5.3-3.5-.2 0 .7 1.4 0 2.4-1 1.3-2.8 1.3-3.6 2.9-.5 1 .7 2.5.5 2.7-.4.5-6.5-3.2-7-4a8 8 0 0 0-1.8-2.4l-.9-.5c.7-.7 3.7 0 5-2 2-3.4-5.2-4.5-7-4-4.3 1-1.4 3.4-1.4 4 0 .4-1.3.5-1.5.7s1.1 3 1.3 3.3c.7 1.5-.3 4.5.3 5.8 1 1.9 0 8.6-1.2 9.9-1.4 1.4-3.6.9-5.3.4M157.5 29c-1.9-2.8 1.9 3.3-1-1.4-2.4-4 3.8-5.3 5.3-7.7.4-.5.5-1.6.6-2.2.4-2.5-4.6-4.4-1.7-6.7 2.6-2.1 9.3-2.5 10.6-5.7.8-2-.2-3.6-2.2-4q-.7 0-1.4.3c-2 1.2.3 2.3.3 1.9 0-.5-1.3 0-1.4-.4-.8-2.4 5.6-2.4 7-4.6.2-.4.8-2.5 0-2.5-.6 0 1.1 1.2.5 2.2-1 1.3-2.8 1.7-2.8 3.6 0 1.5.1 2.8 1.7 2.8q.7 0 1.3-.4c.8-.8.7-2 0-2.7 0 0-1.1-.8-1.1-.6 0 .6 2.7 1.2 2 3.1-1.5 3.6-11 2.5-11 8.8 0 4 4.8 1.7 3.5.4-.8-.8.5.5.2 1.2-.4.8-1.6 2.2-1 3.1.4.6 1.4 1.4 2 .8.3-.3 1-1.1.6-1.1s-.6 1.5-.7 2c-.4 1 0 2.4-.4 3.4-.3 1-1.2 4-1.8 4.6-2.3 2.3-4.1 5.1-7.9 3.9-1.2-.5-1.5-.2-1.2-2m35.2 1.3c-.3-1 .3 1-.4-.8q-.5-1.3.1-2.6l.7-1c1.5-1.6 5-1.3 5.4-3.9.5-3-2.5-2.5-2.9-4 0-.5 0-1.6.6-1.8l.4-.2h.3c0-.4-1.6.6-1.6 1.5s2.2 2.4 1.3 3.5c-.6.8-2.6.7-3.3.3q-.8-.6-1.3-1.4l-.3-.7c-1.7-3.4 3.6-5 5.1-7.3 2-3-2-5.7-1-7.5.8-1.9 3-.9 4.4-1.6.2 0 .6-.7.4-.9-.3-.2.1.5-.3.7q-1 .5-2.2.5c-1.7 0-6.9-.2-6.5 2.7 0 .5.6 1 .6 1 0-.2-.7-.4-.5-.7.7-1.4 3-.9 3.8 0 1.2 1.2.5 3.7-.4 4.8-.8.9-4.1 2-4.5.2-.3-1.4 2-1.1 2.3-2.3 0-.1-.1-1-.4-.8V9c-.1.5-1.1.8-1.5 1q-.5.2-1 0c-.9.3-2.4.6-2.9 1.6v.6l-.3.6.8 2.3c.2.6 0 1.4.3 2l.6 1.9 1.2 2.7v.4c.6.6 1 3 1.5 4l.3 2.1q.5 1.3 1.2 2.2m34 54q-.5.2-1.4-.7c-1.1-1.1-1-1.6-1.3-3-.4-2.4 1.8-3.3 3.4-4.6q1.4-1.4 2.2-3 .6-1.1.5-2.2c-.2-2.6-3.2-3.2-4.5-5.1-.7-1.1 0-2.2.9-2.8q1-.6 1-.4c-.1.2-.5 0-.7.2-.6.1-1.7.8-1.9 1.5-.3 1.3 1.4 2 1.7 3.2l-.2 1c-.6 1.8-4 1-5 0l-1.3-1.5c-.3-.8-.5-3.6 0-4.2 1-1.4 3.3-1.6 3.3-3.5q0-1.2-1.2-1.8c-.4-.1 1 .7 1.1 1.1.2.9-.6 1.8-1.2 2.2q-1.2.9-2.6 1.4l-3 2q-.7.4-1.2 1.1-1 1.5.2 2.7l.2.2c.1 0-.7-.4-.3-.9q.7-.7 1.6-.6c2.3.4 1.2 4 0 4.8-1.3.8-2-.3-2.3-.3l.2.4q.3.7.4 1.5c0 .3 0 1 .2 1.3q.6.9 1.3 1.3l.3.4q-.2-.2-.2-1.3.3-1 1-2c1-1.2 3.9-2.3 5.5-1.6 2.5 1 2 4.7.2 6.2q-1.4 1-3 1.2h-1.1q-.4-.3-.6-.2s.8.5.8.7c.3.4 3.7 4 4.2 4.2 1 .5 1.7 1.2 2.8 1.2" style="display:inline;fill:#d40000;stroke-width:.264583"/>
  <path id="aura-glow" data-trait-name="aura glow" d="M239 85.5c-1.7-5 3.3-2.5 6-5.2 1.8-1.8-1.8-2.6-1.4-3.7.5-1.4 3.5-1.5 3.5-1.6-.4-.4-2 .2-2.3.4-1.3.7-1.6 2.3 0 2.6 3.5.7 1.5-3.2 2.4-1.4.8 1.5-2.9 2-2 4 .8 1.5 2.7-.8 2.7-1.7 0-3.7 7.4-2 9.5-3.7 2.2-1.8-1.6-2.3-2-3.1-.7-1.4 3.8-1.7 3.3-1.7s-1.7-.3-2.2.4c-1.2 1.8 2.5 2.2 3.4 3 2.2 2.3-3.2 3.2-2.5 4.7.6 1.3 2.6 1.3 3.6.7.5-.3 0-1.8.3-1.8l.9-.3c-3 0 .6 3.9-2 5.4-3.3 2 3-1.8-.7-2.6-3-.6-4.5 1.7-4 1.7 2.4 0-.8-7.8-5.3-3.3-1 1-.3 3.3 1.3 2.8 1.4-.5.2-1.8.2-1.8 0 .1 1.3.6.7 1.2-1.6 1.5-2.7.1-4.2.5-1.6.4-2.5 2-2.4 2 .5-1-1.7.7-1.7.7.2 0-1.5 1-1.5.9-.8-.3-2.9 1.2-2.1 1.2v-.7c-.2-.5-1 .3-1.6.4m48.9 17.6c-.2 0-1.5-.3-2-1.7-1-3.4 2.6-3 3.4-5.4.4-1.2-1.5-2.2-1.8-3.1s1.4-1 1.4-1.5c0 0-1.4.6-1.5 1-.3 1 1.2 1.7 1 2.4-.3 1-1.9 1.2-2.6.5-1.8-1.9-1.2-3.5.4-5.1 1.5-1.5 4.8-.7 5.4-3.4.5-1.8-2.8-2.9-3.2-4.7s2.3-2.5 2.3-2.5c-5.4 0 1.3 6-3.2 7.5-3.4 1 .2-3.5-.5-4.2 0 0 .3 1.3-.8 1.8-1 .6-4 1-4.5 2.4-.2.5.3 2.2.3 1.6 0-.2-.6-.5-.4-.9.6-1.2 4-2.2 4.7-.6 1 2-1.8 4-3.4 4.5q-1.4.3-2.5-.4c-4.5-2.2 0-3.7-.6-4.9q-.6-.7-1.5-1.2c-1-.6 1.4-1.4 1.2-1.2-1.4.6-3 .6-3 2.4l.2.5s.2-1.5 1.2-1.1c2.5.8-.7 3.7-2.3 3.7-.7 0-2-.4-2.2-1.3-.3-1.4 1.6-1.8 2-3 0-.2-.8-1-.8-1-.2.2.7 1.5-.4 1.8-.6.2-3.6 1-3.6 1.8 0 .4.8-.2 1.1 0 .8.6 1 1.3 1.6 1.8.2.3 2.6 2.4 2.8 2.4s.1-.6.3-.6c.4 0 .4 1.3.9 1.3.2 0 .4-.4.5-.4.3 0 .2.6.4.8q1.1 1 2.5 1.7c.4.2 1.1 1.6 1.5 2 .2.3.7 0 1 .2 1.1 1.2 2.6 5.8 3.1 7.5.5 1.3 2.5 2.2 2.5 4.1 0 .6-.9-.7-1-1.3-.5-1.5.7-3 0-4.2m-9-26.3c6.5 1.7 2.1-3.8 2.5-5 .2-.6 1.1-1 1.7-1 .4 0 1.2.2 1.2-.2 0-.8-4.7 1.5-5.2 2.9-.6 1.8 2.7-1.4 2.7 1.3 0 .4-1.1 1-1.4.8-.1-.1-.6-.5-.5-.7s.6-.4.4-.4c-.6 0-1.3 2-1.4 2.3m-13 3.1c-.1-.3-.8-.7-.2-1.9.8-1.7 3.8-.3 5.1-1.3s.2-4 2.9-3c.7.1-1.8 0-2 .6-.5.9.5 1.8 1.3 2 3.6 1 2-2.8 2.4-3.5.2-.4 1.4-1 1.1-.6-2.2 2.2.8 3.1.3 5.8-.2 1-4.2 4.1-5 2.6-.1-.4 1.2 0 1.6-.1.9-.2 1.7-1.2 1.3-2.1-.6-1.6-4-.7-5-.3l-1 .7c-2.1 2.2 3.9.1 2.3.1-.6 0-.5 1.1-1 1.3-2 .6-2-1.5-4-.3m47.2 158c-1-.3 2.2-13.5 6.4-11.4 1 .5 2.5.7 2.2 2.4-.6 2.8-3 0-2.4 1 .9 1.9 3.8-1 4.2-2 .5-1.5-2.8-2.8-3.5-4.1-1.5-3 2.2-5 4.2-6.3 1.7-1 .6-3.2.6-3 0 3.8-4 3.2-7 5.4q-1.2.9-1.4 2.4c0 .1.6-.9 1-1.1.8-.4 2 0 2.2.7 1.1 2.2-2.6 3.5-4.2 2.8-.5-.3-.3-1-.5-1.5-2-6 8.6-5.6 7.5-9.9-.2-.9-1.6-2.5-1.1-3.4.2-.5 1.8-1 1.3-1-3.6 0 .1 8-4.4 4.6-4.3-3.2 1.3-5.6 2.4-7.6s-3.1-3.6-3.1-5.5c0-1.6 1.8-4.2 3.2-2.8.2.2 0 1.1-.3 1.1-.4 0 .3-1 0-1.2q-.8-.6-1.3-1.5c-1-2 3.7-4.8 3-4.8-3 0-5.8 5.5-6.5 7.5 0 .2 0 1.1.2 1.1.5 0 .4-1 1-.7 1.2.6 1.2 3.8.5 5-.1 0-2.2 2.3-2.2 1 0-2.1.5 6.8.5 6.8s-.7.3-1 1.3c-.2.3-.5 2.4-.2 3.4 1.3 5.3-4 15-1.3 21.2m1.6-55.8c0-2.6-.5 3 0-1.5.1-1 1-1.9.6-3.2-.7-2.7-4.2-5-2.6-8 .6-1.3 2.9-1.5 3.5-.3.3.7-.2 1.7-.8 2l-.9-.3c0 2.1 3-1.7 3.3-2.2.9-1.7-1.4-4.2-.7-6.2 1-3 4.3-3.4 6.4-4.8 1.6-1 1.3-3 1.3-2.9-.7.7-.3 1.7-1.3 2.4-2 1.4-4 0-6.2 0-2 0-3.4 1.4-3.1 1.4.4 0 0-1 .3-1 5.5-1.9 2.3 6.4-1.2 5.2-3.9-1.2 2.3-3.3 1.4-4.2-.5-.5-.7 1.5-1.4 1.7-2.4.8-3.3-.6-5.3 1.5-.4.3.7.6.9 1 .3.7-.8 2.2 0 2.2v-1.4c.4-.8 1.1-.8 1.8-1.1 1.5-.8 3.9 1.9 3.5 3-.7 2.2-.9 2.5-2.6 3.4l-2.2-1c0 .3.8 1 1 1.2q.4 1.4.3 3l.2 1.3c0-.4 1 1.6 1 3.1 0 2 1.6 2.8 2.8 5.7m-8-25.6c0-.2-1.2-2-.4-3.6.7-1.4 2.4-2.8 2.4-4.4 0-.7-1.1-2.5-1.1-1.8 0 1.3 1.2 2.5-.7 3.4-2.2 1.1-2.7-3-1.5-3l-1 .9c-.9 2 1.5 1.6-1 4.2 0 0 1.3 6.9 2.7 6.9 1.1 0-1 3.3 0 3.3.2 0-.1-3.4.6-5.9M142.7 262c.3-.2 5-4.8.3-6.4l-1.6.6c-1.2 1.1 2.7.9 1 .9-.6 0-2.6-.5-1.6-1.5 1.2-1 3.6-1.6 4.2-3.4.5-1.3-2.8-3.4-.9-4.4.2 0-.6 1-.3 1.4.4 1 2 2 2.9 1.5 2.3-1.2-2-3-1.1-4.7.3-.8 5.1-2.9 2.4-4.2-.2-.1.8 1.2.7 1.6-.4 1-2.2.8-2.2 2q0 1.6 1.5 2.2c1.6.8 0-2.3 0-1.6s1.7 1.2 1 2.5c-1 2-3.4 2.2-4.2 4.4-.4 1.4 1.2 2 2.2 1.3.4-.2.8-.9.6-1.3l-.7-1c.3 0 1 1 1 1.2.5.9-1.5 2-1.8 2.5-1 2 .2 1.9-.5 3.3-.6 1.2-1 1.3-1.7 2.6-.1.3.3 1 0 .9-.4 0-1-.7-1.2-.4-.3.3.5 2.8-.2 2-.3-.3-1.8 2.8-1.5 2.8.2 0 .3-1.5.4-1.7q.5-1.5 1.3-3m10-17.5c-4.2-2.6 2.8-8.2 1.8-11.1-.3-.9-1.2-2.3-2.3-1.7-2.4 1.2 0 1.5 0 1.5s-1.6 0-1-1.3c.6-1.2 4.6-3 2.8-4.8a7 7 0 0 1-1.5-3.2c0-.6 1.3-1.5.7-1.5-2.5 0 .6 3.5 1.3 3.8 4.5 2.3 1-7 1.3-7.8.6-1.8 5-3 3-5.1-.4-.4.6 1 .3 1.6-.8 1.6-4.8 3.5-.6 5 1.1.3 2.3-.2 2.6-1.2.3-.7-1.8-2.5-1.3-2s2.3 1.6 1.7 3c-.7 1.2-2.3 1.3-3 2.7-.3.6.2 2.3 1.1 2 1.2-.4.8-2.5-.1-2-.6.3 1 1 1 1.6 0 1-.7 4.8.4 3.7 1.6-1.6-7.7-3-5.6 1.3q.5 1.6 2 2.2c1.5.5 2.5-1.5 2.3-1.5-.4 0-3.5 7.5-3.8 8.4l-1 2.4c0 .7.5 2.2-.3 2.2-1.4 0 .7-3-.5-4.2q-.5-.1-.8.1c-2.6 1.4-1.1 3.7-.5 5.9m16-37c-1.1-2.8 1.2 3-.3-1.5-1.1-3.5 4.7-6.8 3.5-9.2-.4-.8-1.8-2.5-2.6-.9-.4.9 1.1 1.5 1.1 1.1s-.8.1-.9-.2c-.9-1.7 2-3.3 3.1-4.4.6-.6-.4-3.4-.4-2.5 0 .6 1 1.4.6 2.2-.8 1.6-1.3 3.4 1.3 3.4.3 0 1-.4 1-.7.7-2-.9-3.4 0-5.3 1.2-2.3 7.7-3.3 4.5-6.6-.6-.5 1.1 1.4.9 2-.5 1.5-2.5 2-3.1 3.5-.3.8-1 4.3.9 3.3.7-.3 1.2-2 .5-2.6 0 0 .9 1.3.6 1.9-.4.7-1.9 1.6-2.4 2.2-.3.3-.4 2.4-.6 2.9-.8 2-.2-1-.7 0s-.5 2.7-1 3.3c-.2 0-2.5 2.1-2.6 2.9-.3 1.1-1.2 1.6-1.7 3.5l-.3 1.4c-.5.2-1-.1-1.3.2-1.1 1.7-1 5.8-1 5 0-.4-.8.9-.5.9s.1-3.6 1.5-5.9m49.2-83.7c-1.7-2.6 2.2 2.8-.7-1.5-.6-1-1.8-1.5-2.2-2.7-1-2.8 3.4-4.7 2.5-7.3-.2-.9-2-2.7-2.9-2.2-2.3 1.1 2.4 3.4 0 2.2-3-1.5.8-5.3 1.7-7 .4-.9-1.7-3.3-1.7-2.4 0 .6 1.8.8 1.3 2.2-.6 1.8-2.2 3.8.2 5 4 2-.3-5 1.6-5 .6 0-.9 1-.7 1.5.5 1.5 1.6 1.5 2.2 2.7.5 1-.7 3-.7 4 0 2.9 2-1 1.6-1-1.2 0-2.9 9.1-2.2 11.5m7.5-21.6c-3.8-2.5 2.8-8.4 2-11-.4-1.2-.8-2.3-2.4-2.3-2.3 0-.5 1.7-.5 1.6 0-.2-1.7-.1-1.1-1.3.2-.5 1.3-.9 1.8-.9 5.6 0 1.7 3.5 2.8 5.7.3.8 1.9 2.7 2.7 1 .4-.6-2.1 3.3-2.2 3.2-.2-.2.5-2 0-2.6-.4-.4-1.4-.3-2-.3-2.8 0-2.2 5.5.7 4l.8-.4c0-.1-1.8 1.6-2.6 3.3m-13.8-36c-1 .2-1.5-8.5 1.1-7.2.6.3 1.4 1.4.3 2-.6.2-.9-.6-1-.6s0 .7.3.7c1 0 1.7 0 2.2-1 .8-1.6-2-3.4-1.1-5.5s3.6-2 4.1-4.6c.4-2-.8 2.1-1.5 1.8-1.1-.6-2-1.9-1.7-3.3.5-2.2 5.5-2 4.5-5-.1-.4-1-1.3-1-1 0 1.3 1.3 2.5-.8 3.2-2.2.7-5-.4-6.6 1.8-.2.2-.5 1.6.1 1.6s-.3-1-.1-1.3c.3-.5 1.4-1.5 2-1.2 1.7.8 2.4 4 1 5.4-1 1-2.8 1.1-3.3-.2-.1-.6 2.1-3.1 1.3-3.1-.2 0 .1.4 0 .6q-.2.7-.9 1.2c-1.3.8-2.6.5-3.5 1.4-.6.6-1.9-1.4-1.6-2 .2-.8 4-3.7 3.3-4.3-.9-1-4-2.4-3-4.3.4-.9 2-1 2.5-1.8.5-1-.7-1.7-.5-2 .2-.6 2-.4 1.5-.8-.3-.4-1.7.7-1.8.9-.2.4 1.3.9.7 1.5-1.6 1.5-5 1-7 2.5-2.2 1.6 1.3 2.4 1.3 2.2 0-.4-1 0-.8-.8.8-2.4 5.5.5 4.8 2.7-.6 1.8-3.7.2-2.8-.7.8-.8-.8 2-.8 2.4s1.6 2.7 2 3.3c1 2 2.5 5.8 3.1 9 .1.4 1 .9 1.2 1.4.9 1.7.7 5.1 2.5 5.1m97 418c2.3-1 7.1-6.6 9.1-12.7.6-1.7-1.2-4-.5-6 .5-1.4 2.6-2.1 3.9-1.5.6.3-1.4 3.7-2.3 1.8-.1-.2 1.6.7 2.3 0 1.2-1.2.2-3.6-.3-4.9-1.6-4.8 7.4-5.7 5.7-9-.5-1-1 2.3-3 3.4-2.5 1.1-2.9-3.8-2.7-5 .8-4 6.3-3.6 7.3-7.4.5-2.4-2.3-4.8-1.3-6.8.2-.5.5-1.8 1.3-2 0 0 1.3 0 1.3-.3 0-1.3-3.1 1.3-3.1 2.6 0 4.1 3.4 6-2.1 8.8-3.1 1.5-1.4-5.3.5-3.4.7.7-2 .4-2.6 1-1.4 1.4-1.6 5-3.3 6.8-.7.7-1.5 2.8-.6 2.8.5 0 1-1.2 1-.8 0 1.6-4 6.7-3 5.7.6-.6.6 4 0 7-.8 3.7-7.8 18-7.5 19.9M172.3 75.4c-1-1 2.4-3 1.9-4q-.6-.7-1.4-.3c-.8.2-.2 1 .4.5 0 0-1 .6-1.5-.4s1.7-1 2.1-1.2l.6-.3c2-1 1-3 2.2-4.3.5-.5 1.7 0 2-.6v-.2c-.2 0-.2.5-.5.6-.5.3-1.1 0-1.7.4-1.4 1 1 1.8 1.9 1.6 2.2-.5.4-2.5 1.2-3.5s1.8-1 2.7-1.9c.5-.5-.1-.9 0-.7.7.7-2 1.6-2.3 2-1.3 2.7 1.5 1.6 1 1.1-.2-.3.4 2.5-1.4 3.4-.8.4-6 .2-4.3 2.6 2.2 3.4 3.4-.5 4.7-1.2 1.7-.8 3.4 1 5.6-.4.6-.4 1.1-1.7 1-2.4-.5-1.2-1.7-.5-1.5-.8 1.4-1.3 3.4-.1 5-1.7l.2-.5q-.4.1-.4.6c-1 1.4-2.6 1-3.2 2.8v.7c.8 2.1 2.6-2 1.8-1.3-.3.3.3 1.9-.9 2.3-1.7.6-3.6.6-4.5 2.4q0 .5.2.9c1.4 1.4 2.9-1.3 2.8-1.3-1.9 0 .4 5 0 5-.2 0-.3-.8-.4-.9l-1.7-1.6c-.3-.3-2.8 0-2.8-.5s2.3-1 .5-2c-.7-.5-2.8-.5-2.8.8 0 1 .9 1.4.9 1.1h-.4l-1.7-.2c-2.3 0-4.3 1.6-5.3 3.4m19.2 9.9c0-.1-.8-2.2 0-3.3.2-.3 1-.8 1.3-.3s-.5.7-.5.8l.6-.3c.4-.8-.7-1.8-.5-2.6.2-.5 2.4-1.6 1.5-2.4-.2-.2-.4 1.1-.5 1.3-.2.5-1.5.6-2 .9-.2.1-.6.8-.6.8.4-1 1.5.5.3 1-.9.5-1.4-1.1-1.4-1 0 .3.8 1.4 1 1.7.5 1.3-.2 2.2.8 3.4m-38.5-56c1.9.2 7 .2 7.8-2 .5-1.3.7-2.7-.7-3.4q-.7-.3-1.5-.2c-3.4 0 0 1.9 0 1.5 0 0-1.4.4-1.6.2l-.5-1.1c-.8-1.4 4.6-3.4 5-5.3.7-2.5-4.7-5.5-1.4-7.7 1-.6 7.2-1.8 6.2-3.8-.4-.8-3.6-1.1-3.6-.4s1.5-.9 2.2-.5c.7.3 1.8.8 1.4 2-.5 1.5-3 2.5-3.8 3.8-1.2 1.7.5 4.3 2.5 3.7 2.2-.8-1.7-2.2-1.4-2.2 5.4 0-3 5-1.8 7.1 3 6.1 5.9-4.7 7-3.5 1.3 1.3-1.8 6.5-1.8 7.7 0 .7-1-1-1.8-1.3-.7-.2-2.1 1-2.4 1.7-1.4 4.3 3.3 3.4 2.8 2.9-.2-.2-1 1.4-1 1.5-.5.5-1.8 1-2.3 1.4-1.4 1.4-8.1-1.5-9.3-2.2m-16.5 11.2c-.3 0-.9-.3-.9 0 0 .4 1.2.2 1 0-7.4-3.6-.3-4 1.6-7.8.8-1.7-1.2-4.6-3.1-4-1.8.6.5 1.5.5 1.4s-2.3.3-1.8-1.8c.5-2 3.7-2.5 3.7-4.7 0-.5-1.3-3-1.9-2.4l1 .4c.3.2.9 1.3.9 1.8 0 1.1-1.6 3.7-.6 4.7 3.5 3.5 1.3-2.7 1.3-1.4 0 .3.7.1.9.3q.7.7.5 1.9c0 1.7-2.7 3.8-1.6 6 .4.7 1.6 1.4 2.6.9.4-.2.5-2 .5-1.5 0 3.5-.4 6.2-4.6 6.2m10-16.6c8.5-2-.6-6.6.5-9.8.6-2 3.7-2.5 4.9-4.2 2.8-4.3-3.8-.7-2.4-2q.7-.8 2-.8c4 0-3 7.1-1.3 8.8.6.6 2.8 1.4 2.8-.4s-.9-1.2 1 .8c.7.6-1.4 2.8-1 3.6 1.3 2.7 2.8.2 2.7.2v1.6c-.5 1.1-.5 2.5-1.4 3.5-.2.2-.2-.9-.8-1.5-.4-.4-1.8 1-2 1.3-1 1.9 1.1 4.2 1.1 3.9s-4.8-3.6-6-5M53.7 325.3c-4.5-4.4 3-8.9 2.6-11.2-.2-1.1-2.7-3.4-3.4-1.3-.5 1.7 1.6.8 1.3.8s-3.3 1.6-2.3-1.4c.6-2 3.7-1.7 4.3-3.9.6-2.5-3-4.4-1.9-7.2 1-2.3 12.1-6.3 8.2-8.3-.3-.1-1-.3-1 0 0 .4 3.2 1 1 2.6-2 1.5-4.7 2-4.7 5 0 1.2 1 1.9 2.1 1.2 1.2-.8.4-1.8.4-1.8 0 .2.9 1 1 1.4q.6 1 .4 2.3c0 .2-.7 1-.9 1s.3-.5.3-.7q-.4-.8-1.2-1c-1.5-.5-3.3 1.3-3 2.8 1 3.8 5 3.3 6.1-.3.2-.4-.5-1.3-.5-1.8s1-1 1.4-1.1h.5s-2 .7-2 1.6c0 1.2 1 1.5 1.5 2.1.2.2-1.2 4-1.2 2.8 0-.8-2.2 4.3-2.2 4.2 0-1.2-.4.6-.7 1-.2.2.2-.7 0-.6-1.1.5-1.8 1-3.1 2.7-.4.5-.5 1.8-.8 1.8 0 0-.8 4.5-1 4.9 0 .6-2.5 3.6-.4 3.6.4 0-.5-.8-.8-1.2m103-223q.5 0 .6-.7c0-.2-.8-.5-.9-.2 0 0 .1.5.3.3h-.3q-.2-.2-.1-.5c0-.5.8-.6 1.2-.8l.4-.4c.5-.5 0-1.2.4-1.8q0-.2.3-.2h.2c0-.1-.5.1-.5.3-.2.5.9.2 1 .1.3-.2.4-1.1.5-1.4.5-1.8 1.2-1.1 2.4-2q.2-.3 0-.6h-.2.2v.4l-.2.4q-.2 0-.3.2c-.5.3-1.5.4-1.2 1.2q0 .3.4.4h.4c.6-.1.4-.7.5-1.2q0-.3.4-.4h.2q-.6 0-.6.6c0 .4.4.8.2 1.2-.3.5-1.4.4-1.7 1v.3-.3c0-.3 1.2-.8.3-1-.2-.1-1 .7-1 1q-.3.5 0 .8c.2.4 1 .3 1.1 0v-.3l.2-.3h.2c-.9 0 .2 1-1 1.4q-.4 0-.7.5v.3l-.2-.1.2-.2c.1-.2.6-.5.4-.7-.3-.5-1.2-.3-1.5.2l-.3.8q.1.4.5.4c.3-.1 0-.5.2-.6l.2-.2-.3.2.1.7c0 .6-.9.9-1.2 1.2l-.4.8-.1.3h-.1v-.3l-.1.3v-1" style="display:inline;fill:#fff;stroke-width:.264583;filter:url(#filter28)"/>
</svg>
